<?xml version="1.0" encoding="UTF-8"?>
<!-- Generator: Adobe Illustrator 26.0.1, SVG Export Plug-In . SVG Version: 6.00 Build 0)  -->
<svg version="1.1" id="Capa_1" xmlns="http://www.w3.org/2000/svg" xmlns:xlink="http://www.w3.org/1999/xlink" x="0px" y="0px" viewBox="0 0 212.5 51.4" style="enable-background:new 0 0 212.5 51.4;" xml:space="preserve">
<style type="text/css">
	.st0{fill:#FFFFFF;}
	.st1{fill:none;}
</style>
<g>
	<g>
		<g>
			<g>
				<path class="st0" d="M16.5,0C7.4,0,0,7.5,0,16.8c0,9.3,7.4,16.8,16.5,16.8c9.1,0,16.5-7.5,16.5-16.8C33.1,7.5,25.7,0,16.5,0z       M16.5,33.4c-9,0-16.3-7.4-16.3-16.5c0-9.1,7.3-16.5,16.3-16.5c9,0,16.3,7.4,16.3,16.5C32.8,25.9,25.5,33.4,16.5,33.4z"/>
				<path class="st0" d="M16.5,2.9C9,2.9,2.8,9.1,2.8,16.8c0,7.7,6.2,13.9,13.7,13.9c7.6,0,13.7-6.3,13.7-13.9      C30.3,9.1,24.1,2.9,16.5,2.9z M16.5,30.5c-7.4,0-13.4-6.1-13.4-13.7c0-7.5,6-13.7,13.4-13.7S30,9.3,30,16.8      C30,24.4,24,30.5,16.5,30.5z"/>
				<g>
					<g>
						<path class="st0" d="M23.1,7.1v1.1l0.3,0.2V7.1c0-0.3-0.3-0.6-0.6-0.6H10.3c-0.3,0-0.6,0.3-0.6,0.6v1.3L10,8.2V7.1        c0-0.2,0.1-0.3,0.3-0.3h12.6C23,6.8,23.1,6.9,23.1,7.1z"/>
					</g>
					<path class="st0" d="M23.3,20.1c-0.1,0-0.1,0-0.1,0.1v0.1l0,4.9c0,1.4-1.2,2.6-2.6,2.6l-2.7,0c-0.1,0-0.3,0-0.4,0       c-0.2,0-0.5,0.2-0.6,0.3c0,0-0.1,0.1-0.1,0.1c-0.1,0.1-0.3,0.1-0.4,0c0,0-0.3-0.3-0.5-0.3c0,0-0.1,0-0.2,0c-0.1,0-0.2,0-0.2,0       l-2.9,0c-1.4,0-2.6-1.2-2.6-2.6l0-5c0-0.1,0-0.1-0.1-0.1H9.8c-0.1,0-0.1,0-0.1,0.1v5c0,1.6,1.3,2.9,2.9,2.9h2.9c0,0,0,0,0.1,0       c0.2,0,0.3,0,0.3,0c0.1,0,0.3,0.2,0.4,0.3c0.1,0.1,0.3,0.2,0.4,0.2c0.2,0,0.3-0.1,0.4-0.2c0,0,0,0,0.1-0.1       c0.1-0.1,0.3-0.2,0.4-0.2c0,0,0.2,0,0.3,0l2.7,0c1.6,0,2.9-1.3,2.9-2.9l0-5c0-0.1,0-0.1-0.1-0.1H23.3z"/>
				</g>
				<path class="st0" d="M8.9,9.8"/>
				<g>
					<g>
						<path class="st0" d="M11.2,8.6c0.3-0.2-0.6-0.2-0.3,0C10.9,8.7,11,8.6,11.2,8.6z"/>
						<path class="st0" d="M10.5,8.9c0.1,0,0.1-0.2,0-0.2c0,0-0.1,0-0.2,0c0,0,0-0.1,0-0.1c0,0,0,0,0.1-0.1c0,0,0.1,0,0.1,0        c0.1,0,0.1,0,0.1-0.1c0,0,0-0.1-0.1-0.1c-0.1,0-0.2,0-0.2,0c0,0-0.1,0.1-0.1,0.1c0,0.1,0,0.1,0,0.2        C10.2,8.8,10.3,8.9,10.5,8.9z"/>
						<path class="st0" d="M10.2,9.6c0.3,0.1,0.2,0.4,0.3,0.3s0.3,0.3,0.3,0.1c0-0.1-0.1-0.4-0.4-0.5c-0.3-0.2-0.1-0.4-0.1-0.4        S9.9,9.5,10.2,9.6z"/>
						<path class="st0" d="M12.2,10.8c0.6,0,0.6-0.3,0.4-0.5c-0.1-0.1-0.3-0.3-0.5-0.1c-0.1,0.1-0.2,0-0.3,0.1        c-0.1,0-0.3,0.1-0.5,0.1c0.1-0.1,0.1-0.3,0.1-0.5c0.2-0.1,0.5-0.1,0.4-0.4c0-0.1,0-0.1-0.1-0.1c-0.1,0-0.2,0-0.3-0.1        c-0.1-0.1-0.1-0.2,0-0.3c0,0,0.1,0.1,0.2,0.1c0.1,0,0.1,0,0.2,0c0.2,0,0.4-0.1,0.4-0.2c0-0.1-0.2,0-0.3,0        c-0.1,0-0.2,0-0.3-0.1c0.1-0.1,0.3-0.2,0.3-0.3c0,0,0,0,0-0.1c0,0,0,0,0-0.1c0-0.1,0-0.2,0-0.2c0,0,0,0-0.1,0c0,0,0,0-0.1,0        c-0.4,0-0.8-0.3-1.2-0.3c0,0-0.1,0-0.3,0.1c0,0,0,0,0,0c0,0-0.2,0.1-0.2,0.1c0,0-0.1,0-0.1,0c0,0,0,0,0,0        c-0.1,0-0.2,0-0.2,0.1C9.3,8.4,9,8.5,9,8.9c0.2-0.1,0.4-0.1,0.6-0.1C9.3,8.9,8.9,9,8.8,9.3c0,0.1-0.1,0.1,0,0.2        c0,0,0,0.1,0,0.1c0.1,0,0.1-0.1,0.2-0.1c0,0,0.1,0,0.1,0c0,0,0.1,0,0.1,0c0,0-0.1,0-0.1,0c-0.3,0.1-0.4,0.5-0.3,0.8l0,0        c0,0,0,0,0,0c0,0,0,0,0,0l0,0c0.1,0.1,0.2,0.3,0.3,0.3c0,0.7-0.1,0.6-0.7,0.9c-0.4,0.2-0.7,0.3-0.8,0.2        c-0.3-0.2,0-0.5,0.2-0.8c1.4-1.3-1-1.7-1-0.6c0,0,0,0-0.1,0c-0.1,0.1-0.1,0.4,0.1,0.4c0.2,0.1,0.3,0.2,0.3,0.2        s0.1-0.2,0.1-0.4c0-0.2-0.1-0.3-0.2-0.2c0-0.4,0.8-0.6,1-0.2c0.2,0.5-0.6,0.9-0.7,1.3C7.2,11.7,7.4,12,7.7,12        c0,0.1,0,0.3,0,0.4c0,0.3-0.7,0.3-0.1,0.8c-0.3,0.8,0,0.8,0.7,0.8c0.6,0.1,0.6-0.6,0-0.5c-0.1-0.6,0.2-0.3,0.7-0.6        c0.2-0.1,0.3-0.2,0.5-0.2c0.2,0,0.4,0.2,0.4,0.5c-0.1,0.6,0.4,0.5,0.8,0.5c0.6,0.2,0.8-0.7,0-0.5c0-0.2,0-0.4,0-0.6        c0-0.1-0.1-0.1-0.1-0.2c-0.1-0.1-0.1-0.1-0.2-0.1c0-0.1-0.1-0.1-0.1-0.2c0.1-0.1,0.3-0.2,0.4-0.3c0.4,0.2,0.5-0.3,1-0.2        c0.2,0,0.4,0,0.6,0c0.3-0.1,0.4-0.2,0.3-0.4c0-0.1-0.1-0.2-0.3-0.2c-0.2,0-0.4,0.2-0.6,0.2c0,0,0.1-0.1,0.2-0.1        C11.9,10.8,12.1,10.8,12.2,10.8z M9,10.3C9,10.3,9,10.2,9,10.3C8.8,9.6,9.6,9.4,9.6,9.4C9.5,9.2,9.3,9.2,9.1,9.2        c0.1-0.1,0.7-0.3,0.8-0.3l0.1,0C9.9,8.6,9.6,8.6,9.3,8.6c0.2-0.2,0.7-0.2,1-0.4c0.1,0,0.2-0.1,0.2-0.1c0.3,0,0.5,0.2,1.1,0.3        c0,0.1,0,0.1,0,0.2c-0.5,0.2-0.7,1-0.1,1c-0.1,0.1-0.2,0.1-0.3,0.1c0-0.1-0.1-0.2-0.2-0.2c-0.1-0.1-0.1-0.1-0.3-0.3        c0,0-0.1-0.1-0.1-0.1c0,0,0.3,0.3,0.4,0.5c0.1,0.2,0.1,0.5,0,0.7c-0.1,0-0.1,0-0.2-0.1c-0.1,0-0.2-0.1-0.3-0.1        c-0.2,0-0.3-0.1-0.4-0.1c-0.2,0-0.4,0.1-0.5,0.1c-0.1,0-0.3,0.2-0.3,0.2c0,0-0.1,0-0.1,0C9.1,10.4,9.1,10.4,9,10.3z         M10.2,12.4c0.6,0.2-0.1,1.2,0.7,1c0.1,0,0.1,0,0.1,0c0.1,0.2-0.3,0.1-0.5,0.1c-1,0.2,0.2-0.9-1.1-1c0.1-0.2,0.3-0.4,0.5-0.4        C10.1,12.2,10.2,12.4,10.2,12.4z M11.7,11.2c0.2,0,0.4-0.1,0.5-0.2c0,0,0.1,0,0.1,0C12.6,11.3,11.8,11.3,11.7,11.2        c-0.6,0-0.8,0.5-1,0.3c0-0.1-0.1-0.3-0.2-0.3c-0.1,0-0.1,0-0.1,0c0,0,0,0.1,0.1,0.2c0,0.1,0,0.2,0,0.2c0,0,0,0,0,0        c0,0,0,0,0,0c0,0.1-0.1,0.1-0.1,0.1c-0.1,0.1-0.3,0.2-0.4,0.2c-0.2,0.1-0.3,0.1-0.4,0.2c-0.2,0.3-0.4,0.5-0.7,0.6        c-0.2,0.1-0.4,0.1-0.5,0.2c-0.2,0.1-0.1,0.3-0.1,0.4c0,0.3,0.1,0.4,0.4,0.4c0.1,0.2-0.3,0.1-0.4,0.1c-0.8,0.1-0.2-0.3-0.3-0.7        c-0.4-0.4-0.1-0.2,0.1-0.6c0.1-0.2-0.2-0.5,0.1-0.6c2.3-0.7,0.7-0.9,1.6-1.4c0.1,0.3,0.3,0.2,0.4-0.1c0.1,0.2,0.3,0.2,0.4,0        c0,0.1,0.2,0.2,0.4,0.1C11,11,11.2,11.1,11.7,11.2z M11.7,10.7c-0.1,0-0.2,0.1-0.2,0.2c-0.1-0.1-0.2-0.1-0.3-0.3        c0.2,0.1,0.5,0,0.7-0.1c0.3,0,0.3,0,0.5-0.2c0.3,0.2,0.2,0.3-0.2,0.3C12,10.6,11.8,10.6,11.7,10.7z"/>
					</g>
					<g>
						<path class="st0" d="M10.3,14.8c0.3-0.2-0.6-0.2-0.3,0C10.1,14.9,10.1,14.7,10.3,14.8z"/>
						<path class="st0" d="M9.6,15c0.1,0,0.1-0.2,0-0.2c0,0-0.1,0-0.2,0c0,0,0-0.1,0-0.1c0,0,0,0,0.1-0.1c0,0,0.1,0,0.1,0        c0.1,0,0.1,0,0.1-0.1c0,0,0-0.1-0.1-0.1c-0.1,0-0.2,0-0.2,0c0,0-0.1,0.1-0.1,0.1c0,0.1,0,0.1,0,0.2C9.4,15,9.5,15.1,9.6,15z"/>
						<path class="st0" d="M9.3,15.8c0.3,0.1,0.2,0.4,0.3,0.3c0.1,0,0.3,0.3,0.3,0.1c0-0.1-0.1-0.4-0.4-0.5        c-0.3-0.2-0.1-0.4-0.1-0.4S9,15.6,9.3,15.8z"/>
						<path class="st0" d="M11.3,16.9c0.6,0,0.6-0.3,0.4-0.5c-0.1-0.1-0.3-0.3-0.5-0.1c-0.1,0.1-0.2,0-0.3,0.1        c-0.1,0-0.3,0.1-0.5,0.1c0.1-0.1,0.1-0.3,0.1-0.5c0.2-0.1,0.5-0.1,0.4-0.4c0-0.1,0-0.1-0.1-0.1c-0.1,0-0.2,0-0.3-0.1        c-0.1-0.1-0.1-0.2,0-0.3c0,0,0.1,0.1,0.2,0.1c0.1,0,0.1,0,0.2,0c0.2,0,0.4-0.1,0.4-0.2c0-0.1-0.2,0-0.3,0        c-0.1,0-0.2,0-0.3-0.1c0.1-0.1,0.3-0.2,0.3-0.3c0,0,0,0,0-0.1c0,0,0,0,0-0.1c0-0.1,0-0.2,0-0.2c0,0,0,0-0.1,0c0,0,0,0-0.1,0        c-0.4,0-0.8-0.3-1.2-0.3c0,0-0.1,0-0.3,0.1c0,0,0,0,0,0c0,0-0.2,0.1-0.2,0.1c-0.4,0.1-0.9,0.2-1,0.7C8.3,15,8.6,15,8.7,15        C8.5,15,8.1,15.2,8,15.4c0,0.1-0.1,0.1,0,0.2c0,0,0,0.1,0,0.1c0.1,0,0.1-0.1,0.2-0.1c0,0,0.1,0,0.1,0c0,0,0.1,0,0.1,0        c0,0-0.1,0-0.1,0c-0.3,0.1-0.4,0.5-0.3,0.8l0,0c0,0,0,0,0,0c0,0,0,0,0,0l0,0c0.1,0.1,0.2,0.3,0.3,0.3c0,0.7-0.1,0.6-0.7,0.9        C7.2,17.9,7,18,6.8,17.9c-0.3-0.2,0-0.5,0.2-0.8c1.4-1.3-1-1.7-1-0.6c0,0,0,0-0.1,0c-0.1,0.1-0.1,0.4,0.1,0.4        c0.2,0.1,0.3,0.2,0.3,0.2s0.1-0.2,0.1-0.4c0-0.2-0.1-0.3-0.2-0.2c0-0.4,0.8-0.6,1-0.2c0.2,0.5-0.6,0.9-0.7,1.3        c-0.1,0.4,0.1,0.7,0.4,0.7c0,0.1,0,0.3,0,0.4c0,0.3-0.7,0.3-0.1,0.8c-0.3,0.8,0,0.8,0.7,0.8c0.6,0.1,0.6-0.6,0-0.5        c-0.1-0.6,0.2-0.3,0.7-0.6c0.2-0.1,0.3-0.2,0.5-0.2c0.2,0,0.4,0.2,0.4,0.5C9,20,9.5,19.9,9.9,19.9c0.6,0.2,0.8-0.7,0-0.5        c0-0.2,0-0.4,0-0.6c0-0.1-0.1-0.1-0.1-0.2c-0.1-0.1-0.1-0.1-0.2-0.1c0-0.1-0.1-0.1-0.1-0.2c0.1-0.1,0.3-0.2,0.4-0.3        c0.4,0.2,0.5-0.3,1-0.2c0.2,0,0.4,0,0.6,0c0.3-0.1,0.4-0.2,0.3-0.4c0-0.1-0.1-0.2-0.3-0.2c-0.2,0-0.4,0.2-0.6,0.2        c0,0,0.1-0.1,0.2-0.1C11.1,17,11.3,16.9,11.3,16.9z M8.2,16.5C8.2,16.4,8.2,16.4,8.2,16.5c-0.2-0.7,0.5-0.9,0.5-0.9        c-0.1-0.2-0.3-0.3-0.5-0.2C8.4,15.3,9,15.1,9.1,15l0.1,0c-0.1-0.2-0.4-0.3-0.7-0.2c0.2-0.2,0.7-0.2,1-0.4        c0.1,0,0.2-0.1,0.2-0.1c0.3,0,0.5,0.2,1.1,0.3c0,0.1,0,0.1,0,0.2c-0.5,0.2-0.7,1-0.1,1c-0.1,0.1-0.2,0.1-0.3,0.1        c0-0.1-0.1-0.2-0.2-0.2c-0.1-0.1-0.1-0.1-0.3-0.3c0,0-0.1-0.1-0.1-0.1c0,0,0.3,0.3,0.4,0.5c0.1,0.2,0.1,0.5,0,0.7        c-0.1,0-0.1,0-0.2-0.1c-0.1,0-0.2-0.1-0.3-0.1c0,0,0,0,0,0c-0.4-0.1-0.7-0.1-0.9,0c-0.1,0-0.3,0.2-0.3,0.2c0,0-0.1,0-0.1,0        C8.3,16.6,8.3,16.5,8.2,16.5z M9.4,18.6c0.6,0.2-0.1,1.2,0.7,1c0.1,0,0.1,0,0.1,0c0.1,0.2-0.3,0.1-0.5,0.1        c-1,0.2,0.2-0.9-1.1-1c0.1-0.2,0.3-0.4,0.5-0.4C9.2,18.4,9.3,18.5,9.4,18.6z M10.9,17.4c0.2,0,0.4-0.1,0.5-0.2        c0,0,0.1,0,0.1,0C11.8,17.5,11,17.5,10.9,17.4c-0.6,0-0.8,0.5-1,0.3c0-0.1-0.1-0.3-0.2-0.3c-0.1,0-0.1,0-0.1,0        c0,0,0,0.1,0.1,0.2c0,0.1,0,0.2,0,0.2l0,0c0,0,0,0,0,0c0,0.1-0.1,0.1-0.1,0.1h0c-0.2,0.2-0.6,0.2-0.8,0.5        C8.5,18.7,8.3,18.8,8,19C7.8,19,7.6,19,7.5,19.1c-0.2,0.1-0.1,0.3-0.1,0.4c0,0.3,0.1,0.4,0.4,0.4c0.1,0.2-0.3,0.1-0.4,0.1        c-0.8,0.1-0.2-0.3-0.3-0.7c-0.4-0.4-0.1-0.2,0.1-0.6c0.1-0.2-0.2-0.5,0.1-0.6c2.3-0.7,0.7-0.9,1.6-1.4        c0.1,0.3,0.3,0.2,0.4-0.1c0.1,0.2,0.3,0.2,0.4,0c0,0.1,0.2,0.2,0.4,0.1C10.2,17.2,10.4,17.3,10.9,17.4z M10.8,16.9        c-0.1,0-0.2,0.1-0.2,0.2c-0.1-0.1-0.2-0.1-0.3-0.3c0.2,0.1,0.5,0,0.7-0.1c0.3,0,0.3,0,0.5-0.2c0.3,0.2,0.2,0.3-0.2,0.3        C11.2,16.8,11,16.8,10.8,16.9z"/>
					</g>
					<g>
						<path class="st0" d="M22,8.6c-0.3-0.2,0.6-0.2,0.3,0C22.2,8.7,22.2,8.6,22,8.6z"/>
						<path class="st0" d="M22.7,8.9c-0.1,0-0.1-0.2,0-0.2c0,0,0.1,0,0.2,0c0,0,0-0.1,0-0.1c0,0,0,0-0.1-0.1c0,0-0.1,0-0.1,0        c-0.1,0-0.1,0-0.1-0.1c0,0,0-0.1,0.1-0.1c0.1,0,0.2,0,0.2,0c0,0,0.1,0.1,0.1,0.1c0,0.1,0,0.1,0,0.2        C22.9,8.8,22.8,8.9,22.7,8.9z"/>
						<path class="st0" d="M23,9.6c-0.3,0.1-0.2,0.4-0.3,0.3c-0.1,0-0.3,0.3-0.3,0.1c0-0.1,0.1-0.4,0.4-0.5S23,9.1,23,9.1        S23.3,9.5,23,9.6z"/>
						<path class="st0" d="M26.3,10.3C26.3,10.3,26.3,10.3,26.3,10.3c-0.1-1.1-2.4-0.7-1.1,0.6c0.3,0.3,0.5,0.6,0.2,0.8        c-0.2,0.1-0.4,0-0.8-0.2c-0.6-0.2-0.7-0.2-0.7-0.9c0.1-0.1,0.2-0.2,0.3-0.3l0,0c0,0,0,0,0,0c0,0,0,0,0,0l0,0        c0.1-0.4,0-0.7-0.3-0.8c0,0-0.1,0-0.1,0c0,0,0.1,0,0.1,0c0,0,0.1,0,0.1,0c0.1,0,0.1,0,0.2,0.1c0,0,0,0,0-0.1        c0-0.1,0-0.1,0-0.2c-0.1-0.2-0.5-0.4-0.8-0.5c0.2,0,0.4,0.1,0.6,0.1c-0.1-0.4-0.4-0.5-0.7-0.6c-0.1,0-0.2-0.1-0.3-0.1        c0,0,0,0,0,0c-0.1,0-0.2-0.1-0.2-0.1c0,0,0,0,0,0c-0.1,0-0.1-0.1-0.2-0.1c-0.1,0-0.1,0-0.1,0c-0.4-0.1-0.8,0.3-1.2,0.3        c0,0,0,0-0.1,0c0,0,0,0-0.1,0c0,0.1,0,0.2,0,0.2c0,0,0,0,0,0.1c0,0,0,0,0,0.1c0,0.1,0.2,0.2,0.3,0.3c-0.1,0.1-0.2,0.1-0.3,0.1        c-0.1,0-0.3-0.2-0.3,0c0,0.2,0.2,0.3,0.4,0.2c0.1,0,0.1,0,0.2,0c0.1,0,0.1-0.1,0.2-0.1c0,0.1,0.1,0.2,0,0.3        c-0.1,0.1-0.2,0.1-0.3,0.1c-0.1,0-0.1,0-0.1,0.1c-0.1,0.3,0.2,0.3,0.4,0.4c0,0.1,0,0.4,0.1,0.5c-0.2,0-0.3-0.1-0.5-0.1        c-0.1,0-0.2,0-0.3-0.1c-0.2-0.2-0.4-0.1-0.5,0.1c-0.2,0.2-0.1,0.4,0.4,0.5c0.1,0,0.3,0.1,0.3,0.1c0.1,0,0.2,0.1,0.2,0.1        c-0.2,0.1-0.4-0.2-0.6-0.2c-0.2,0-0.2,0.1-0.3,0.2c-0.1,0.2,0.1,0.4,0.3,0.4c0.2,0,0.4,0.1,0.6,0c0.6-0.1,0.6,0.4,1,0.2        c0,0.1,0.2,0.3,0.4,0.3c-0.1,0.1-0.1,0.1-0.1,0.2c-0.1,0.1-0.1,0.1-0.2,0.1c-0.1,0.1-0.1,0.1-0.1,0.2c-0.1,0.2,0,0.4,0,0.6        c-0.8-0.2-0.6,0.7,0,0.5c0.4,0,0.9,0.1,0.8-0.5c-0.1-0.3,0.1-0.4,0.4-0.5c0.2,0,0.4,0.1,0.5,0.2c0.4,0.2,0.7,0,0.7,0.6        c-0.6-0.1-0.6,0.6,0,0.5c0.7,0.1,1,0,0.7-0.8c0.7-0.6,0-0.5-0.1-0.8c0-0.1,0.1-0.3,0-0.4c0.3,0,0.5-0.3,0.4-0.7        c-0.1-0.4-0.9-0.8-0.7-1.3c0.2-0.3,1-0.1,1,0.2c-0.2-0.1-0.3,0.1-0.2,0.2c0,0.2,0.1,0.4,0.1,0.4s0.1-0.1,0.3-0.2        C26.5,10.7,26.4,10.4,26.3,10.3z M21.8,9.8c-0.1,0-0.2-0.1-0.3-0.1c0.7-0.1,0.4-0.9-0.1-1c0-0.1,0-0.1,0-0.2        c0.6-0.1,0.8-0.3,1.1-0.3c0.1,0,0.2,0,0.2,0.1c0.3,0.1,0.8,0.2,1,0.4c-0.3-0.1-0.6,0-0.7,0.2l0.1,0c0.1,0,0.7,0.2,0.8,0.3        c-0.2,0-0.4,0-0.5,0.2c0,0,0.7,0.2,0.6,0.8c0,0,0,0.1,0,0.1c0,0.1-0.1,0.1-0.1,0.1c-0.1,0-0.1,0-0.1,0c0,0-0.3-0.1-0.3-0.2        c-0.3-0.1-0.5-0.2-0.9,0c-0.1,0-0.2,0.1-0.3,0.1c-0.1,0-0.2,0.1-0.2,0.1c-0.1-0.2-0.1-0.5,0-0.7c0.1-0.2,0.4-0.5,0.4-0.5        c-0.1,0-0.1,0-0.1,0.1C22,9.4,22,9.5,22,9.5C21.9,9.6,21.9,9.7,21.8,9.8z M21,10.6c-0.4,0-0.5-0.1-0.2-0.3        c0.2,0.2,0.2,0.2,0.5,0.2c0.2,0.1,0.5,0.2,0.7,0.1c-0.1,0.2-0.2,0.2-0.3,0.3c-0.1,0-0.2-0.1-0.2-0.2        C21.3,10.6,21.2,10.6,21,10.6z M22.6,13.5c-0.1,0-0.5,0.1-0.5-0.1c0,0,0.1,0,0.1,0c0.8,0.2,0.1-0.8,0.7-1        c0.1-0.1,0.1-0.2,0.2-0.2c0.2,0,0.4,0.2,0.5,0.4C22.4,12.7,23.6,13.7,22.6,13.5z M25.3,13.1c-0.1,0.4,0.4,0.8-0.3,0.7        c-0.1,0-0.5,0.1-0.4-0.1c0.3,0,0.4-0.1,0.4-0.4c0-0.1,0-0.3-0.1-0.4c-0.2-0.1-0.4-0.1-0.5-0.2c-0.3-0.1-0.5-0.3-0.7-0.6        c-0.2-0.3-0.6-0.2-0.8-0.5c0,0-0.1-0.1-0.1-0.1c0,0,0,0,0,0c0,0,0,0,0,0c0-0.1,0-0.1,0-0.2c0-0.1,0.1-0.1,0.1-0.2        c0,0-0.1,0-0.1,0c-0.1,0-0.2,0.2-0.2,0.3c-0.2,0.2-0.4-0.3-1-0.2c-0.2,0-1,0-0.7-0.2c0,0,0,0,0.1,0c0.2,0,0.3,0.2,0.5,0.2        c0.5-0.1,0.7-0.2,0.9-0.6c0.2,0.1,0.4,0,0.4-0.1c0.1,0.2,0.4,0.2,0.4,0c0.1,0.2,0.3,0.4,0.4,0.1c0.9,0.5-0.7,0.7,1.6,1.4        c0.3,0.2,0,0.4,0.1,0.6C25.4,12.9,25.7,12.7,25.3,13.1z"/>
					</g>
					<g>
						<path class="st0" d="M22.8,14.8c-0.3-0.2,0.6-0.2,0.3,0C23.1,14.9,23,14.7,22.8,14.8z"/>
						<path class="st0" d="M23.5,15c-0.1,0-0.1-0.2,0-0.2c0,0,0.1,0,0.2,0c0,0,0-0.1,0-0.1c0,0,0,0-0.1-0.1c0,0-0.1,0-0.1,0        c-0.1,0-0.1,0-0.1-0.1c0,0,0-0.1,0.1-0.1c0.1,0,0.2,0,0.2,0c0,0,0.1,0.1,0.1,0.1c0,0.1,0,0.1,0,0.2C23.8,15,23.6,15.1,23.5,15        z"/>
						<path class="st0" d="M23.8,15.8c-0.3,0.1-0.2,0.4-0.3,0.3c-0.1,0-0.3,0.3-0.3,0.1c0-0.1,0.1-0.4,0.4-0.5        c0.3-0.2,0.1-0.4,0.1-0.4S24.1,15.6,23.8,15.8z"/>
						<path class="st0" d="M27.2,16.5C27.1,16.5,27.1,16.5,27.2,16.5c-0.1-1.1-2.4-0.7-1.1,0.6c0.3,0.3,0.5,0.6,0.2,0.8        c-0.2,0.1-0.4,0-0.8-0.2c-0.6-0.2-0.7-0.2-0.7-0.9c0.1-0.1,0.2-0.2,0.3-0.3l0,0c0,0,0,0,0,0c0,0,0,0,0,0l0,0        c0.1-0.4,0-0.7-0.3-0.8c0,0-0.1,0-0.1,0c0,0,0.1,0,0.1,0c0,0,0.1,0,0.1,0c0.1,0,0.1,0,0.2,0.1c0,0,0,0,0-0.1        c0-0.1,0-0.1,0-0.2c-0.1-0.2-0.5-0.4-0.8-0.5c0.2,0,0.4,0.1,0.6,0.1c-0.1-0.6-0.6-0.6-1-0.7c0,0-0.2-0.1-0.2-0.1c0,0,0,0,0,0        c-0.1,0-0.1,0-0.2-0.1c-0.1,0-0.1,0-0.1,0c-0.4-0.1-0.8,0.3-1.2,0.3c0,0,0,0-0.1,0c0,0,0,0-0.1,0c0,0.1,0,0.2,0,0.2        c0,0,0,0,0,0.1c0,0,0,0,0,0.1c0,0.1,0.2,0.2,0.3,0.3c-0.1,0.1-0.2,0.1-0.3,0.1c-0.1,0-0.3-0.2-0.3,0c0,0.2,0.2,0.3,0.4,0.2        c0.1,0,0.1,0,0.2,0c0.1,0,0.1-0.1,0.2-0.1c0,0.1,0.1,0.2,0,0.3c-0.1,0.1-0.2,0.1-0.3,0.1c-0.1,0-0.1,0-0.1,0.1        c-0.1,0.3,0.2,0.3,0.4,0.4c0,0.1,0,0.4,0.1,0.5c-0.2,0-0.3-0.1-0.5-0.1c-0.1,0-0.2,0-0.3-0.1c-0.3-0.2-0.4-0.1-0.5,0.1        c-0.2,0.2-0.1,0.4,0.4,0.5c0.1,0,0.3,0.1,0.3,0.1c0.1,0,0.2,0.1,0.2,0.1c-0.2,0.1-0.4-0.2-0.6-0.2c-0.2,0-0.2,0.1-0.3,0.2        c-0.1,0.2,0.1,0.4,0.3,0.4c0.2,0,0.4,0.1,0.6,0c0.6-0.1,0.6,0.4,1,0.2c0,0.1,0.2,0.3,0.4,0.3c-0.1,0.1-0.1,0.1-0.1,0.2        c-0.1,0.1-0.1,0.1-0.2,0.1c-0.1,0.1-0.1,0.1-0.1,0.2c-0.1,0.2,0,0.4,0,0.6c-0.8-0.2-0.6,0.7,0,0.5c0.4,0,0.9,0.1,0.8-0.5        c-0.1-0.3,0.1-0.4,0.4-0.5c0.2,0,0.4,0.1,0.5,0.2c0.4,0.2,0.7,0,0.7,0.6c-0.6-0.1-0.6,0.6,0,0.5c0.7,0.1,1,0,0.7-0.8        c0.7-0.6,0-0.5-0.1-0.8c0-0.1,0.1-0.3,0-0.4c0.3,0,0.5-0.3,0.4-0.7c-0.1-0.4-0.9-0.8-0.7-1.3c0.2-0.3,1-0.1,1,0.2        c-0.2-0.1-0.3,0.1-0.2,0.2c0,0.2,0.1,0.4,0.1,0.4s0.1-0.1,0.3-0.2C27.3,16.9,27.2,16.6,27.2,16.5z M22.6,16        c-0.1,0-0.2-0.1-0.3-0.1c0.7-0.1,0.4-0.9-0.1-1c0-0.1,0-0.1,0-0.2c0.6-0.1,0.8-0.3,1.1-0.3c0.1,0,0.2,0,0.2,0.1        c0.3,0.1,0.8,0.2,1,0.4c-0.3-0.1-0.6,0-0.7,0.2l0.1,0c0.1,0,0.7,0.2,0.8,0.3c-0.2,0-0.4,0-0.5,0.2c0,0,0.7,0.2,0.6,0.8        c0,0,0,0.1,0,0.1c0,0.1-0.1,0.1-0.1,0.1c-0.1,0-0.1,0-0.1,0c0,0-0.3-0.1-0.3-0.2c-0.3-0.1-0.5-0.2-0.9,0c0,0,0,0,0,0        c-0.1,0-0.2,0.1-0.3,0.1c-0.1,0-0.2,0.1-0.2,0.1c-0.1-0.2-0.1-0.5,0-0.7c0.1-0.2,0.4-0.5,0.4-0.5c-0.1,0-0.1,0-0.1,0.1        c-0.3,0.2-0.3,0.2-0.3,0.3C22.7,15.8,22.7,15.9,22.6,16z M21.8,16.8c-0.4,0-0.5-0.1-0.2-0.3c0.2,0.2,0.2,0.2,0.5,0.2        c0.2,0.1,0.5,0.2,0.7,0.1c-0.1,0.2-0.2,0.2-0.3,0.3c-0.1,0-0.2-0.1-0.2-0.2C22.1,16.8,22,16.8,21.8,16.8z M23.4,19.7        c-0.1,0-0.5,0.1-0.5-0.1c0,0,0.1,0,0.1,0c0.8,0.2,0.1-0.8,0.7-1c0.1-0.1,0.1-0.2,0.2-0.2c0.2,0,0.4,0.2,0.5,0.4        C23.2,18.8,24.4,19.9,23.4,19.7z M26.1,19.3c-0.1,0.4,0.4,0.8-0.3,0.7c-0.1,0-0.5,0.1-0.4-0.1c0.3,0,0.4-0.1,0.4-0.4        c0-0.1,0-0.3-0.1-0.4C25.5,19,25.3,19,25.2,19c-0.3-0.1-0.5-0.3-0.7-0.6c-0.2-0.3-0.6-0.2-0.8-0.5h0c0,0-0.1-0.1-0.1-0.1        c0,0,0,0,0,0l0,0c0-0.1,0-0.1,0-0.2c0-0.1,0.1-0.1,0.1-0.2c0,0-0.1,0-0.1,0c-0.1,0-0.2,0.2-0.2,0.3c-0.2,0.2-0.4-0.3-1-0.2        c-0.2,0-1,0-0.7-0.2c0,0,0,0,0.1,0c0.2,0,0.3,0.2,0.5,0.2c0.5-0.1,0.7-0.2,0.9-0.6c0.2,0.1,0.4,0,0.4-0.1        c0.1,0.2,0.4,0.2,0.4,0c0.1,0.2,0.3,0.4,0.4,0.1c0.9,0.5-0.7,0.7,1.6,1.4c0.3,0.2,0,0.4,0.1,0.6C26.2,19,26.6,18.9,26.1,19.3z        "/>
					</g>
				</g>
				<path class="st0" d="M13.2,10.4c-0.2,0.1-0.3,0.4-0.3,0.6v6l0,0c0.1-0.1,0.2-0.2,0.2-0.4v-5.6c0-0.1,0.1-0.2,0.1-0.3      c0.6-0.5,2.6-2.3,3.2-2.9c0.1-0.1,0.3-0.1,0.4,0c0.6,0.6,2.5,2.4,3,2.9c0.1,0.1,0.1,0.2,0.1,0.3c0,0.9,0,4.6,0,5.6      c0,0.2,0.1,0.3,0.2,0.4l0,0l0-6.1c0-0.1-0.1-0.2-0.1-0.3l-3.2-3c-0.1-0.1-0.3-0.1-0.5,0L13.2,10.4z"/>
				<path class="st0" d="M13.6,16.6"/>
				<g>
					<path class="st0" d="M21.6,21.3c0,2.8-2.3,5.1-5.1,5.1c-2.8,0-5.1-2.3-5.1-5.1c0-1.8,1-3.5,2.5-4.4c0,0,0.1,0,0.1-0.1l0.1,0.1       c0,0,0,0-0.1,0c-1.6,0.9-2.5,2.5-2.5,4.3c0,2,1.3,3.8,3,4.5c0.1,0,0.2,0.1,0.4,0.1c0.2,0.1,0.5,0.1,0.7,0.2c0.1,0,0.2,0,0.3,0       c0.2,0,0.3,0,0.5,0h0c0.1,0,0.1,0,0.2,0c0.2,0,0.4,0,0.6-0.1c0.1,0,0.2,0,0.3-0.1c0.2,0,0.3-0.1,0.5-0.1c0.1,0,0.3-0.1,0.4-0.2       c1.7-0.8,2.9-2.5,2.9-4.5c0-1.8-0.9-3.4-2.5-4.3c0,0-0.1,0-0.1-0.1l0.1-0.1c0,0,0.1,0,0.1,0.1C20.7,17.8,21.6,19.5,21.6,21.3z"/>
				</g>
				<g>
					<path class="st0" d="M16.6,27.1c-3.2,0-5.8-2.6-5.8-5.8c0-2.1,1.1-4,2.8-5l0.1,0.2c-1.7,1-2.8,2.9-2.8,4.8       c0,3.1,2.5,5.6,5.6,5.6c3.1,0,5.6-2.5,5.6-5.6c0-2-1-3.8-2.7-4.8l0.1-0.2c1.8,1,2.8,2.9,2.8,5C22.4,24.5,19.8,27.1,16.6,27.1z"/>
				</g>
				<g>
					<path class="st0" d="M14.7,13.7l-0.2-0.2l0,0V14c0,0.1,0,0.1,0.1,0.2l0.2,0.2l0,0v-0.5C14.8,13.8,14.7,13.7,14.7,13.7z        M14.7,14.2l-0.2-0.1v-0.4l0.2,0.1V14.2z"/>
					<path class="st0" d="M15.1,13.9l-0.2-0.2l0,0v0.5c0,0.1,0,0.1,0.1,0.1l0.2,0.2l0,0v-0.5C15.2,14,15.2,14,15.1,13.9z M15.1,14.5       l-0.2-0.1v-0.4l0.2,0.1V14.5z"/>
					<path class="st0" d="M14.7,14.5l-0.2-0.2l0,0v0.5c0,0.1,0,0.1,0.1,0.1l0.2,0.2l0,0v-0.5C14.8,14.6,14.7,14.6,14.7,14.5z        M14.7,15l-0.2-0.1v-0.4l0.2,0.1V15z"/>
					<path class="st0" d="M15.1,14.8l-0.2-0.2l0,0v0.5c0,0.1,0,0.1,0.1,0.1l0.2,0.2l0,0v-0.5C15.2,14.9,15.2,14.8,15.1,14.8z        M15.1,15.3l-0.2-0.1v-0.4l0.2,0.1V15.3z"/>
					<path class="st0" d="M18.7,13.5l-0.2,0.2c0,0-0.1,0.1-0.1,0.1v0.5l0,0l0.2-0.2c0,0,0.1-0.1,0.1-0.1L18.7,13.5L18.7,13.5z        M18.6,14.1l-0.2,0.1v-0.4l0.2-0.1V14.1z"/>
					<path class="st0" d="M18.3,13.8L18,14c0,0-0.1,0.1-0.1,0.1v0.5l0,0l0.2-0.2c0,0,0.1-0.1,0.1-0.1L18.3,13.8L18.3,13.8z        M18.2,14.3L18,14.5V14l0.2-0.1V14.3z"/>
					<path class="st0" d="M18.7,14.4l-0.2,0.2c0,0-0.1,0.1-0.1,0.1v0.5l0,0l0.2-0.2c0,0,0.1-0.1,0.1-0.1L18.7,14.4L18.7,14.4z        M18.6,14.9L18.5,15v-0.4l0.2-0.1V14.9z"/>
					<path class="st0" d="M18.3,14.6L18,14.8c-0.1,0-0.1,0.1-0.1,0.2v0.5l0,0l0.2-0.2c0.1,0,0.1-0.1,0.1-0.2L18.3,14.6L18.3,14.6z        M18.2,15.2L18,15.3v-0.4l0.2-0.1V15.2z"/>
					<path class="st0" d="M16.3,14l-0.6,0c-0.1,0-0.1,0-0.1,0.1v0.2c0,0.1,0,0.1,0.1,0.1h0.6c0.1,0,0.1,0,0.1-0.1v-0.2       C16.4,14,16.3,14,16.3,14z M15.9,14.3h-0.2v-0.1h0.2V14.3z M16.3,14.3H16v-0.1h0.2V14.3z"/>
					<path class="st0" d="M17.4,14l-0.6,0c-0.1,0-0.1,0-0.1,0.1v0.2c0,0.1,0,0.1,0.1,0.1h0.6c0.1,0,0.1,0,0.1-0.1v-0.2       C17.5,14,17.5,14,17.4,14z M17.1,14.3h-0.2v-0.1h0.2V14.3z M17.4,14.3h-0.2v-0.1h0.2V14.3z"/>
					<path class="st0" d="M19,12.1l0-1.4l0.2-0.1c0,0,0,0,0-0.1c0,0,0-0.1,0-0.1h0l-0.4-0.3c0,0-0.1,0-0.1,0l-0.4,0.3c0,0,0,0,0,0.1       c0,0,0,0.1,0,0.1l0.2,0.1l0,1l-0.5-0.3V9.6c0,0,0-0.1,0-0.1l-1.2-0.9c0,0,0,0-0.1,0l-1.3,0.9c0,0-0.1,0.1-0.1,0.1v1.8l-0.5,0.3       l0-1l0.2-0.1c0,0,0,0,0-0.1c0,0,0-0.1,0-0.1l-0.4-0.3c0,0-0.1,0-0.1,0l-0.4,0.3h0c0,0,0,0,0,0.1c0,0,0,0.1,0,0.1l0.2,0.1l0,1.4       l-0.4,0.2v0.4l0.4,0.2v2.3l1.2,0.8h2.6l1.2-0.8V13l0.4-0.2v-0.4L19,12.1z M17.6,9.7l-0.3,0.2c0,0-0.1,0-0.1,0L16.7,9       c0,0,0,0,0,0l0.8,0.6C17.6,9.6,17.6,9.7,17.6,9.7z M17.8,9.9v2.5c0,0,0,0,0,0l-0.4,0.3c0,0-0.1,0-0.1,0v-2.5c0,0,0,0,0,0       L17.8,9.9C17.7,9.8,17.8,9.8,17.8,9.9z M17,10h-0.8c-0.1,0-0.1-0.1-0.1-0.1L16.6,9c0,0,0,0,0,0l0.4,0.9C17.1,10,17,10,17,10z        M17.2,10.2v2.5c0,0,0,0.1-0.1,0.1H16c0,0-0.1,0-0.1-0.1v-2.5c0,0,0-0.1,0.1-0.1L17.2,10.2C17.1,10.2,17.2,10.2,17.2,10.2z        M16.4,9L16,9.9c0,0-0.1,0.1-0.1,0l-0.3-0.2c0,0,0-0.1,0-0.1L16.4,9C16.4,9,16.4,9,16.4,9z M15.4,9.8l0.4,0.3c0,0,0,0,0,0v2.5       c0,0,0,0.1-0.1,0l-0.4-0.3c0,0,0,0,0,0L15.4,9.8C15.3,9.8,15.4,9.8,15.4,9.8z M14,10.5l0.3-0.2c0,0,0,0,0,0l0.4,0.3       c0,0,0,0,0,0.1l-0.4,0.2c0,0,0,0,0,0L14,10.5C14,10.5,14,10.5,14,10.5z M14.2,10.8l0.2,0.1c0,0,0,0,0.1,0c0,0,0,0,0.1,0l0,0       v1.6l0.1,0.1v-1.7l0,0c0,0.4,0,1.3,0,1.8c0,0.1,0,0.1,0,0.1l-0.5-0.3C14.2,12.1,14.2,11.2,14.2,10.8z M15.3,15.9l-1-0.7v-2.1       l1,0.6V15.9z M16.9,16h-0.6v-1.1c0,0,0-0.1,0.1-0.1h0.4c0.1,0,0.1,0,0.1,0.1V16z M17.7,16H17v-1.2c0-0.1-0.1-0.1-0.1-0.1h-0.6       c-0.1,0-0.1,0.1-0.1,0.1V16h-0.7v-2.2h2.2V16z M15.3,13.1l-0.6-0.3l0-0.8l0.5-0.3v0.8l0.6,0.4h1.4l0.6-0.4v-0.8l0.5,0.3l0,0.8       l-0.6,0.3H15.3z M18.8,15.2l-1,0.7v-2.2l1-0.6V15.2z M18.5,12.7c0,0,0-0.1,0-0.1c0-0.2,0-0.5,0-0.9c0-0.3,0-0.7,0-0.9l0,0v1.7       l0.1-0.1v-1.6l0,0c0,0,0,0,0.1,0c0,0,0,0,0.1,0l0.2-0.1c0,0.4,0,1.3,0,1.6L18.5,12.7z M18.7,10.8l-0.4-0.3c0,0,0,0,0,0l0.4-0.3       c0,0,0,0,0,0l0.4,0.3c0,0,0,0,0,0L18.7,10.8C18.7,10.8,18.7,10.8,18.7,10.8z M18.7,10.3v0.4c0,0,0,0,0,0l-0.3-0.2c0,0,0,0,0,0       L18.7,10.3C18.7,10.3,18.7,10.3,18.7,10.3z M14.4,10.7v-0.4c0,0,0,0,0,0l0.3,0.2c0,0,0,0,0,0L14.4,10.7       C14.4,10.7,14.4,10.7,14.4,10.7z"/>
					<path class="st0" d="M16.9,10.5h-0.3v0.6c0,0.1,0,0.1,0.1,0.1H17v-0.6C17,10.6,17,10.5,16.9,10.5z M16.9,11.1h-0.2v-0.5h0.2       V11.1z"/>
					<path class="st0" d="M16.4,11.6h-0.3v0.6c0,0.1,0,0.1,0.1,0.1h0.3v-0.6C16.5,11.6,16.4,11.6,16.4,11.6z M16.4,12.2h-0.2v-0.5       h0.2V12.2z"/>
					<path class="st0" d="M16.4,10.5h-0.3v0.6c0,0.1,0,0.1,0.1,0.1h0.3v-0.6C16.5,10.6,16.4,10.5,16.4,10.5z M16.4,11.1h-0.2v-0.5       h0.2V11.1z"/>
					<path class="st0" d="M16.9,11.6h-0.2v0.6c0,0.1,0.1,0.2,0.1,0.2H17v-0.6C17,11.6,17,11.6,16.9,11.6z M16.9,12.2h-0.2v-0.5h0.2       V12.2z"/>
					<polygon class="st0" points="14.2,12.3 14.4,12.4 14.4,12 14.2,11.9      "/>
					<polygon class="st0" points="14.2,11.5 14.4,11.6 14.4,11.3 14.2,11.2      "/>
					<polygon class="st0" points="14.4,11.1 14.2,11 14.2,11.1 14.4,11.2      "/>
					<polygon class="st0" points="18.7,12.4 18.9,12.3 18.9,11.9 18.7,12      "/>
					<polygon class="st0" points="18.7,11.6 18.9,11.5 18.9,11.2 18.7,11.3      "/>
					<polygon class="st0" points="18.7,11.2 18.9,11.1 18.9,11 18.7,11.1      "/>
				</g>
				<g>
					<path class="st0" d="M19.6,16.2l-0.4-0.5c-0.1-0.1-0.2-0.1-0.3,0l-1,0.7c0,0,0,0-0.1,0c0,0,0,0,0,0l-2.4,0c0,0-0.1,0-0.1,0       l-1-0.7c-0.1-0.1-0.2-0.1-0.3,0l-0.4,0.5c0,0,0,0.1,0,0.2c0,0.1,0,0.1,0.1,0.1l0,0l0.4,0.4l0.1,0.1l0.1,0.1       c0.1,0.1,0.1,0.1,0.2,0.1h0l1.5,0h0.1l0.2,0h0.1l0.3,0l0.1,0l0.2,0l0.1,0l0.2,0h0.1l1.6,0c0.1,0,0.2,0,0.2-0.1c0,0,0,0,0,0       l0.1-0.1l0.4-0.4l0,0c0,0,0.1-0.1,0.1-0.1C19.6,16.3,19.6,16.2,19.6,16.2z M18.9,16.9c0,0-0.1,0-0.1,0l-4.3,0c0,0,0,0,0,0       c0,0-0.1,0-0.1,0l-0.7-0.6c0,0,0-0.1,0-0.1l0.4-0.5c0,0,0,0,0.1,0c0,0,0,0,0,0l1,0.7c0.1,0,0.1,0.1,0.2,0.1l2.4,0c0,0,0,0,0,0       c0.1,0,0.1,0,0.2,0l1-0.7c0,0,0.1,0,0.1,0l0.4,0.5c0,0,0,0.1,0,0.1L18.9,16.9z"/>
				</g>
				<g>
					<path class="st0" d="M1.7,12.8l0.1-0.4l-0.3-0.1l-0.3,1.2l0.3,0.1l0.1-0.4l1,0.2l0.1-0.3L1.7,12.8z"/>
					<path class="st0" d="M2.6,11.6l-0.1,0.2l-0.1,0.3l-0.1,0.2l0.2,0.1l0-0.1l0.1-0.4l0-0.1L2.6,11.6z M2.2,11.8l0.3,0l0.2,0l0.3,0       l0.1-0.3l-1.4,0l-0.1,0.4l1.1,0.8l0.1-0.3l-0.3-0.2l-0.2-0.1l-0.3-0.2L2,11.8l0,0L2.2,11.8z"/>
					<path class="st0" d="M2.8,10.7l0.8-0.1l0.2-0.3L2.6,9.7L2.5,10l0.6,0.3l0.2,0.1l0,0l-0.2,0l-0.8,0.1l-0.2,0.3l1.2,0.5l0.1-0.3       l-0.6-0.3l-0.2-0.1l0,0L2.8,10.7z"/>
					<path class="st0" d="M3.3,8.9l0.2-0.4L3.3,8.4l-0.6,1L3,9.6l0.2-0.4l0.9,0.5l0.2-0.3L3.3,8.9z"/>
					<path class="st0" d="M4.2,7.1L4,7.4l0.5,0.7l0.2,0.2L4.4,8.2L3.6,7.9L3.4,8.2l1.3,0.4L5,8.2L4.2,7.1z"/>
					<path class="st0" d="M5.7,6.4l0.5,0.4l0.2-0.2l-1-0.9L5.1,6.1l0.4,0.6l0.2,0.2l0,0L5.3,6.8L4.7,6.5L4.4,6.9l1,0.9l0.2-0.2       L5.1,7.1L4.8,6.8l0,0l1,0.4l0.2-0.2L5.4,6.2l0,0L5.7,6.4z"/>
					<path class="st0" d="M7.4,5c0-0.1,0-0.1,0-0.2c0-0.1,0-0.1-0.1-0.2C7.2,4.5,7.2,4.5,7.1,4.4c-0.1,0-0.1,0-0.2,0       c-0.1,0-0.2,0.1-0.2,0.1L6.2,5L7,6l0.3-0.2L7,5.4l0.2-0.2C7.3,5.2,7.3,5.1,7.4,5z M7.1,4.9C7.1,5,7,5,7,5.1L6.8,5.2L6.6,4.9       l0.2-0.1c0.1,0,0.1-0.1,0.2-0.1c0,0,0.1,0,0.1,0.1C7.1,4.9,7.1,4.9,7.1,4.9z"/>
					<path class="st0" d="M8.8,4.2c0-0.1-0.1-0.2-0.1-0.3C8.6,3.8,8.5,3.7,8.4,3.6C8.3,3.6,8.2,3.5,8.1,3.6C8,3.6,7.9,3.6,7.8,3.7       C7.7,3.8,7.6,3.8,7.5,3.9c0,0.1-0.1,0.2-0.1,0.3c0,0.1,0.1,0.2,0.1,0.3c0.1,0.1,0.2,0.2,0.3,0.3C8,4.9,8.1,4.9,8.2,4.9       c0.1,0,0.2-0.1,0.3-0.1c0.1-0.1,0.2-0.2,0.2-0.3C8.8,4.4,8.8,4.3,8.8,4.2z M8.5,4.4c0,0-0.1,0.1-0.1,0.1       c-0.1,0-0.1,0.1-0.2,0.1c-0.1,0-0.1,0-0.2-0.1C8,4.5,8,4.5,7.9,4.4C7.9,4.3,7.8,4.3,7.8,4.2c0-0.1,0-0.1,0-0.2       c0,0,0.1-0.1,0.1-0.1C8,3.9,8,3.9,8.1,3.9c0.1,0,0.1,0,0.2,0.1c0.1,0,0.1,0.1,0.2,0.2c0.1,0.1,0.1,0.1,0.1,0.2       C8.5,4.3,8.5,4.4,8.5,4.4z"/>
					<path class="st0" d="M10,3.4c0-0.1-0.1-0.1-0.2-0.2c-0.1,0-0.2,0-0.3,0L9.3,3.4c-0.1,0-0.1,0-0.1,0c0,0-0.1,0-0.1,0       c0,0,0,0,0-0.1c0,0,0,0,0-0.1c0,0,0.1,0,0.1-0.1c0.1,0,0.1-0.1,0.2-0.1c0.1,0,0.1,0,0.2,0l0-0.3c-0.1,0-0.2,0-0.3,0       c-0.1,0-0.2,0-0.3,0.1C9,2.9,8.9,3,8.8,3.1C8.8,3.2,8.7,3.2,8.7,3.3c0,0.1,0,0.2,0,0.2c0,0.1,0.1,0.1,0.1,0.1       c0.1,0,0.1,0,0.2,0c0.1,0,0.1,0,0.2,0l0.2-0.1c0.1,0,0.1,0,0.1,0c0,0,0,0,0.1,0c0,0,0,0,0,0.1c0,0,0,0,0,0.1c0,0-0.1,0-0.1,0.1       c-0.1,0-0.1,0-0.2,0.1c-0.1,0-0.1,0-0.2,0c-0.1,0-0.1,0-0.2,0l0,0.3c0.1,0,0.1,0,0.2,0c0.1,0,0.1,0,0.2,0       c0.1,0,0.2-0.1,0.2-0.1C9.8,4,9.9,4,9.9,3.9C10,3.8,10,3.7,10,3.7C10.1,3.6,10,3.5,10,3.4z"/>
					<path class="st0" d="M11.2,2.9c0-0.1-0.1-0.1-0.2-0.2c-0.1,0-0.2,0-0.3,0l-0.2,0c-0.1,0-0.1,0-0.1,0c0,0-0.1,0-0.1,0       c0,0,0,0,0-0.1c0,0,0,0,0-0.1c0,0,0.1,0,0.1-0.1c0.1,0,0.1-0.1,0.2,0c0.1,0,0.1,0,0.2,0l0.1-0.3c-0.1,0-0.2-0.1-0.3-0.1       c-0.1,0-0.2,0-0.3,0.1c-0.1,0-0.2,0.1-0.3,0.2C10,2.5,10,2.6,10,2.6c0,0.1,0,0.2,0,0.2C10,2.9,10.1,3,10.1,3c0,0,0.1,0,0.2,0.1       c0.1,0,0.1,0,0.2,0l0.2,0c0.1,0,0.1,0,0.1,0c0,0,0,0,0.1,0.1c0,0,0,0,0,0.1c0,0,0,0,0,0.1c0,0-0.1,0-0.1,0.1       c-0.1,0-0.1,0-0.2,0c-0.1,0-0.1,0-0.2,0c-0.1,0-0.1,0-0.2,0l-0.1,0.3c0.1,0,0.1,0,0.2,0c0.1,0,0.1,0,0.2,0c0.1,0,0.2,0,0.2-0.1       c0.1,0,0.2-0.1,0.2-0.2c0.1-0.1,0.1-0.1,0.1-0.2C11.3,3,11.2,3,11.2,2.9z"/>
					<path class="st0" d="M12,1.7l0,0.8l0,0.3l-0.1-0.2l-0.5-0.7L11,2l0.9,1.1l0.4-0.1l0-1.4L12,1.7z"/>
					<path class="st0" d="M14.1,1.2l-0.5,0.1l-0.1,0.7l0,0.3l0,0L13.4,2l-0.3-0.6l-0.5,0.1l0.3,1.3l0.3-0.1l-0.1-0.6L13,1.7l0,0       l0.5,0.9l0.3-0.1l0.1-1l0,0l0.1,0.4l0.1,0.6l0.3-0.1L14.1,1.2z"/>
					<path class="st0" d="M15.4,1l-0.2,0.8l0,0.3l-0.1-0.2l-0.3-0.8l-0.4,0L15,2.4l0.4,0L15.7,1L15.4,1z"/>
					<path class="st0" d="M16.7,1.5l-0.2,0c-0.1,0-0.1,0-0.1,0c0,0,0,0,0-0.1c0,0,0,0,0-0.1c0,0,0,0,0.1,0c0,0,0.1,0,0.1,0       c0.1,0,0.2,0,0.2,0c0.1,0,0.1,0.1,0.2,0.1l0.2-0.2C17,1.1,16.9,1,16.8,1c-0.1,0-0.2-0.1-0.3-0.1c-0.1,0-0.2,0-0.3,0.1       c-0.1,0-0.1,0.1-0.2,0.2C16,1.2,16,1.3,16,1.4c0,0.1,0,0.1,0.1,0.2c0,0,0.1,0.1,0.1,0.1c0.1,0,0.1,0.1,0.2,0.1l0.2,0.1       c0.1,0,0.1,0,0.1,0c0,0,0,0,0,0.1c0,0,0,0,0,0.1c0,0,0,0-0.1,0c0,0-0.1,0-0.1,0c-0.1,0-0.1,0-0.2,0c-0.1,0-0.1,0-0.2-0.1       c0,0-0.1-0.1-0.1-0.1l-0.2,0.2c0,0,0.1,0.1,0.2,0.1c0.1,0,0.1,0.1,0.2,0.1c0.1,0,0.2,0,0.3,0c0.1,0,0.2,0,0.3-0.1       c0.1,0,0.1-0.1,0.2-0.1c0-0.1,0.1-0.1,0.1-0.2c0-0.1,0-0.2-0.1-0.2C16.9,1.6,16.8,1.5,16.7,1.5z"/>
					<path class="st0" d="M19.1,2.6c0,0-0.1,0-0.1,0c0,0-0.1,0-0.1,0c0,0-0.1,0-0.1,0c0,0-0.1,0-0.1-0.1c0,0,0,0,0-0.1       c0,0,0,0,0-0.1c0,0,0,0,0-0.1c0,0,0,0,0-0.1l-0.2,0c0,0,0,0.1,0,0.1c0,0,0,0,0,0.1c0,0,0,0,0,0c0,0.1,0,0.2,0,0.2       c0,0.1,0.1,0.1,0.1,0.1c0.1,0,0.1,0.1,0.2,0.1c0.1,0,0.1,0,0.2,0c0.1,0,0.1,0,0.1,0L19.1,2.6z M19.2,1.5c0-0.1-0.1-0.2-0.2-0.3       c-0.1-0.1-0.2-0.1-0.3-0.1c-0.1,0-0.2,0-0.4,0c-0.1,0-0.2,0.1-0.3,0.2C18,1.4,18,1.5,18,1.7c0,0.1,0,0.3,0,0.4       c0,0.1,0.1,0.2,0.2,0.3c0.1,0,0.1,0.1,0.2,0.1c0,0,0.1,0,0.1,0c0,0,0.1,0,0.1,0c0.1,0,0.2,0,0.2,0c0.1,0,0.2-0.1,0.3-0.2       c0.1-0.1,0.1-0.2,0.1-0.4C19.2,1.7,19.2,1.6,19.2,1.5z M18.9,1.8c0,0.1,0,0.2-0.1,0.2c0,0.1-0.1,0.1-0.1,0.1c0,0-0.1,0-0.2,0       c-0.1,0-0.1,0-0.2-0.1c0,0-0.1-0.1-0.1-0.1c0-0.1,0-0.1,0-0.2c0-0.1,0-0.2,0.1-0.2c0-0.1,0.1-0.1,0.1-0.1c0,0,0.1,0,0.2,0       c0.1,0,0.1,0,0.2,0.1c0,0,0.1,0.1,0.1,0.1C18.9,1.6,18.9,1.7,18.9,1.8z"/>
					<path class="st0" d="M20.5,1.4l-0.4,0.7l-0.1,0.2l0-0.3l-0.1-0.8l-0.3-0.1l0.2,1.4l0.4,0.1l0.7-1.2L20.5,1.4z"/>
					<path class="st0" d="M21.4,2.5l-0.3-0.1l-0.2-0.1l-0.1,0.2l0.1,0l0.4,0.1l0.1,0l0.1-0.2L21.4,2.5z M21.4,2.5l0,0.2l0,0.3       l0.3,0.1l0-1.4l-0.4-0.1l-0.8,1.1l0.3,0.1l0.2-0.3l0.1-0.2l0.2-0.3L21.4,2l0,0l0,0.2L21.4,2.5z"/>
					<path class="st0" d="M23.2,2.4L22.9,3l-0.1,0.2l0,0l0-0.2l-0.1-0.8l-0.3-0.2l-0.5,1.2l0.3,0.1l0.3-0.6l0.1-0.2l0,0l0,0.2       l0.1,0.8l0.3,0.2l0.5-1.2L23.2,2.4z"/>
					<path class="st0" d="M23.7,2.7l-0.1,0.2L24,3.1L23.5,4l0.3,0.2l0.5-0.9l0.4,0.2l0.1-0.2L23.7,2.7z"/>
					<path class="st0" d="M25.8,3.9l-0.7,0.5l-0.2,0.2L25,4.4l0.3-0.8L25,3.4l-0.4,1.3l0.3,0.2l1.1-0.8L25.8,3.9z"/>
					<path class="st0" d="M27.1,5l-0.6,0.4l-0.2,0.2l0,0l0.1-0.3l0.3-0.6l-0.4-0.3l-0.9,1l0.2,0.2l0.4-0.5l0.3-0.3l0,0l-0.4,1       l0.2,0.2L27,5.4l0,0l-0.3,0.3l-0.4,0.5l0.2,0.2l0.9-1L27.1,5z"/>
					<path class="st0" d="M28.7,6.8c0-0.1-0.1-0.2-0.2-0.3c-0.1-0.1-0.2-0.2-0.2-0.2c-0.1,0-0.2-0.1-0.2-0.1c-0.1,0-0.1,0-0.2,0.1       c-0.1,0-0.1,0.1-0.1,0.2c0,0.1,0,0.1,0,0.2c0,0.1,0,0.1,0.1,0.2l0.1,0.2c0,0.1,0,0.1,0,0.1c0,0,0,0.1,0,0.1c0,0,0,0-0.1,0       c0,0,0,0-0.1,0c0,0-0.1,0-0.1-0.1c0,0-0.1-0.1-0.1-0.2c0-0.1,0-0.1,0-0.2c0-0.1,0-0.1,0-0.2l-0.3,0c0,0.1,0,0.1,0,0.2       c0,0.1,0,0.1,0.1,0.2c0,0.1,0.1,0.1,0.1,0.2c0.1,0.1,0.1,0.1,0.2,0.2c0.1,0,0.2,0.1,0.2,0.1c0.1,0,0.2,0,0.2-0.1       c0.1-0.1,0.1-0.1,0.1-0.2c0-0.1,0-0.2-0.1-0.3l-0.1-0.2c0-0.1,0-0.1,0-0.1c0,0,0-0.1,0-0.1c0,0,0,0,0.1,0c0,0,0,0,0.1,0       c0,0,0.1,0,0.1,0.1c0.1,0.1,0.1,0.1,0.1,0.2c0,0.1,0,0.1,0,0.2l0.3,0C28.8,7,28.7,6.9,28.7,6.8z"/>
					<path class="st0" d="M29.6,7.9c0-0.1-0.1-0.2-0.1-0.2c-0.1-0.1-0.2-0.2-0.3-0.2c-0.1,0-0.2-0.1-0.3,0c-0.1,0-0.2,0.1-0.3,0.1       c-0.1,0.1-0.2,0.2-0.3,0.3c-0.1,0.1-0.1,0.2-0.1,0.3c0,0.1,0.1,0.2,0.1,0.3c0.1,0.1,0.1,0.1,0.2,0.2c0.1,0,0.1,0.1,0.2,0.1       c0.1,0,0.2,0,0.3,0l-0.1-0.3c-0.1,0-0.1,0-0.2,0c-0.1,0-0.1-0.1-0.1-0.1c0-0.1-0.1-0.1-0.1-0.2c0-0.1,0-0.1,0.1-0.2       c0-0.1,0.1-0.1,0.2-0.2c0.1-0.1,0.1-0.1,0.2-0.1c0.1,0,0.1,0,0.2,0c0.1,0,0.1,0.1,0.1,0.1c0,0.1,0.1,0.1,0.1,0.2       c0,0.1,0,0.1-0.1,0.2l0.3,0.2c0.1-0.1,0.1-0.1,0.1-0.2C29.6,8.1,29.6,8,29.6,7.9z"/>
					<path class="st0" d="M29.9,8.4l-1.1,0.7L29,9.4l1.1-0.7L29.9,8.4z"/>
					<path class="st0" d="M30.8,10l-0.7,0.1l-0.3,0.1l0,0L30,10l0.5-0.5l-0.2-0.4l-1.2,0.6l0.1,0.3l0.5-0.3l0.4-0.2l0,0l-0.8,0.7       l0.1,0.2l1-0.1l0,0l-0.4,0.2l-0.5,0.3l0.1,0.3l1.2-0.6L30.8,10z"/>
					<path class="st0" d="M31.4,11.7l-0.8,0l-0.3,0l0.2-0.2l0.7-0.5l-0.1-0.3L30,11.6l0.1,0.4l1.4,0L31.4,11.7z"/>
					<path class="st0" d="M31.8,12.8c0-0.1-0.1-0.2-0.1-0.3c-0.1-0.1-0.1-0.1-0.2-0.2c-0.1,0-0.1,0-0.2,0c-0.1,0-0.1,0-0.2,0.1       c0,0-0.1,0.1-0.1,0.2c0,0.1,0,0.1,0,0.2l0,0.2c0,0.1,0,0.1,0,0.1c0,0,0,0-0.1,0c0,0,0,0-0.1,0c0,0,0,0-0.1-0.1c0,0,0-0.1,0-0.1       c0-0.1,0-0.1,0-0.2c0-0.1,0-0.1,0-0.2c0-0.1,0-0.1,0.1-0.1l-0.3-0.1c0,0.1-0.1,0.1-0.1,0.2c0,0.1,0,0.1,0,0.2       c0,0.1,0,0.2,0,0.2c0,0.1,0.1,0.2,0.1,0.3c0.1,0.1,0.1,0.1,0.2,0.2c0.1,0,0.2,0,0.2,0c0.1,0,0.2-0.1,0.2-0.1       c0-0.1,0.1-0.2,0.1-0.3l0-0.2c0-0.1,0-0.1,0-0.1c0,0,0,0,0.1-0.1c0,0,0,0,0.1,0c0,0,0,0,0.1,0.1c0,0,0,0.1,0,0.1       c0,0.1,0,0.2,0,0.2c0,0.1,0,0.1-0.1,0.2l0.3,0.1c0.1-0.1,0.1-0.2,0.1-0.3C31.8,13,31.8,12.9,31.8,12.8z"/>
				</g>
				<g>
					<path class="st0" d="M6.3,27.1l-0.5,0.5c-0.1,0.1-0.1,0.1-0.2,0.1c-0.1,0-0.1,0-0.2-0.1c-0.1-0.1-0.1-0.1-0.1-0.2       c0-0.1,0-0.1,0.1-0.2l0.5-0.5l-0.2-0.2L5.2,27C5.1,27.1,5,27.3,5,27.4c0,0.1,0.1,0.3,0.2,0.4C5.3,27.9,5.4,28,5.6,28       c0.1,0,0.3-0.1,0.4-0.2l0.5-0.5L6.3,27.1z"/>
					<path class="st0" d="M7.3,28.1l-0.4,0.5l-0.1,0.2l0,0l0-0.2L7,27.7l-0.3-0.2l-0.8,0.9l0.2,0.2l0.4-0.5L6.7,28l0,0l0,0.2L6.5,29       l0.3,0.2l0.8-0.9L7.3,28.1z"/>
					<path class="st0" d="M7.8,28.4l-0.7,1l0.3,0.2l0.7-1L7.8,28.4z"/>
					<path class="st0" d="M9,29.3l-0.6,0.5l-0.2,0.2l0.1-0.2l0.2-0.8l-0.3-0.2L7.9,30l0.3,0.2l1-0.8L9,29.3z"/>
					<path class="st0" d="M10.2,30.2l0.1-0.2l-0.9-0.5l-0.6,1.1l0.9,0.5l0.1-0.2l-0.6-0.3l0.1-0.2l0.5,0.2l0.1-0.2l-0.5-0.2l0.1-0.2       L10.2,30.2z"/>
					<path class="st0" d="M11,31.1l0-0.1l-0.3,0l0,0.1l0.1,0.5l0.3,0.1L11,31.1z M11.4,30.6c0-0.1-0.1-0.2-0.3-0.2l-0.5-0.2L10,31.2       l0.3,0.1l0.2-0.4l0.2,0.1l0,0l0,0c0.1,0,0.1,0.1,0.2,0.1c0.1,0,0.1,0,0.1,0c0.1,0,0.2-0.1,0.2-0.2       C11.4,30.7,11.4,30.6,11.4,30.6z M11.1,30.7C11,30.8,11,30.8,11.1,30.7c-0.1,0.1-0.2,0.1-0.2,0.1l-0.2-0.1l0.1-0.3l0.2,0.1       c0.1,0,0.1,0.1,0.1,0.1C11.1,30.7,11.1,30.7,11.1,30.7z"/>
					<path class="st0" d="M12.2,31.3L12,31.2c0,0-0.1-0.1-0.1-0.1c0,0,0-0.1,0-0.1c0,0,0,0,0-0.1c0,0,0,0,0.1,0c0,0,0.1,0,0.1,0       c0.1,0,0.1,0.1,0.2,0.1c0.1,0,0.1,0.1,0.1,0.2l0.2-0.2c0-0.1-0.1-0.2-0.2-0.2c-0.1-0.1-0.2-0.1-0.3-0.1c-0.1,0-0.2,0-0.3,0       c-0.1,0-0.2,0-0.2,0.1c-0.1,0-0.1,0.1-0.1,0.2c0,0.1,0,0.1,0,0.2c0,0.1,0,0.1,0.1,0.1c0,0,0.1,0.1,0.2,0.1l0.2,0.1       c0,0,0.1,0.1,0.1,0.1c0,0,0,0,0,0.1c0,0,0,0,0,0.1c0,0,0,0-0.1,0c0,0-0.1,0-0.1,0c-0.1,0-0.1,0-0.2-0.1c0,0-0.1-0.1-0.1-0.1       c0,0-0.1-0.1-0.1-0.1l-0.2,0.2c0,0.1,0.1,0.1,0.1,0.2c0,0.1,0.1,0.1,0.2,0.1c0.1,0,0.1,0.1,0.2,0.1c0.1,0,0.2,0,0.3,0       c0.1,0,0.2,0,0.2-0.1c0.1,0,0.1-0.1,0.1-0.2c0-0.1,0-0.2,0-0.2C12.4,31.4,12.3,31.3,12.2,31.3z"/>
					<path class="st0" d="M13,31l-0.3,1.2l0.3,0.1l0.3-1.2L13,31z"/>
					<path class="st0" d="M14.5,31.4c-0.1-0.1-0.2-0.2-0.4-0.2l-0.5-0.1l-0.2,1.2l0.5,0.1c0.2,0,0.3,0,0.5-0.1       c0.1-0.1,0.2-0.2,0.2-0.4C14.6,31.7,14.6,31.6,14.5,31.4z M14.3,31.9c0,0.1-0.1,0.2-0.1,0.3c-0.1,0.1-0.1,0.1-0.2,0.1l-0.2,0       l0.1-0.7l0.2,0c0.1,0,0.2,0.1,0.2,0.1C14.3,31.6,14.3,31.7,14.3,31.9z"/>
					<path class="st0" d="M15.5,32.1l-0.3,0l-0.2,0l0,0.2l0.1,0l0.4,0l0.1,0l0-0.2L15.5,32.1z M15.6,31.4l-0.4,0l-0.5,1.2l0.3,0       l0.1-0.3l0.1-0.2l0.1-0.3l0.1-0.2h0l0,0.2l0.1,0.3l0,0.2l0.1,0.3l0.3,0L15.6,31.4z"/>
					<path class="st0" d="M17.2,31.6c-0.1-0.1-0.3-0.2-0.5-0.2l-0.5,0l0,1.2l0.5,0c0.2,0,0.3-0.1,0.4-0.2c0.1-0.1,0.2-0.3,0.2-0.5       C17.4,31.8,17.3,31.7,17.2,31.6z M17,32.3c0,0.1-0.1,0.1-0.2,0.1l-0.2,0l0-0.8l0.2,0c0.1,0,0.2,0,0.2,0.1       c0,0.1,0.1,0.2,0.1,0.3C17,32.2,17,32.3,17,32.3z"/>
					<path class="st0" d="M19.4,31.8c0-0.2-0.1-0.3-0.2-0.4c-0.1-0.1-0.3-0.1-0.5-0.1l-0.5,0.1l0.2,1.2l0.5-0.1       c0.2,0,0.3-0.1,0.4-0.2C19.4,32.2,19.4,32,19.4,31.8z M19.1,32.2c0,0.1-0.1,0.1-0.2,0.1l-0.2,0l-0.1-0.7l0.2,0       c0.1,0,0.2,0,0.2,0.1c0.1,0.1,0.1,0.1,0.1,0.3C19.1,32,19.1,32.1,19.1,32.2z"/>
					<path class="st0" d="M20.8,31.9L20.1,32l-0.1-0.2l0.5-0.1l-0.1-0.2L20,31.6L20,31.3l0.6-0.1l-0.1-0.2l-0.9,0.2l0.3,1.2l1-0.2       L20.8,31.9z"/>
					<path class="st0" d="M21.9,31.1l0.6,0.5l0.3-0.1l-0.4-1.2l-0.3,0.1l0.2,0.6l0.1,0.2h0L22.3,31l-0.6-0.5l-0.3,0.1l0.4,1.2       l0.3-0.1L21.9,31.1l-0.2-0.1l0,0L21.9,31.1z"/>
					<path class="st0" d="M23.8,30.4l-0.2,0.1l-0.3,0.1l-0.2,0.1l0.1,0.2l0.1-0.1l0.4-0.2l0.1-0.1L23.8,30.4z M23.3,29.8L23,30       l0.2,1.3l0.3-0.1l0-0.3l0-0.2l0-0.3l0-0.2l0,0l0.1,0.2l0.2,0.2l0.2,0.2l0.2,0.2l0.3-0.1L23.3,29.8z"/>
					<path class="st0" d="M24.9,29.8l-0.1-0.1l-0.2,0.2l0.1,0.1l0.5,0.3l0.3-0.2L24.9,29.8z M25,29.3c-0.1-0.1-0.1-0.2-0.3-0.2       c-0.1,0-0.2,0-0.4,0.1l-0.5,0.3l0.6,1.1l0.3-0.2l-0.2-0.4l0.2-0.1l0,0l0,0c0.1,0,0.1-0.1,0.2-0.1c0,0,0.1-0.1,0.1-0.1       C25,29.5,25,29.4,25,29.3z M24.4,29.9l-0.2-0.3l0.2-0.1c0.1,0,0.1,0,0.1,0c0,0,0.1,0,0.1,0.1c0,0,0,0.1,0,0.1       c0,0,0,0.1-0.1,0.1L24.4,29.9z"/>
					<path class="st0" d="M25.2,28.7L25,28.8l0.7,1l0.3-0.2L25.2,28.7z"/>
					<path class="st0" d="M26.2,28.7l0.7,0.3l0.3-0.2l-0.8-1l-0.2,0.2l0.4,0.5l0.2,0.2l0,0l-0.2-0.1l-0.7-0.3l-0.3,0.2l0.8,1       l0.2-0.2L26.2,28.7L26,28.6l0,0L26.2,28.7z M26,27.7c0,0,0-0.1-0.1-0.2l-0.1,0.1c0,0,0,0.1,0,0.1c0,0,0,0,0,0.1c0,0,0,0,0,0       c0,0,0,0-0.1,0c0,0,0,0-0.1,0c0,0-0.1,0-0.1,0c-0.1,0-0.1,0.1-0.1,0.2c0,0.1,0,0.1,0.1,0.2l0.1-0.1c0,0,0-0.1,0-0.1       c0,0,0,0,0-0.1c0,0,0,0,0.1,0c0,0,0,0,0.1,0c0,0,0,0,0.1,0c0,0,0.1,0,0.1,0c0,0,0.1-0.1,0.1-0.1C26.1,27.8,26.1,27.8,26,27.7z"/>
					<path class="st0" d="M28.1,27.5c0-0.1-0.1-0.2-0.2-0.3c-0.1-0.1-0.2-0.2-0.3-0.2c-0.1,0-0.2,0-0.3,0c-0.1,0-0.2,0.1-0.3,0.2       c-0.1,0.1-0.1,0.2-0.2,0.3c0,0.1,0,0.2,0,0.3c0,0.1,0.1,0.2,0.2,0.3c0.1,0.1,0.2,0.2,0.3,0.2c0.1,0,0.2,0,0.3,0       c0.1,0,0.2-0.1,0.3-0.2c0.1-0.1,0.1-0.2,0.2-0.3C28.1,27.7,28.1,27.6,28.1,27.5z M27.8,27.7c0,0,0,0.1-0.1,0.1       c0,0-0.1,0.1-0.1,0.1c0,0-0.1,0-0.2,0c-0.1,0-0.1-0.1-0.2-0.1c-0.1-0.1-0.1-0.1-0.1-0.2s0-0.1,0-0.2c0,0,0-0.1,0.1-0.1       c0,0,0.1-0.1,0.1-0.1c0,0,0.1,0,0.2,0c0.1,0,0.1,0.1,0.2,0.1c0.1,0.1,0.1,0.1,0.1,0.2C27.8,27.6,27.8,27.7,27.8,27.7z"/>
				</g>
				<g>
					<g>
						<g>
							<path class="st0" d="M17.2,17.3c0,0.1,0,0.2,0,0.3c0,0.2,0.1,0.4,0.1,0.6c0,0.2,0.1,0.4,0.1,0.6c0,0.2,0,0.4-0.1,0.6         c0,0.1,0,0.2,0,0.3c0,0.1,0.1,0.2,0.1,0.3c0.1,0.2,0.1,0.4,0.1,0.6c0,0.2,0,0.4,0,0.6c0,0.2,0,0.4,0.1,0.6         c0.1,0.4,0.2,0.8,0.3,1.2C18,23.2,18,23.6,18,24c0,0.6,0.1,1.3,0.1,1.9c0.1,0,0.4-0.1,0.4-0.1c-0.2-0.5-0.3-1.2-0.3-1.9         c0-0.4-0.1-0.7-0.2-1.1c-0.1-0.4-0.2-0.8-0.4-1.2c-0.1-0.2-0.1-0.4-0.1-0.6c0-0.2,0-0.4,0-0.6c0-0.2,0-0.4-0.1-0.6         c-0.1-0.2-0.1-0.4-0.1-0.6c0-0.2,0.1-0.4,0.1-0.6c0-0.2-0.1-0.4-0.1-0.6c0-0.2-0.1-0.4-0.1-0.6         C17.3,17.4,17.2,17.3,17.2,17.3l0.1-0.2l0,0h-0.1l0,0.1L17.2,17.3z"/>
						</g>
						<g>
							<path class="st0" d="M17.1,18.8c0,0.2,0,0.4-0.1,0.6c0,0.1,0,0.2,0,0.3c0,0.1,0.1,0.2,0.1,0.3c0,0.1,0.1,0.2,0.1,0.3         c0,0.1,0,0.2,0,0.3c0,0.2-0.1,0.4,0,0.6c0,0.2,0.1,0.4,0.1,0.6c0.2,0.8,0.2,1.6,0.2,2.4c0,0.6,0,1.3,0,2c0.1,0,0.2,0,0.3-0.1         c0-0.6,0-1.3,0-1.9c0-0.8-0.1-1.6-0.3-2.4c0-0.2-0.1-0.4-0.1-0.6c0-0.2,0-0.4,0-0.6c0-0.1,0-0.2,0-0.3c0-0.1-0.1-0.2-0.1-0.3         c0-0.1-0.1-0.2-0.1-0.3c0-0.1,0-0.2,0-0.3c0-0.2,0.1-0.4,0.1-0.6c0-0.2,0-0.4-0.1-0.6L16.9,17l-0.1,0l0.2,1.2         C17,18.4,17.1,18.6,17.1,18.8z"/>
						</g>
						<g>
							<path class="st0" d="M16.6,18.2c0,0,0,0.1,0,0.2c0,0.1,0,0.1,0,0.2c0,0.1,0,0.2,0.1,0.3c0,0.1,0,0.2,0,0.3         c0,0.1-0.1,0.2-0.1,0.3c0,0.2,0,0.4,0.1,0.6c0,0.2,0.1,0.4,0.1,0.6c0,0.2,0,0.4-0.1,0.6c0,0.2-0.1,0.4,0,0.6         c0,0.2,0.1,0.4,0.1,0.6c0,0.2,0.1,0.4,0.1,0.6c0,0.4,0,0.8,0,1.2c-0.1,0.7-0.2,1.3-0.2,2c0,0,0,0,0.1,0c0.1,0,0.1,0,0.2,0         c0-0.7,0.1-1.3,0.2-2c0-0.4,0-0.8,0-1.2c0-0.2,0-0.4-0.1-0.6c0-0.2-0.1-0.4-0.1-0.6c0-0.2,0-0.4,0-0.6c0-0.2,0.1-0.4,0-0.6         c0-0.2,0-0.4-0.1-0.6c-0.1-0.2-0.1-0.4-0.1-0.6c0-0.1,0-0.2,0.1-0.3c0-0.1,0-0.2,0-0.3c0-0.1,0-0.2-0.1-0.3c0,0,0-0.1,0-0.1         C16.6,18.3,16.7,18.3,16.6,18.2c0.1-0.2,0.1-0.4,0.1-0.6c0-0.2-0.1-0.4-0.1-0.6l-0.1,0C16.6,17.4,16.7,17.8,16.6,18.2z"/>
						</g>
						<g>
							<path class="st0" d="M16,24.2c-0.1,0.6-0.2,1.3-0.2,2c0.1,0,0.2,0,0.3,0c0-0.6,0.1-1.3,0.2-2c0.1-0.4,0.1-0.8,0.1-1.2         c0-0.1,0-0.2,0-0.3c0-0.1,0-0.2,0-0.3c0-0.2-0.1-0.4-0.1-0.6c0-0.2,0-0.4,0.1-0.6c0.1-0.2,0.1-0.4,0.1-0.6         c0.1-0.5-0.3-0.8-0.2-1.2c0-0.2,0.1-0.4,0.2-0.6c0-0.1,0-0.2,0-0.3c0-0.1,0-0.2,0-0.3c-0.1-0.4-0.2-0.8-0.1-1.2l0,0         c-0.1,0.4,0,0.8,0.1,1.2c0,0.2,0,0.4,0,0.6c-0.1,0.2-0.2,0.4-0.2,0.6c0,0.2,0.1,0.4,0.1,0.6c0.1,0.2,0.1,0.4,0.1,0.6         c0,0.2-0.1,0.4-0.2,0.6C16,21.4,16,21.6,16,21.8c0,0.2,0.1,0.4,0.1,0.6c0,0.1,0,0.2,0,0.3c0,0.1,0,0.2,0,0.3         C16.1,23.4,16.1,23.8,16,24.2z"/>
						</g>
						<g>
							<path class="st0" d="M16,17.3c0,0.1,0,0.2,0,0.3c0,0.1,0,0.2,0,0.3c0,0.1,0,0.2-0.1,0.3c0,0.1-0.1,0.2,0,0.3         c0,0.1,0,0.2,0,0.3c0,0.1,0,0.2,0,0.3c0,0.1-0.1,0.2-0.1,0.3c-0.1,0.3,0.1,0.7,0.1,1.1c0,0.4-0.2,0.8-0.2,1.1         c0,0.4,0,0.8,0.1,1.1c0,0.4,0.1,0.8,0,1.2c-0.1,0.4-0.3,0.8-0.4,1.1c-0.1,0.2-0.1,0.3-0.2,0.5c0,0.1,0,0.2,0,0.3l0,0.1l0,0         c-0.1,0-0.2-0.1-0.4-0.1c0,0,0,0,0,0c0,0,0,0,0,0c0-0.1,0-0.2,0.1-0.3c0.1-0.2,0.1-0.4,0.2-0.6c0.2-0.4,0.4-0.7,0.5-1         c0.1-0.4,0.1-0.7,0-1.1c0-0.4-0.1-0.8,0-1.2c0-0.4,0.2-0.8,0.3-1.1c0-0.2,0-0.4,0-0.6c0-0.2-0.1-0.4,0-0.6         c0-0.1,0.1-0.2,0.1-0.3c0-0.1,0-0.2,0-0.3c0-0.1,0-0.2,0-0.3c0-0.1,0-0.2,0.1-0.3c0.1-0.2,0.1-0.4,0-0.6         C15.9,17.5,15.9,17.4,16,17.3c0-0.1,0-0.1,0-0.2h0c0,0,0,0,0-0.1l0.1,0c0,0,0,0.1,0,0.1C16,17.2,16,17.2,16,17.3z"/>
						</g>
					</g>
					<g>
						<path class="st0" d="M14.7,23.3C14.7,23.3,14.7,23.3,14.7,23.3C14.7,23.2,14.7,23.2,14.7,23.3c0-0.1,0.1-0.1,0-0.1        c-0.1,0-0.1,0,0,0c0,0,0,0,0,0c0,0-0.1,0-0.1,0c0,0,0.1,0,0,0c0,0,0,0,0,0c0,0,0-0.1,0-0.1c-0.1,0,0,0,0,0c0,0,0,0,0-0.1        c0-0.1,0,0,0,0c0,0,0.1-0.1,0,0c0,0,0,0,0,0c0,0,0,0,0,0c0,0,0,0,0-0.1c-0.1,0,0,0,0,0c0,0,0,0,0,0c0,0,0-0.1,0-0.1        c0,0.1,0,0,0,0c0,0,0,0-0.1,0c0,0,0,0,0,0c0,0,0,0,0,0c0,0,0,0,0,0c0,0,0-0.1,0-0.1c0,0,0,0,0,0c0,0,0,0-0.1,0        c-0.1,0.1,0-0.1-0.1,0c0,0,0.1-0.2,0-0.1c0,0-0.1-0.1-0.1,0c0,0,0,0,0,0l-0.1-0.1c0,0,0,0-0.1,0c0,0,0,0,0,0        c0-0.1,0-0.1-0.1-0.1c0,0,0,0,0,0.1c0,0,0,0,0-0.1c0,0,0,0-0.1,0c0-0.1,0,0-0.1,0c0,0,0-0.1,0,0c0,0,0-0.1,0,0        c0,0-0.1,0.1-0.1,0c0,0,0,0,0,0c0,0,0,0,0,0c0-0.1-0.1,0-0.1,0c0,0,0,0-0.1,0c0,0,0,0,0,0c0-0.1-0.1,0-0.1,0c0,0,0,0,0,0        c0,0,0,0,0,0c0,0,0,0.1,0,0c0,0,0,0,0,0c0,0,0,0,0,0c-0.1-0.1,0,0,0,0.1c0,0,0,0,0,0c0,0,0-0.1,0,0c0,0.1-0.1-0.1-0.1,0l0,0        c0,0,0,0-0.1,0c0,0,0,0,0,0c0,0,0,0,0,0c0,0.1,0,0,0,0.1c0,0,0,0.1,0,0c0,0,0,0,0,0c0,0,0,0,0,0c0,0,0,0,0,0c0,0,0,0.1,0,0.1        c-0.1-0.1,0,0,0,0c0,0,0,0,0,0c0,0.1,0-0.1-0.1,0c0,0.1,0,0,0,0c0,0,0.1,0.1,0,0.1c0,0,0,0,0,0c-0.1,0,0,0,0,0.1c0,0,0,0,0,0        c0,0,0,0,0,0c0,0,0,0,0,0c0,0,0,0,0,0c0,0,0,0,0,0c0,0,0,0.1,0,0c0.1,0.1,0,0,0,0.1c-0.1,0,0,0,0,0c0,0.1-0.1,0-0.1,0        c0,0.1,0.1,0.1,0,0.1c0,0,0,0,0,0c0.1,0.1-0.1,0,0,0.1c0.1,0,0,0,0,0.1c0,0.1,0.2-0.1,0.1,0c-0.1,0-0.1,0,0,0c0,0,0,0.1,0,0.1        c0,0.1,0,0,0,0c0,0,0,0,0,0c0,0,0,0.1,0,0.1c0,0-0.1,0-0.1,0c0,0,0.1,0,0,0.1c0,0.1,0.1,0,0.2,0.1c0,0,0.1,0,0.1,0        c0,0,0,0,0,0c0,0,0.1,0,0.1-0.1c0,0,0,0,0,0c0,0,0.6,0.1,0.6,0.1c0,0,0.1,0.2,0.1,0.2l0,0.1l0,0.1c0,0,0,0.1-0.1,0.1        c-0.1,0,0.3,0,0.4,0c0,0-0.1,0-0.1,0c0,0,0-0.2,0-0.2l0-0.1V24c0,0,0-0.1,0-0.1c0,0,0,0,0,0c0,0,0,0,0,0c0,0,0.1-0.1,0.2-0.1        c0.1,0,0.2-0.1,0.2-0.2l0.2,0c0,0,0,0,0,0c0,0.1,0,0,0.1,0c0,0,0.1,0,0.1,0c0,0,0,0,0-0.1c0,0,0,0,0,0c0,0,0,0,0.1,0        c0.1,0,0,0,0-0.1c0,0,0.1,0,0.1,0c0,0,0,0,0.1,0c0,0,0.1,0,0.1,0C14.6,23.4,14.6,23.4,14.7,23.3        C14.6,23.4,14.8,23.4,14.7,23.3C14.8,23.3,14.7,23.3,14.7,23.3z M12.9,23.7C12.9,23.7,12.9,23.7,12.9,23.7        C12.9,23.7,12.9,23.7,12.9,23.7C12.9,23.7,12.9,23.7,12.9,23.7z M13.4,23.7c0,0-0.1,0.1-0.2,0c0,0-0.1,0-0.1-0.1c0,0,0,0,0,0        C13.3,23.7,13.3,23.7,13.4,23.7C13.4,23.7,13.4,23.7,13.4,23.7z M13.7,23.7c0,0-0.1,0-0.1,0.1c0,0,0,0,0,0        c0-0.1,0-0.1,0.1-0.2c0,0,0.1,0,0.1-0.1c0,0,0.1,0,0.2,0C13.9,23.6,13.8,23.7,13.7,23.7z M14.3,23.5        C14.3,23.5,14.3,23.5,14.3,23.5C14.3,23.5,14.3,23.5,14.3,23.5C14.3,23.5,14.3,23.5,14.3,23.5z"/>
						<path class="st0" d="M13.8,24.3C13.8,24.3,13.8,24.3,13.8,24.3C13.8,24.3,13.8,24.3,13.8,24.3z"/>
					</g>
					<g>
						<path class="st0" d="M20.8,23.1C20.8,23,20.8,23,20.8,23.1C20.9,23,20.8,23,20.8,23.1c0-0.1,0.1-0.1,0.1-0.1c-0.1,0-0.1,0,0,0        c0,0,0,0,0,0c0,0-0.1,0-0.1,0c0,0,0.1,0,0,0c0,0,0,0,0,0c0,0,0.1-0.1,0-0.1c-0.1,0,0,0,0,0c0,0,0-0.1,0-0.1c0-0.1,0,0,0,0        c0,0,0.1-0.1,0,0c0,0,0,0,0,0c0,0,0,0,0,0c0,0,0,0,0-0.1c-0.1,0,0,0,0,0c0,0,0,0,0,0c0,0,0-0.1,0-0.1c0,0.1,0,0-0.1,0        c0,0,0,0-0.1,0c0,0,0,0,0,0c0,0,0,0,0,0c0,0,0,0,0,0c0,0,0-0.1,0-0.1c0,0,0,0,0,0c0,0,0,0-0.1,0c-0.1,0.1,0-0.1-0.1,0        c0,0,0.1-0.2,0-0.1c0,0-0.1-0.1-0.1,0c0,0,0,0,0,0L20,21.9c0,0,0,0-0.1,0c0,0,0,0,0,0c0-0.1,0-0.1-0.1-0.1c0,0,0,0,0,0.1        c0,0,0-0.1,0-0.1c0,0,0,0-0.1,0c0-0.1,0,0-0.1,0c0,0,0-0.1,0,0c0,0,0-0.1,0,0c0,0-0.1,0.1-0.1,0c0,0,0,0,0,0c0,0,0,0,0,0        c0-0.1-0.1,0-0.1,0c0,0,0,0-0.1,0c0,0,0,0,0,0c0-0.1-0.1,0-0.1,0c0,0,0,0,0,0c0,0,0,0,0,0c0,0,0,0.1,0,0c0,0,0,0,0,0        c0,0,0,0,0,0c-0.1-0.1,0,0,0,0.1c0,0,0,0,0,0c0,0,0-0.1,0,0c0,0.1-0.1-0.1-0.1,0l0,0c0,0,0,0-0.1,0c0,0,0,0,0,0c0,0,0,0,0,0        c0,0.1,0,0,0,0.1c0,0,0,0.1,0,0c0,0,0,0,0,0c0,0,0,0-0.1,0c0,0,0,0,0,0c0,0,0,0.1,0,0.1c-0.1-0.1,0,0,0,0c0,0,0,0,0,0        c0,0.1,0-0.1-0.1,0c0,0.1,0,0,0,0c0,0,0.1,0.1,0,0.1c0,0,0,0,0,0c-0.1,0,0,0,0,0.1c0,0,0,0,0,0c0,0,0,0,0,0c0,0,0,0,0,0        c0,0,0,0,0,0c0,0,0,0,0,0c0,0,0,0.1,0,0c0.1,0.1,0,0,0,0.1c-0.1,0,0,0,0,0c0,0.1-0.1,0-0.1,0c0,0.1,0.1,0.1,0,0.1c0,0,0,0,0,0        c0.1,0.1-0.1,0,0,0.1c0.1,0,0,0,0,0.1c0,0.1,0.2-0.1,0.2,0c-0.1,0-0.1,0,0,0c0,0,0,0.1,0,0.1c0,0.1,0,0,0,0c0,0.1,0,0,0,0        c0,0,0,0.1,0,0.1c0,0-0.1-0.1-0.1,0c0,0,0.1,0,0,0.1c0,0.1,0.1,0,0.2,0.1c0,0,0.1,0,0.1,0c0,0,0,0,0,0c0,0,0.1-0.1,0.1-0.1        c0,0,0.6,0.1,0.7,0.1c0,0,0.1,0.2,0.1,0.2l0,0.1l0,0.1c0,0,0,0.1-0.1,0.1c-0.1,0,0.3,0,0.4,0c0,0-0.1,0-0.1,0        c0,0-0.1-0.2-0.1-0.2l0-0.1v-0.1c0,0,0-0.1,0-0.1c0,0,0,0,0,0c0,0,0,0,0,0c0,0,0.1-0.1,0.2-0.1c0.1,0,0.2-0.1,0.2-0.2l0.2,0        c0,0,0,0,0,0c0,0.1,0,0,0.1,0c0,0,0.1,0,0.1,0c0,0,0,0,0-0.1c0,0,0,0,0,0c0,0,0,0,0.1,0c0.1,0,0,0,0-0.1c0,0,0.1,0,0.1,0        c0,0,0,0,0.1,0c0,0,0.1,0,0.1,0C20.8,23.2,20.8,23.2,20.8,23.1C20.8,23.1,20.9,23.2,20.8,23.1C20.9,23,20.8,23.1,20.8,23.1z         M19,23.5C19,23.5,19,23.5,19,23.5C19,23.5,19,23.5,19,23.5L19,23.5z M19.5,23.5c0,0-0.1,0.1-0.2,0c0,0-0.1,0-0.1-0.1        c0,0,0,0,0,0C19.4,23.5,19.4,23.5,19.5,23.5C19.5,23.5,19.5,23.5,19.5,23.5z M19.8,23.5c0,0-0.1,0-0.1,0.1c0,0,0,0,0,0        c0-0.1,0-0.1,0.1-0.2c0,0,0.1,0,0.1-0.1c0,0,0.1,0,0.2,0C20,23.4,19.9,23.5,19.8,23.5z"/>
						<path class="st0" d="M19.9,24.1C19.9,24.1,19.9,24.1,19.9,24.1C19.9,24.1,19.9,24.1,19.9,24.1z"/>
					</g>
					<g>
						<path class="st0" d="M13.9,20.3C13.9,20.3,13.9,20.3,13.9,20.3C13.9,20.2,13.9,20.3,13.9,20.3C13.9,20.2,13.9,20.2,13.9,20.3        c0-0.1,0-0.1,0-0.1c0,0,0,0,0,0c0,0,0,0,0,0c0,0,0,0,0,0c0,0,0,0,0,0c0,0,0,0,0,0c-0.1,0,0,0,0,0c0,0,0,0,0,0c0,0,0,0,0,0        c0,0,0,0,0,0c0,0,0,0,0,0c0,0,0,0,0,0c0,0,0,0,0,0c0,0,0,0,0,0c0,0,0,0,0,0c0,0,0-0.1,0-0.1c0,0,0,0,0,0c0,0,0,0,0,0        c0,0,0,0,0,0c0,0,0,0,0,0c0,0,0,0,0,0c0,0,0-0.1,0-0.1c0,0,0,0,0,0c0,0,0,0,0,0c0,0,0-0.1-0.1,0c0,0,0.1-0.1,0-0.1        c0,0,0-0.1-0.1,0c0,0,0,0,0,0l0-0.1c0,0,0,0,0,0c0,0,0,0,0,0c0,0,0,0,0,0c0,0,0,0,0,0.1c0,0,0,0,0-0.1c0,0,0,0,0,0        c0-0.1,0,0,0,0c0,0,0,0,0,0c0,0,0,0,0,0c0,0,0,0,0,0c0,0,0,0,0,0c0,0,0,0,0,0c0-0.1,0,0-0.1,0c0,0,0,0,0,0c0,0,0,0,0,0        c0,0,0,0,0,0c0,0,0,0,0,0c0,0,0,0,0,0c0,0,0,0,0,0c0,0,0,0,0,0c0,0,0,0,0,0c0-0.1,0,0,0,0c0,0,0,0,0,0c0,0,0,0,0,0        c0,0,0,0,0,0l0,0c0,0,0,0,0,0c0,0,0,0,0,0c0,0,0,0,0,0c0,0.1,0,0,0,0.1c0,0,0,0.1,0,0c0,0,0,0,0,0c0,0,0,0,0,0c0,0,0,0,0,0        c0,0,0,0,0,0.1c0-0.1,0,0,0,0c0,0,0,0,0,0c0,0,0,0,0,0c0,0.1,0,0,0,0c0,0,0,0,0,0c0,0,0,0,0,0c0,0,0,0,0,0.1c0,0,0,0,0,0        c0,0,0,0,0,0c0,0,0,0,0,0c0,0,0,0,0,0c0,0,0,0,0,0c0,0,0,0,0,0c0,0.1,0,0,0,0.1c0,0,0,0,0,0c0,0-0.1,0,0,0c0,0,0.1,0.1,0,0.1        c0,0,0,0,0,0c0,0.1,0,0,0,0.1c0.1,0,0,0,0,0c0,0,0.1,0,0.1,0c0,0-0.1,0,0,0c0,0,0,0,0,0.1c0,0,0,0,0,0c0,0,0,0,0,0        c0,0,0,0,0,0.1c0,0,0,0-0.1,0c0,0,0.1,0,0,0c0,0,0.1,0,0.1,0c0,0,0,0,0.1,0c0,0,0,0,0,0c0,0,0,0,0.1,0h0c0,0,0.4,0.1,0.4,0.1        c0,0,0,0.1,0,0.1l0,0.1l0,0.1c0,0,0,0.1-0.1,0.1c0,0,0.2,0,0.3,0c0,0-0.1,0-0.1,0c0,0,0-0.1,0-0.1l0,0v-0.1c0,0,0,0,0-0.1        c0,0,0,0,0,0c0,0,0,0,0,0c0,0,0.1,0,0.1-0.1c0,0,0.1-0.1,0.1-0.1l0.1,0c0,0,0,0,0,0c0,0,0,0,0,0c0,0,0.1,0,0.1,0c0,0,0,0,0,0        c0,0,0,0,0,0c0,0,0,0,0,0c0.1,0,0,0,0,0c0,0,0,0,0,0C13.8,20.4,13.8,20.4,13.9,20.3C13.9,20.4,13.9,20.4,13.9,20.3        C13.9,20.3,13.9,20.3,13.9,20.3C13.9,20.3,14,20.3,13.9,20.3C14,20.3,13.9,20.3,13.9,20.3z M12.7,20.5        C12.7,20.5,12.7,20.5,12.7,20.5C12.7,20.5,12.7,20.5,12.7,20.5C12.7,20.5,12.7,20.5,12.7,20.5z M13.1,20.6c0,0-0.1,0-0.1,0        c0,0-0.1,0-0.1-0.1c0,0,0,0,0,0C13,20.6,13,20.6,13.1,20.6C13.1,20.5,13.1,20.5,13.1,20.6z M13.3,20.6        C13.2,20.6,13.2,20.6,13.3,20.6C13.2,20.6,13.2,20.6,13.3,20.6C13.2,20.5,13.2,20.5,13.3,20.6c0-0.1,0-0.1,0-0.1        c0,0,0.1,0,0.1,0C13.4,20.5,13.3,20.5,13.3,20.6z"/>
						<path class="st0" d="M13.3,20.9C13.3,20.9,13.3,20.9,13.3,20.9C13.3,20.9,13.3,20.9,13.3,20.9z"/>
					</g>
					<g>
						<path class="st0" d="M19.5,20.2C19.5,20.2,19.5,20.2,19.5,20.2C19.5,20.2,19.5,20.2,19.5,20.2C19.5,20.2,19.5,20.2,19.5,20.2        c0-0.1,0-0.1,0-0.1c0,0,0,0,0,0c0,0,0,0,0,0c0,0,0.1,0,0,0c0,0,0,0,0,0c0,0,0,0,0,0c-0.1,0,0,0,0,0c0,0,0,0,0,0c0,0,0,0,0,0        c0,0,0,0,0,0c0,0,0,0,0,0c0,0,0,0,0,0c0,0,0,0,0,0c0,0,0,0,0,0c0,0,0,0,0,0c0,0,0-0.1,0-0.1c0,0,0,0,0,0c0,0,0,0,0,0        c0,0,0,0,0,0c0,0,0,0,0,0c0,0,0,0,0,0c0,0,0-0.1,0-0.1c0,0,0,0,0,0c0,0,0,0,0,0c-0.1,0,0-0.1-0.1,0c0,0,0.1-0.1,0-0.1        c0,0,0-0.1-0.1,0c0,0,0,0,0,0l0-0.1c0,0,0,0,0,0c0,0,0,0,0,0c0,0,0,0,0,0c0,0,0,0,0,0.1c0,0,0,0,0-0.1c0,0,0,0,0,0        c0-0.1,0,0,0,0c0,0,0,0,0,0c0,0,0,0,0,0c0,0,0,0,0,0c0,0,0,0,0,0c0,0,0,0,0,0c0-0.1-0.1,0-0.1,0c0,0,0,0,0,0c0,0,0,0,0,0        c0,0,0,0,0,0c0,0,0,0,0,0c0,0,0,0,0,0c0,0,0,0,0,0c0,0,0,0,0,0c0,0,0,0,0,0c0-0.1,0,0,0,0c0,0,0,0,0,0c0,0,0,0,0,0        c0,0,0,0,0,0l0,0c0,0,0,0,0,0c0,0,0,0,0,0c0,0,0,0,0,0c0,0.1,0,0,0,0.1c0,0,0,0.1,0,0c0,0,0,0,0,0c0,0,0,0,0,0c0,0,0,0,0,0        c0,0,0,0,0,0.1c0-0.1,0,0,0,0c0,0,0,0,0,0c0,0,0,0,0,0c0,0.1,0,0,0,0c0,0,0,0,0,0.1c0,0,0,0,0,0c0,0,0,0,0,0.1c0,0,0,0,0,0        c0,0,0,0,0,0c0,0,0,0,0,0c0,0,0,0,0,0c0,0,0,0,0,0c0,0,0,0,0,0c0,0.1,0,0,0,0.1c0,0,0,0,0,0c0,0-0.1,0,0,0c0,0,0.1,0.1,0,0.1        c0,0,0,0,0,0c0,0.1,0,0,0,0.1c0.1,0,0,0,0,0c0,0,0.1-0.1,0.1,0c-0.1,0-0.1,0,0,0c0,0,0,0,0,0.1c0,0,0,0,0,0c0,0,0,0,0,0        c0,0,0,0.1,0,0.1c0,0,0,0-0.1,0c0,0,0.1,0,0,0c0,0,0.1,0,0.1,0c0,0,0,0,0.1,0c0,0,0,0,0,0c0,0,0,0,0.1,0c0,0,0.4,0.1,0.4,0.1        c0,0,0,0.1,0,0.1l0,0.1l0,0.1c0,0,0,0.1-0.1,0.1c0,0,0.2,0,0.3,0c0,0-0.1,0-0.1,0c0,0,0-0.1,0-0.1l0,0v-0.1c0,0,0,0,0-0.1        c0,0,0,0,0,0c0,0,0,0,0,0c0,0,0.1-0.1,0.1-0.1c0,0,0.1-0.1,0.1-0.1l0.1,0c0,0,0,0,0,0c0,0,0,0,0,0c0,0,0.1,0,0.1,0        c0,0,0,0,0,0c0,0,0,0,0,0c0,0,0,0,0,0c0.1,0,0,0,0,0c0,0,0,0,0,0C19.4,20.3,19.4,20.3,19.5,20.2c0,0.1,0,0.1,0,0.1        C19.5,20.3,19.5,20.3,19.5,20.2C19.5,20.3,19.6,20.3,19.5,20.2C19.6,20.2,19.5,20.3,19.5,20.2z M18.3,20.5        C18.3,20.5,18.3,20.5,18.3,20.5C18.3,20.5,18.3,20.5,18.3,20.5C18.3,20.5,18.3,20.5,18.3,20.5z M18.6,20.5c0,0-0.1,0-0.1,0        c0,0-0.1,0-0.1-0.1c0,0,0,0,0,0C18.5,20.5,18.6,20.5,18.6,20.5C18.6,20.5,18.7,20.5,18.6,20.5z M18.9,20.5        C18.8,20.5,18.8,20.5,18.9,20.5C18.8,20.6,18.8,20.6,18.9,20.5C18.8,20.5,18.8,20.5,18.9,20.5c0-0.1,0-0.1,0-0.1        c0,0,0.1,0,0.1,0C19,20.4,18.9,20.5,18.9,20.5z M19.2,20.4C19.2,20.4,19.2,20.4,19.2,20.4C19.2,20.4,19.2,20.4,19.2,20.4        C19.2,20.4,19.2,20.4,19.2,20.4z"/>
						<path class="st0" d="M18.9,20.9C18.9,20.9,18.9,20.9,18.9,20.9C18.9,20.9,18.9,20.9,18.9,20.9z"/>
					</g>
					<g>
						<path class="st0" d="M15.5,19.1C15.5,19.1,15.5,19.1,15.5,19.1C15.5,19.1,15.5,19.1,15.5,19.1C15.5,19.1,15.5,19.1,15.5,19.1        C15.5,19.1,15.5,19.1,15.5,19.1C15.5,19,15.5,19,15.5,19.1c0-0.1,0-0.1,0-0.1c0,0,0,0,0,0c0,0,0,0,0,0c0,0,0,0,0,0        c0,0,0,0,0,0c0,0,0,0,0,0c0,0,0,0,0,0c0,0,0,0,0,0c0,0,0,0,0,0c0,0,0,0,0,0c0,0,0,0,0,0c0,0,0,0,0,0c0,0,0,0,0,0c0,0,0,0,0,0        c0,0,0-0.1,0,0c0,0,0,0,0,0c0,0,0,0,0,0c0,0,0,0,0,0c0,0,0,0,0,0c0,0,0,0,0,0c0,0,0,0,0-0.1c0,0,0,0,0,0c0,0,0,0,0,0        c0,0,0,0,0,0c0,0,0-0.1,0,0c0,0,0,0,0,0c0,0,0,0,0,0l0-0.1c0,0,0,0,0,0c0,0,0,0,0,0c0,0,0,0,0,0c0,0,0,0,0,0c0,0,0,0,0,0        c0,0,0,0,0,0c0,0,0,0,0,0c0,0,0,0,0,0c0,0,0,0,0,0c0,0,0,0,0,0c0,0,0,0,0,0c0,0,0,0,0,0c0,0,0,0-0.1,0c0,0,0,0,0,0h0        c0,0,0,0,0,0c0,0,0,0,0,0c0,0,0,0,0,0c0,0,0,0,0,0c0,0,0,0,0,0c0,0,0,0,0,0c0,0,0,0,0,0c0,0,0,0,0,0c0,0,0,0,0,0c0,0,0,0,0,0        c0,0,0,0,0,0l0,0c0,0,0,0,0,0c0,0,0,0,0,0c0,0,0,0,0,0c0,0,0,0,0,0c0,0,0,0,0,0c0,0,0,0,0,0c0,0,0,0,0,0c0,0,0,0,0,0        c0,0,0,0,0,0c0,0,0,0,0,0c0,0,0,0,0,0c0,0,0,0,0,0c0,0.1,0,0,0,0c0,0,0,0,0,0c0,0,0,0,0,0c0,0,0,0,0,0c0,0,0,0,0,0        c0,0,0,0,0,0c0,0,0,0,0,0c0,0,0,0,0,0c0,0,0,0,0,0c0,0,0,0,0,0c0,0.1,0,0,0,0c0,0,0,0,0,0c0,0,0,0,0,0c0,0,0.1,0,0,0.1        c0,0,0,0,0,0c0,0.1,0,0,0,0c0.1,0,0,0,0,0c0,0,0.1,0,0.1,0c0,0-0.1,0,0,0c0,0,0,0,0,0c0,0,0,0,0,0c0,0,0,0,0,0c0,0,0,0,0,0.1        c0,0,0,0,0,0c0,0,0,0,0,0c0,0,0.1,0,0.1,0c0,0,0,0,0,0c0,0,0,0,0,0c0,0,0,0,0.1,0c0,0,0.3,0,0.3,0.1c0,0,0,0.1,0,0.1l0,0.1        l0,0.1c0,0,0,0-0.1,0c0,0,0.1,0,0.2,0c0,0,0,0-0.1,0c0,0,0-0.1,0-0.1l0,0v0c0,0,0,0,0,0c0,0,0,0,0,0c0,0,0,0,0,0        c0,0,0,0,0.1-0.1c0,0,0.1-0.1,0.1-0.1l0.1,0c0,0,0,0,0,0c0,0,0,0,0,0c0,0,0.1,0,0.1,0c0,0,0,0,0,0c0,0,0,0,0,0c0,0,0,0,0,0        C15.4,19.3,15.4,19.3,15.5,19.1C15.4,19.2,15.4,19.2,15.5,19.1C15.4,19.2,15.5,19.2,15.5,19.1C15.5,19.2,15.5,19.2,15.5,19.1        C15.5,19.2,15.5,19.2,15.5,19.1C15.5,19.2,15.5,19.2,15.5,19.1C15.5,19.1,15.5,19.2,15.5,19.1z M14.6,19.3        C14.6,19.3,14.6,19.3,14.6,19.3C14.6,19.3,14.6,19.3,14.6,19.3C14.6,19.3,14.6,19.3,14.6,19.3z M14.9,19.4        C14.8,19.4,14.8,19.4,14.9,19.4c-0.1,0-0.1,0-0.2,0c0,0,0,0,0,0C14.8,19.4,14.8,19.4,14.9,19.4C14.8,19.4,14.9,19.4,14.9,19.4        z M15,19.4C15,19.4,15,19.4,15,19.4C15,19.4,15,19.4,15,19.4C15,19.4,15,19.3,15,19.4C15,19.3,15,19.3,15,19.4        c0-0.1,0.1-0.1,0.1-0.1C15.1,19.3,15,19.4,15,19.4z"/>
						<path class="st0" d="M15.1,19.7C15.1,19.7,15,19.7,15.1,19.7C15,19.7,15.1,19.7,15.1,19.7z"/>
					</g>
					<g>
						<path class="st0" d="M14.8,17.9C14.8,17.9,14.8,17.9,14.8,17.9C14.8,17.9,14.8,17.9,14.8,17.9C14.8,17.9,14.8,17.9,14.8,17.9        C14.8,17.9,14.8,17.9,14.8,17.9C14.8,17.8,14.8,17.8,14.8,17.9c0-0.1,0-0.1,0-0.1c0,0,0,0,0,0c0,0,0,0,0,0c0,0,0,0,0,0        c0,0,0,0,0,0c0,0,0,0,0,0c0,0,0,0,0,0c0,0,0,0,0,0c0,0,0,0,0,0c0,0,0,0,0,0c0,0,0,0,0,0c0,0,0,0,0,0c0,0,0,0,0,0c0,0,0,0,0,0        c0,0,0-0.1,0,0c0,0,0,0,0,0c0,0,0,0,0,0c0,0,0,0,0,0c0,0,0,0,0,0c0,0,0,0,0,0c0,0,0,0,0-0.1c0,0,0,0,0,0c0,0,0,0,0,0        c0,0,0,0,0,0c0,0,0-0.1,0,0c0,0,0,0,0,0c0,0,0,0,0,0l0-0.1c0,0,0,0,0,0c0,0,0,0,0,0c0,0,0,0,0,0c0,0,0,0,0,0c0,0,0,0,0,0        c0,0,0,0,0,0c0,0,0,0,0,0c0,0,0,0,0,0c0,0,0,0,0,0c0,0,0,0,0,0c0,0,0,0,0,0c0,0,0,0,0,0c0,0,0,0-0.1,0c0,0,0,0,0,0h0        c0,0,0,0,0,0c0,0,0,0,0,0c0,0,0,0,0,0c0,0,0,0,0,0c0,0,0,0,0,0c0,0,0,0,0,0c0,0,0,0,0,0c0,0,0,0,0,0c0,0,0,0,0,0c0,0,0,0,0,0        c0,0,0,0,0,0l0,0c0,0,0,0,0,0c0,0,0,0,0,0c0,0,0,0,0,0c0,0,0,0,0,0c0,0,0,0,0,0c0,0,0,0,0,0c0,0,0,0,0,0c0,0,0,0,0,0        c0,0,0,0,0,0c0,0,0,0,0,0c0,0,0,0,0,0c0,0,0,0,0,0c0,0.1,0,0,0,0c0,0,0,0,0,0c0,0,0,0,0,0c0,0,0,0,0,0c0,0,0,0,0,0        c0,0,0,0,0,0c0,0,0,0,0,0c0,0,0,0,0,0c0,0,0,0,0,0c0,0,0,0,0,0c0,0.1,0,0,0,0c0,0,0,0,0,0c0,0,0,0,0,0c0,0,0.1,0,0,0.1        c0,0,0,0,0,0c0,0.1,0,0,0,0c0.1,0,0,0,0,0c0,0,0.1,0,0.1,0c0,0-0.1,0,0,0c0,0,0,0,0,0c0,0,0,0,0,0c0,0,0,0,0,0c0,0,0,0,0,0.1        c0,0,0,0,0,0c0,0,0,0,0,0c0,0,0.1,0,0.1,0c0,0,0,0,0,0c0,0,0,0,0,0c0,0,0,0,0.1,0h0c0,0,0.3,0,0.3,0.1c0,0,0,0.1,0,0.1l0,0.1        l0,0.1c0,0,0,0-0.1,0c0,0,0.1,0,0.2,0c0,0,0,0-0.1,0c0,0,0-0.1,0-0.1l0,0v0c0,0,0,0,0,0c0,0,0,0,0,0c0,0,0,0,0,0        c0,0,0,0,0.1-0.1c0,0,0.1-0.1,0.1-0.1l0.1,0c0,0,0,0,0,0c0,0,0,0,0,0c0,0,0.1,0,0.1,0c0,0,0,0,0,0c0,0,0,0,0,0c0,0,0,0,0,0        C14.8,18.1,14.7,18.1,14.8,17.9C14.7,18,14.7,18,14.8,17.9C14.7,18,14.8,18,14.8,17.9C14.8,18,14.8,18,14.8,17.9        C14.8,18,14.8,18,14.8,17.9C14.8,18,14.9,18,14.8,17.9C14.9,17.9,14.8,18,14.8,17.9z M13.9,18.1        C13.9,18.1,13.9,18.1,13.9,18.1C13.9,18.1,13.9,18.1,13.9,18.1C13.9,18.1,13.9,18.1,13.9,18.1z M14.2,18.2        C14.1,18.2,14.1,18.2,14.2,18.2c-0.1,0-0.1,0-0.2,0c0,0,0,0,0,0C14.1,18.2,14.1,18.2,14.2,18.2C14.2,18.1,14.2,18.2,14.2,18.2        z M14.3,18.2C14.3,18.2,14.3,18.2,14.3,18.2C14.3,18.2,14.3,18.2,14.3,18.2C14.3,18.2,14.3,18.1,14.3,18.2        C14.3,18.1,14.3,18.1,14.3,18.2c0-0.1,0.1-0.1,0.1-0.1C14.4,18.1,14.3,18.2,14.3,18.2z"/>
						<path class="st0" d="M14.4,18.5C14.4,18.5,14.4,18.5,14.4,18.5C14.4,18.5,14.4,18.5,14.4,18.5z"/>
					</g>
					<g>
						<path class="st0" d="M20.4,18.9C20.4,18.9,20.4,18.9,20.4,18.9C20.5,18.9,20.4,18.9,20.4,18.9C20.4,18.9,20.4,18.9,20.4,18.9        C20.4,18.9,20.4,18.9,20.4,18.9c0-0.1,0-0.1,0-0.1c0,0,0,0,0,0c0,0,0,0,0,0c0,0,0,0,0,0c0,0,0,0,0,0c0,0,0,0,0,0c0,0,0,0,0,0        c0,0,0,0,0,0c0,0,0,0,0,0c0,0,0,0,0,0c0,0,0,0,0,0c0,0,0,0,0,0c0,0,0,0,0,0c0,0,0,0,0,0c0,0,0-0.1,0-0.1c0,0,0,0,0,0        c0,0,0,0,0,0c0,0,0,0,0,0c0,0,0,0,0,0c0,0,0,0,0,0c0,0,0-0.1,0-0.1c0,0,0,0,0,0c0,0,0,0,0,0c0,0,0,0,0,0c0,0,0-0.1,0,0        c0,0,0,0,0,0c0,0,0,0,0,0l0-0.1c0,0,0,0,0,0c0,0,0,0,0,0c0,0,0,0,0,0c0,0,0,0,0,0c0,0,0,0,0,0c0,0,0,0,0,0c0,0,0,0,0,0        c0,0,0,0,0,0c0,0,0,0,0,0c0,0,0,0,0,0c0,0,0,0,0,0c0,0,0,0,0,0c0-0.1,0,0-0.1,0c0,0,0,0,0,0h0c0,0,0,0,0,0c0,0,0,0,0,0        c0,0,0,0,0,0c0,0,0,0,0,0c0,0,0,0,0,0c0,0,0,0,0,0c0,0,0,0,0,0c0,0,0,0,0,0c0,0,0,0,0,0c0,0,0,0,0,0c0,0,0,0,0,0l0,0        c0,0,0,0,0,0c0,0,0,0,0,0c0,0,0,0,0,0c0,0,0,0,0,0c0,0,0,0,0,0c0,0,0,0,0,0c0,0,0,0,0,0c0,0,0,0,0,0c0,0,0,0,0,0c0,0,0,0,0,0        c0,0,0,0,0,0c0,0,0,0,0,0c0,0.1,0,0,0,0c0,0,0,0,0,0c0,0,0,0,0,0c0,0,0,0,0,0c0,0,0,0,0,0c0,0,0,0,0,0c0,0,0,0,0,0        c0,0,0,0,0,0c0,0,0,0,0,0c0,0,0,0,0,0c0,0.1,0,0,0,0.1c0,0,0,0,0,0c0,0,0,0,0,0c0,0,0.1,0,0,0.1c0,0,0,0,0,0c0,0.1,0,0,0,0        c0.1,0,0,0,0,0c0,0,0.1,0,0.1,0c0,0-0.1,0,0,0c0,0,0,0,0,0c0,0,0,0,0,0c0,0,0,0,0,0c0,0,0,0,0,0.1c0,0,0,0,0,0c0,0,0,0,0,0        c0,0,0.1,0,0.1,0c0,0,0,0,0,0c0,0,0,0,0,0c0,0,0,0,0.1,0h0c0,0,0.3,0,0.3,0.1c0,0,0,0.1,0,0.1l0,0.1l0,0.1c0,0,0,0-0.1,0.1        c0,0,0.1,0,0.2,0c0,0-0.1,0-0.1,0c0,0,0-0.1,0-0.1l0,0v0c0,0,0,0,0,0c0,0,0,0,0,0c0,0,0,0,0,0c0,0,0,0,0.1-0.1        c0,0,0.1-0.1,0.1-0.1l0.1,0c0,0,0,0,0,0c0,0,0,0,0,0c0,0,0.1,0,0.1,0c0,0,0,0,0,0c0,0,0,0,0,0c0,0,0,0,0,0        C20.4,19.1,20.3,19,20.4,18.9C20.3,19,20.3,19,20.4,18.9C20.3,19,20.4,19,20.4,18.9C20.4,19,20.4,19,20.4,18.9        C20.4,19,20.4,19,20.4,18.9C20.4,19,20.5,19,20.4,18.9C20.5,18.9,20.4,18.9,20.4,18.9z M19.7,19.2        C19.7,19.2,19.7,19.2,19.7,19.2c-0.1,0-0.1,0-0.2,0c0,0,0,0,0,0C19.7,19.2,19.7,19.1,19.7,19.2C19.7,19.1,19.8,19.1,19.7,19.2        z M19.9,19.1C19.9,19.2,19.9,19.2,19.9,19.1C19.9,19.2,19.9,19.2,19.9,19.1C19.9,19.1,19.9,19.1,19.9,19.1        C19.9,19.1,19.9,19.1,19.9,19.1c0-0.1,0.1-0.1,0.1-0.1C20,19.1,19.9,19.1,19.9,19.1z M20.2,19.1        C20.2,19.1,20.2,19.1,20.2,19.1C20.2,19.1,20.2,19.1,20.2,19.1C20.2,19.1,20.2,19.1,20.2,19.1z"/>
						<path class="st0" d="M20,19.5C20,19.5,19.9,19.5,20,19.5C19.9,19.5,20,19.5,20,19.5z"/>
					</g>
					<g>
						<path class="st0" d="M19.1,17.9C19.1,17.9,19.1,17.9,19.1,17.9C19.1,17.9,19.1,17.9,19.1,17.9C19.1,17.9,19.1,17.9,19.1,17.9        C19.1,17.9,19.1,17.9,19.1,17.9c0-0.1,0-0.1,0-0.1c0,0,0,0,0,0c0,0,0,0,0,0c0,0,0,0,0,0c0,0,0,0,0,0c0,0,0,0,0,0c0,0,0,0,0,0        c0,0,0,0,0,0c0,0,0,0,0,0c0,0,0,0,0,0c0,0,0,0,0,0c0,0,0,0,0,0c0,0,0,0,0,0c0,0,0,0,0,0c0,0,0,0,0,0c0,0,0-0.1,0-0.1        c0,0,0,0,0,0c0,0,0,0,0,0c0,0,0,0,0,0c0,0,0,0,0,0c0,0,0,0,0,0c0,0,0-0.1,0-0.1c0,0,0,0,0,0c0,0,0,0,0,0c0,0,0,0,0,0        c0,0,0-0.1,0,0c0,0,0,0,0,0c0,0,0,0,0,0l0-0.1c0,0,0,0,0,0c0,0,0,0,0,0c0,0,0,0,0,0c0,0,0,0,0,0c0,0,0,0,0,0c0,0,0,0,0,0        c0,0,0,0,0,0c0,0,0,0,0,0c0,0,0,0,0,0c0,0,0,0,0,0c0,0,0,0,0,0c0,0,0,0,0,0c0-0.1,0,0-0.1,0c0,0,0,0,0,0h0c0,0,0,0,0,0        c0,0,0,0,0,0c0,0,0,0,0,0c0,0,0,0,0,0c0,0,0,0,0,0c0,0,0,0,0,0c0,0,0,0,0,0c0,0,0,0,0,0c0,0,0,0,0,0c0,0,0,0,0,0c0,0,0,0,0,0        l0,0c0,0,0,0,0,0c0,0,0,0,0,0c0,0,0,0,0,0c0,0,0,0,0,0c0,0,0,0,0,0c0,0,0,0,0,0c0,0,0,0,0,0c0,0,0,0,0,0c0,0,0,0,0,0        c0,0,0,0,0,0c0,0,0,0,0,0c0,0,0,0,0,0c0,0.1,0,0,0,0c0,0,0,0,0,0c0,0,0,0,0,0c0,0,0,0,0,0c0,0,0,0,0,0c0,0,0,0,0,0        c0,0,0,0,0,0c0,0,0,0,0,0c0,0,0,0,0,0c0,0,0,0,0,0c0,0.1,0,0,0,0.1c0,0,0,0,0,0c0,0,0,0,0,0c0,0,0.1,0,0,0.1c0,0,0,0,0,0        c0,0.1,0,0,0,0c0.1,0,0,0,0,0c0,0,0.1,0,0.1,0c0,0-0.1,0,0,0c0,0,0,0,0,0c0,0,0,0,0,0c0,0,0,0,0,0c0,0,0,0,0,0.1c0,0,0,0,0,0        c0,0,0,0,0,0c0,0,0.1,0,0.1,0c0,0,0,0,0,0c0,0,0,0,0,0c0,0,0,0,0.1,0c0,0,0.3,0,0.3,0.1c0,0,0,0.1,0,0.1l0,0.1l0,0.1        c0,0,0,0-0.1,0.1c0,0,0.1,0,0.2,0c0,0,0,0-0.1,0c0,0,0-0.1,0-0.1l0,0v0c0,0,0,0,0,0c0,0,0,0,0,0c0,0,0,0,0,0c0,0,0,0,0.1-0.1        c0,0,0.1-0.1,0.1-0.1l0.1,0c0,0,0,0,0,0c0,0,0,0,0,0c0,0,0.1,0,0.1,0c0,0,0,0,0,0c0,0,0,0,0,0c0,0,0,0,0,0        C19,18.1,19,18.1,19.1,17.9C19,18,19,18.1,19.1,17.9C19,18,19,18,19.1,17.9C19.1,18,19.1,18,19.1,17.9        C19.1,18,19.1,18,19.1,17.9C19.1,18,19.1,18,19.1,17.9C19.1,17.9,19.1,18,19.1,17.9z M18.4,18.2        C18.4,18.2,18.4,18.2,18.4,18.2c-0.1,0-0.1,0-0.2,0c0,0,0,0,0,0C18.3,18.2,18.4,18.2,18.4,18.2C18.4,18.2,18.4,18.2,18.4,18.2        z M18.6,18.2C18.6,18.2,18.6,18.2,18.6,18.2L18.6,18.2C18.5,18.2,18.5,18.1,18.6,18.2C18.6,18.1,18.6,18.1,18.6,18.2        c0-0.1,0.1-0.1,0.1-0.1C18.7,18.1,18.6,18.2,18.6,18.2z"/>
						<path class="st0" d="M18.6,18.5C18.6,18.5,18.6,18.5,18.6,18.5C18.6,18.5,18.6,18.5,18.6,18.5z"/>
					</g>
					<g>
						<path class="st0" d="M14.2,21.6C14.2,21.6,14.2,21.6,14.2,21.6L14.2,21.6C14.2,21.7,14.2,21.7,14.2,21.6        C14.2,21.7,14.2,21.6,14.2,21.6z"/>
						<path class="st0" d="M14.4,22C14.4,22,14.4,22,14.4,22C14.4,22,14.4,22,14.4,22z"/>
					</g>
					<g>
						<path class="st0" d="M21,21C21,21,21,20.9,21,21C21,20.9,21,20.9,21,21C21,20.9,21,20.9,21,21c0-0.1,0-0.1,0-0.1c0,0,0,0,0,0        c0,0,0,0,0,0c0,0,0,0,0,0c0,0,0,0,0,0c0,0,0,0,0,0c-0.1,0,0,0,0,0c0,0,0,0,0,0c0,0,0,0,0,0c0,0,0,0,0,0c0,0,0,0,0,0        c0,0,0,0,0,0c0,0,0,0,0,0c0,0,0,0,0,0c0,0,0,0,0,0c0,0,0-0.1,0-0.1c0,0,0,0,0,0c0,0,0,0,0,0c0,0,0,0,0,0c0,0,0,0,0,0        c0,0,0,0,0,0c0,0,0-0.1,0-0.1c0,0,0,0,0,0c0,0,0,0,0,0c0,0,0-0.1-0.1,0c0,0,0.1-0.1,0-0.1c0,0,0-0.1-0.1,0c0,0,0,0,0,0l0-0.1        c0,0,0,0,0,0c0,0,0,0,0,0c0,0,0,0,0,0c0,0,0,0,0,0.1c0,0,0,0,0-0.1c0,0,0,0,0,0c0-0.1,0,0,0,0c0,0,0,0,0,0c0,0,0,0,0,0        c0,0,0,0,0,0c0,0,0,0,0,0c0,0,0,0,0,0c0-0.1,0,0-0.1,0c0,0,0,0,0,0c0,0,0,0,0,0c0,0,0,0,0,0c0,0,0,0,0,0c0,0,0,0,0,0        c0,0,0,0,0,0c0,0,0,0,0,0c0,0,0,0,0,0c0-0.1,0,0,0,0c0,0,0,0,0,0c0,0,0,0,0,0c0,0,0,0,0,0l0,0c0,0,0,0,0,0c0,0,0,0,0,0        c0,0,0,0,0,0c0,0.1,0,0,0,0.1c0,0,0,0.1,0,0c0,0,0,0,0,0c0,0,0,0,0,0c0,0,0,0,0,0c0,0,0,0,0,0.1c0-0.1,0,0,0,0c0,0,0,0,0,0        c0,0,0,0,0,0c0,0.1,0,0,0,0c0,0,0,0,0,0c0,0,0,0,0,0c0,0,0,0,0,0.1c0,0,0,0,0,0c0,0,0,0,0,0c0,0,0,0,0,0c0,0,0,0,0,0        c0,0,0,0,0,0c0,0,0,0,0,0c0,0.1,0,0,0,0.1c0,0,0,0,0,0c0,0-0.1,0,0,0c0,0,0.1,0.1,0,0.1c0,0,0,0,0,0c0,0.1,0,0,0,0.1        c0.1,0,0,0,0,0c0,0,0.1-0.1,0.1,0c-0.1,0-0.1,0,0,0c0,0,0,0,0,0.1c0,0,0,0,0,0c0,0,0,0,0,0c0,0,0,0,0,0.1c0,0,0,0-0.1,0        c0,0,0.1,0,0,0c0,0,0.1,0,0.1,0c0,0,0,0,0.1,0c0,0,0,0,0,0c0,0,0,0,0.1,0h0c0,0,0.4,0.1,0.4,0.1c0,0,0,0.1,0,0.1l0,0.1l0,0.1        c0,0,0,0.1-0.1,0.1c0,0,0.2,0,0.3,0c0,0-0.1,0-0.1,0c0,0,0-0.1,0-0.1l0,0v-0.1c0,0,0,0,0-0.1c0,0,0,0,0,0c0,0,0,0,0,0        c0,0,0.1-0.1,0.1-0.1c0,0,0.1-0.1,0.1-0.1l0.1,0c0,0,0,0,0,0c0,0,0,0,0,0c0,0,0.1,0,0.1,0c0,0,0,0,0,0c0,0,0,0,0,0        c0,0,0,0,0,0c0.1,0,0,0,0,0c0,0,0,0,0,0C20.9,21.1,20.9,21.1,21,21C20.9,21.1,20.9,21.1,21,21C20.9,21,20.9,21,21,21        C20.9,21,21,21,21,21C21,21,21,21,21,21z M20.1,21.3c0,0-0.1,0-0.1,0c0,0-0.1,0-0.1-0.1c0,0,0,0,0,0        C20,21.2,20.1,21.2,20.1,21.3C20.1,21.2,20.1,21.2,20.1,21.3z M20.3,21.2C20.3,21.2,20.3,21.3,20.3,21.2        C20.3,21.3,20.3,21.3,20.3,21.2C20.3,21.2,20.3,21.2,20.3,21.2c0-0.1,0-0.1,0-0.1c0,0,0.1,0,0.1,0        C20.4,21.2,20.4,21.2,20.3,21.2z"/>
						<path class="st0" d="M20.4,21.6C20.4,21.6,20.4,21.6,20.4,21.6C20.4,21.6,20.4,21.6,20.4,21.6z"/>
					</g>
				</g>
			</g>
			<path class="st0" d="M15,21.3C15,21.3,15,21.3,15,21.3C15,21.3,15,21.3,15,21.3C15,21.3,15,21.3,15,21.3c0-0.1,0-0.1,0-0.1     c0,0,0,0,0,0c0,0,0,0,0,0c0,0,0,0,0,0c0,0,0,0,0,0c0,0,0,0,0,0c-0.1,0,0,0,0,0c0,0,0,0,0,0c0,0,0,0,0,0c0,0,0,0,0,0c0,0,0,0,0,0     c0,0,0,0,0,0c0,0,0,0,0,0c0,0,0,0,0,0c0,0,0,0,0,0c0,0,0-0.1,0-0.1c0,0,0,0,0,0c0,0,0,0,0,0c0,0,0,0,0,0c0,0,0,0,0,0c0,0,0,0,0,0     c0,0,0-0.1,0-0.1c0,0,0,0,0,0c0,0,0,0,0,0c0,0,0-0.1-0.1,0c0,0,0-0.1,0-0.1c0,0,0-0.1-0.1,0c0,0,0,0,0,0l0-0.1c0,0,0,0,0,0     c0,0,0,0,0,0c0,0,0,0,0,0c0,0,0,0,0,0c0,0,0,0,0-0.1c0,0,0,0,0,0c0,0,0,0,0,0c0,0,0,0,0,0c0,0,0,0,0,0c0,0,0,0,0,0c0,0,0,0,0,0     c0,0,0,0,0,0c0-0.1,0,0-0.1,0c0,0,0,0,0,0c0,0,0,0,0,0c0,0,0,0,0,0c0,0,0,0,0,0c0,0,0,0,0,0c0,0,0,0,0,0c0,0,0,0,0,0c0,0,0,0,0,0     c0,0,0,0,0,0c0,0,0,0,0,0c0,0,0,0,0,0c0,0,0,0,0,0l0,0c0,0,0,0,0,0c0,0,0,0,0,0c0,0,0,0,0,0c0,0.1,0,0,0,0.1c0,0,0,0.1,0,0     c0,0,0,0,0,0c0,0,0,0,0,0c0,0,0,0,0,0c0,0,0,0,0,0c0,0,0,0,0,0c0,0,0,0,0,0c0,0,0,0,0,0c0,0.1,0,0,0,0c0,0,0,0,0,0c0,0,0,0,0,0     c0,0,0,0,0,0.1c0,0,0,0,0,0c0,0,0,0,0,0c0,0,0,0,0,0c0,0,0,0,0,0c0,0,0,0,0,0c0,0,0,0,0,0c0,0.1,0,0,0,0.1c0,0,0,0,0,0     c0,0-0.1,0,0,0c0,0,0.1,0.1,0,0.1c0,0,0,0,0,0c0,0.1,0,0,0,0.1c0.1,0,0,0,0,0c0,0,0.1,0,0.1,0c0,0-0.1,0,0,0c0,0,0,0,0,0.1     c0,0,0,0,0,0c0,0,0,0,0,0c0,0,0,0,0,0.1c0,0,0,0,0,0c0,0,0,0,0,0c0,0,0.1,0,0.1,0c0,0,0,0,0.1,0c0,0,0,0,0,0c0,0,0,0,0.1,0h0     c0,0,0.1,0,0.2,0c0,0,0.1,0,0.1,0c0,0,0,0,0,0c0,0,0,0,0,0c0,0,0.1,0.1,0.1,0.1l0,0c0,0-0.1-0.1-0.1-0.1c0,0,0,0,0.1,0     c0,0,0.1,0,0.1,0l0,0.1c0,0,0,0,0,0s0,0.1,0,0c0,0,0,0,0,0l0,0.1l0,0l0,0c0,0,0,0,0,0l0,0.1l0,0.1c0,0,0,0.1-0.1,0.1     c0,0,0.2,0,0.3,0c0,0-0.1,0-0.1,0c0,0,0-0.1,0-0.1l0,0v-0.1c0,0,0,0,0-0.1c0,0,0,0,0,0c0,0,0,0,0,0c0,0,0.1,0,0.1-0.1     c0,0,0.1-0.1,0.1-0.1l0.1,0c0,0,0,0,0,0c0,0,0,0,0,0c0,0,0.1,0,0.1,0c0,0,0,0,0,0c0,0,0,0,0,0c0,0,0,0,0,0c0.1,0,0,0,0,0     c0,0,0,0,0,0C14.9,21.4,14.9,21.4,15,21.3C14.9,21.4,15,21.5,15,21.3C14.9,21.4,14.9,21.4,15,21.3C14.9,21.4,15,21.4,15,21.3     C15,21.3,15,21.4,15,21.3z M14.4,21.6C14.3,21.6,14.3,21.6,14.4,21.6C14.3,21.6,14.3,21.6,14.4,21.6     C14.3,21.6,14.3,21.6,14.4,21.6C14.3,21.5,14.4,21.5,14.4,21.6c0.1-0.1,0.1-0.1,0.1-0.1C14.5,21.5,14.4,21.6,14.4,21.6z"/>
			<path class="st0" d="M14.2,21.7C14.2,21.7,14.2,21.7,14.2,21.7L14.2,21.7C14.2,21.6,14.2,21.6,14.2,21.7     C14.2,21.6,14.2,21.7,14.2,21.7z"/>
		</g>
		<g>
			<g>
				<g>
					<path class="st0" d="M44.9,14.1c0,0.7-0.2,1.3-0.5,1.7c-0.4,0.4-0.8,0.6-1.4,0.6c-0.6,0-1.1-0.2-1.4-0.6       c-0.4-0.4-0.5-1-0.5-1.7V9.9h-1v4.2c0,1,0.3,1.7,0.8,2.3c0.5,0.6,1.2,0.9,2.1,0.9c0.9,0,1.6-0.3,2.1-0.9       c0.5-0.6,0.8-1.4,0.8-2.3V9.9h-1V14.1z"/>
					<path class="st0" d="M49.7,12c-0.3,0-0.7,0.1-0.9,0.2c-0.2,0.1-0.4,0.3-0.5,0.5V12h-0.9v5.1h0.9v-3.7c0.1-0.2,0.3-0.4,0.5-0.5       c0.2-0.1,0.4-0.2,0.7-0.2c0.4,0,0.7,0.1,0.9,0.4c0.2,0.2,0.3,0.6,0.3,1v3.1h0.9v-3.3c0-0.6-0.2-1-0.5-1.4       C50.7,12.1,50.3,12,49.7,12z"/>
					<path class="st0" d="M53.4,9.8c-0.2,0-0.3,0.1-0.4,0.2c-0.1,0.1-0.2,0.3-0.2,0.4c0,0.2,0.1,0.3,0.2,0.4       c0.1,0.1,0.3,0.2,0.4,0.2c0.2,0,0.3-0.1,0.4-0.2c0.1-0.1,0.2-0.3,0.2-0.4c0-0.2-0.1-0.3-0.2-0.4C53.7,9.8,53.6,9.8,53.4,9.8z"/>
					<rect x="53" y="12" class="st0" width="0.9" height="5.1"/>
					<polygon class="st0" points="57.2,15.9 55.6,12 54.7,12 56.7,17.1 56.7,17.1 57.6,17.1 59.7,12 58.7,12      "/>
					<path class="st0" d="M64.2,12.7c-0.2-0.2-0.5-0.4-0.7-0.5C63.1,12,62.8,12,62.5,12c-0.3,0-0.7,0.1-1,0.2       c-0.3,0.1-0.5,0.3-0.8,0.6c-0.2,0.2-0.4,0.5-0.5,0.8c-0.1,0.3-0.2,0.7-0.2,1c0,0.4,0.1,0.7,0.2,1c0.1,0.3,0.3,0.6,0.5,0.8       c0.2,0.2,0.5,0.4,0.8,0.6c0.3,0.1,0.6,0.2,1,0.2c0.4,0,0.7-0.1,1-0.2c0.3-0.1,0.6-0.3,0.9-0.5l0.1-0.1L64,15.9l-0.1,0.1       c-0.2,0.1-0.4,0.3-0.6,0.4c-0.2,0.1-0.5,0.1-0.7,0.1c-0.4,0-0.8-0.2-1.1-0.5c-0.3-0.3-0.5-0.7-0.5-1.1h3.9v-0.3       c0-0.4-0.1-0.7-0.2-1C64.5,13.2,64.4,12.9,64.2,12.7z M61,14.1c0.1-0.4,0.2-0.7,0.5-1c0.3-0.3,0.6-0.4,1-0.4       c0.4,0,0.7,0.1,1,0.4c0.2,0.3,0.4,0.6,0.5,1H61z"/>
					<path class="st0" d="M68.5,12c-0.1,0-0.2,0-0.3,0c-0.3,0-0.6,0.1-0.9,0.3c-0.2,0.1-0.3,0.3-0.4,0.5V12H66v5.1h0.9v-3.4       c0.1-0.3,0.3-0.5,0.5-0.7c0.2-0.2,0.5-0.2,0.7-0.2c0.1,0,0.2,0,0.2,0c0.1,0,0.2,0,0.2,0.1l0.1,0V12l-0.1,0       C68.6,12,68.5,12,68.5,12z"/>
					<path class="st0" d="M71.7,14.2l-0.8-0.2c-0.3-0.1-0.5-0.1-0.6-0.2c-0.1-0.1-0.2-0.2-0.2-0.4c0-0.2,0.1-0.4,0.3-0.5       c0.2-0.1,0.4-0.2,0.7-0.2c0.3,0,0.5,0,0.7,0.1c0.2,0.1,0.5,0.2,0.7,0.4l0.1,0.1l0.5-0.7L73,12.6c-0.3-0.2-0.6-0.4-0.9-0.5       c-0.3-0.1-0.6-0.2-1-0.2c-0.5,0-1,0.1-1.3,0.4c-0.4,0.3-0.5,0.7-0.5,1.1c0,0.4,0.1,0.7,0.4,0.9c0.2,0.2,0.6,0.4,1.1,0.5       l0.8,0.1c0.3,0.1,0.5,0.1,0.6,0.2c0.1,0.1,0.2,0.2,0.2,0.4c0,0.2-0.1,0.4-0.3,0.6c-0.2,0.2-0.5,0.2-0.8,0.2       c-0.3,0-0.5,0-0.7-0.1c-0.2-0.1-0.5-0.2-0.8-0.5l-0.1-0.1l-0.5,0.6l0.1,0.1c0.3,0.2,0.6,0.4,0.9,0.6c0.4,0.1,0.7,0.2,1.2,0.2       c0.6,0,1-0.2,1.4-0.5c0.4-0.3,0.6-0.7,0.6-1.2c0-0.4-0.1-0.7-0.4-0.9C72.6,14.5,72.2,14.3,71.7,14.2z"/>
					<path class="st0" d="M74.7,9.8c-0.2,0-0.3,0.1-0.4,0.2c-0.1,0.1-0.2,0.3-0.2,0.4c0,0.2,0.1,0.3,0.2,0.4       c0.1,0.1,0.3,0.2,0.4,0.2c0.2,0,0.3-0.1,0.4-0.2c0.1-0.1,0.2-0.3,0.2-0.4c0-0.2-0.1-0.3-0.2-0.4C75,9.8,74.8,9.8,74.7,9.8z"/>
					<rect x="74.2" y="12" class="st0" width="0.9" height="5.1"/>
					<path class="st0" d="M80.2,12.5c-0.2-0.2-0.4-0.3-0.6-0.4C79.3,12,79,12,78.7,12c-0.3,0-0.7,0.1-0.9,0.2       c-0.3,0.1-0.6,0.3-0.8,0.6c-0.2,0.2-0.4,0.5-0.5,0.8c-0.1,0.3-0.2,0.7-0.2,1c0,0.4,0.1,0.7,0.2,1c0.1,0.3,0.3,0.6,0.5,0.8       c0.2,0.2,0.5,0.4,0.8,0.6c0.3,0.1,0.6,0.2,0.9,0.2c0.3,0,0.6-0.1,0.9-0.2c0.2-0.1,0.4-0.2,0.6-0.4v0.5h0.9V9.6l-0.9,0.2V12.5z        M79.6,13c0.2,0.1,0.4,0.3,0.6,0.4v2.4c-0.1,0.2-0.3,0.3-0.5,0.4c-0.2,0.1-0.5,0.2-0.8,0.2c-0.5,0-0.9-0.2-1.2-0.5       c-0.3-0.3-0.5-0.8-0.5-1.3c0-0.5,0.2-0.9,0.5-1.3c0.3-0.3,0.7-0.5,1.2-0.5C79.1,12.8,79.4,12.9,79.6,13z"/>
					<path class="st0" d="M84.5,12c-0.3,0-0.6,0-0.9,0.1c-0.3,0.1-0.6,0.2-1,0.4l-0.1,0l0.4,0.7l0.1,0c0.3-0.1,0.5-0.3,0.8-0.3       c0.2-0.1,0.5-0.1,0.7-0.1c0.4,0,0.7,0.1,0.9,0.3c0.2,0.2,0.3,0.5,0.3,0.8v0.5c-0.2-0.1-0.4-0.2-0.6-0.2       c-0.3-0.1-0.5-0.1-0.8-0.1c-0.6,0-1,0.1-1.4,0.4c-0.4,0.3-0.5,0.7-0.5,1.1c0,0.5,0.2,0.9,0.5,1.2c0.3,0.3,0.8,0.4,1.3,0.4       c0.3,0,0.6-0.1,0.9-0.2c0.2-0.1,0.4-0.2,0.6-0.4v0.5h0.9v-3.4c0-0.6-0.2-1-0.5-1.4C85.6,12.1,85.1,12,84.5,12z M83.1,15.6       c0-0.2,0.1-0.4,0.3-0.6c0.2-0.2,0.5-0.2,0.9-0.2c0.3,0,0.5,0,0.7,0.1c0.2,0.1,0.4,0.1,0.6,0.2V16c-0.2,0.2-0.4,0.3-0.6,0.4       c-0.2,0.1-0.5,0.1-0.7,0.1c-0.3,0-0.6-0.1-0.8-0.2C83.2,16.1,83.1,15.9,83.1,15.6z"/>
					<path class="st0" d="M91.5,12.5c-0.2-0.2-0.4-0.3-0.6-0.4C90.7,12,90.4,12,90.1,12c-0.3,0-0.7,0.1-0.9,0.2       c-0.3,0.1-0.5,0.3-0.8,0.6c-0.2,0.2-0.4,0.5-0.5,0.8c-0.1,0.3-0.2,0.7-0.2,1c0,0.4,0.1,0.7,0.2,1c0.1,0.3,0.3,0.6,0.5,0.8       c0.2,0.2,0.5,0.4,0.8,0.6c0.3,0.1,0.6,0.2,0.9,0.2c0.3,0,0.6-0.1,0.9-0.2c0.2-0.1,0.4-0.2,0.6-0.4v0.5h0.9V9.6l-0.9,0.2V12.5z        M91,13c0.2,0.1,0.4,0.3,0.6,0.4v2.4c-0.1,0.2-0.3,0.3-0.5,0.4c-0.2,0.1-0.5,0.2-0.8,0.2c-0.5,0-0.9-0.2-1.2-0.5       c-0.3-0.3-0.5-0.8-0.5-1.3c0-0.5,0.2-0.9,0.5-1.3c0.3-0.3,0.7-0.5,1.2-0.5C90.5,12.8,90.7,12.9,91,13z"/>
					<path class="st0" d="M98.6,13.4c-0.1-0.1-0.3-0.2-0.4-0.3c-0.5-0.2-1-0.2-1.5,0c-0.2,0.1-0.4,0.3-0.6,0.4       c-0.2,0.2-0.3,0.4-0.4,0.7c-0.1,0.3-0.1,0.5-0.1,0.8c0,0.3,0,0.6,0.1,0.8c0.1,0.3,0.2,0.5,0.4,0.7c0.2,0.2,0.4,0.3,0.6,0.4       c0.2,0.1,0.5,0.2,0.8,0.2c0.3,0,0.5-0.1,0.7-0.2c0.2-0.1,0.3-0.2,0.4-0.3v0.4h0.8v-6.1l-0.8,0.2V13.4z M98.2,13.8       c0.2,0.1,0.3,0.2,0.4,0.3v1.9c-0.1,0.1-0.3,0.3-0.4,0.3c-0.2,0.1-0.4,0.1-0.6,0.1c-0.4,0-0.7-0.1-0.9-0.4       c-0.2-0.3-0.4-0.6-0.4-1c0-0.4,0.1-0.7,0.4-1c0.2-0.3,0.5-0.4,0.9-0.4C97.8,13.7,98,13.7,98.2,13.8z"/>
					<path class="st0" d="M104.2,15c0-0.3,0-0.6-0.1-0.8c-0.1-0.3-0.2-0.5-0.4-0.7c-0.2-0.2-0.4-0.3-0.6-0.4c-0.5-0.2-1.1-0.2-1.5,0       c-0.2,0.1-0.4,0.3-0.6,0.4c-0.2,0.2-0.3,0.4-0.4,0.7c-0.1,0.3-0.1,0.5-0.1,0.8c0,0.3,0.1,0.6,0.2,0.8c0.1,0.3,0.2,0.5,0.4,0.7       c0.2,0.2,0.4,0.3,0.7,0.5c0.3,0.1,0.5,0.2,0.8,0.2c0.3,0,0.6,0,0.8-0.1c0.2-0.1,0.5-0.2,0.7-0.4l0.1-0.1l-0.5-0.5l-0.1,0.1       c-0.1,0.1-0.3,0.2-0.5,0.3c-0.2,0.1-0.4,0.1-0.6,0.1c-0.4,0-0.6-0.1-0.9-0.4c-0.2-0.2-0.4-0.5-0.4-0.8h3.1V15z M101.1,14.7       c0.1-0.3,0.2-0.5,0.4-0.7c0.2-0.2,0.5-0.3,0.8-0.3c0.3,0,0.6,0.1,0.8,0.3c0.2,0.2,0.3,0.4,0.4,0.7H101.1z"/>
				</g>
				<path class="st0" d="M107.3,10h1.6l3.1,4.3l0-4.3h1.6v7.1h-1.5l-3.2-4.4l0,4.4h-1.6V10z"/>
				<path class="st0" d="M116.7,17.1c-0.5,0-1-0.1-1.3-0.4c-0.3-0.3-0.5-0.7-0.5-1.1c0-0.5,0.2-0.8,0.5-1.1c0.4-0.3,0.9-0.4,1.5-0.4      c0.2,0,0.4,0,0.6,0.1c0.2,0,0.4,0.1,0.6,0.2v-0.4c0-0.2-0.1-0.4-0.3-0.6c-0.2-0.1-0.4-0.2-0.8-0.2c-0.2,0-0.4,0-0.7,0.1      c-0.2,0.1-0.5,0.1-0.8,0.3l-0.6-1.1c0.4-0.2,0.8-0.3,1.2-0.4c0.4-0.1,0.8-0.1,1.2-0.1c0.7,0,1.3,0.2,1.7,0.5      c0.4,0.3,0.6,0.8,0.6,1.4v3.3h-1.6v-0.5c-0.2,0.2-0.5,0.3-0.7,0.4C117.2,17.1,117,17.1,116.7,17.1z M116.4,15.5      c0,0.2,0.1,0.3,0.2,0.4c0.1,0.1,0.3,0.1,0.6,0.1c0.2,0,0.3,0,0.5-0.1c0.2,0,0.3-0.1,0.4-0.2v-0.7c-0.1,0-0.3-0.1-0.4-0.1      c-0.2,0-0.3,0-0.4,0c-0.3,0-0.5,0-0.6,0.1C116.5,15.2,116.4,15.4,116.4,15.5z"/>
				<path class="st0" d="M121.1,17.1v-5.2h1.6V13c0.2-0.4,0.4-0.8,0.6-1c0.2-0.2,0.5-0.3,0.8-0.3c0.1,0,0.2,0,0.3,0      c0.1,0,0.2,0,0.3,0.1v1.4c-0.1,0-0.2-0.1-0.4-0.1c-0.1,0-0.3,0-0.4,0c-0.2,0-0.5,0.1-0.7,0.2c-0.2,0.1-0.4,0.3-0.5,0.5v3.3      H121.1z"/>
				<path class="st0" d="M126.4,11c-0.3,0-0.5-0.1-0.7-0.3c-0.2-0.2-0.3-0.4-0.3-0.6c0-0.2,0.1-0.5,0.3-0.6c0.2-0.2,0.4-0.3,0.6-0.3      c0.2,0,0.5,0.1,0.7,0.3c0.2,0.2,0.3,0.4,0.3,0.6c0,0.2-0.1,0.5-0.3,0.6C126.9,10.9,126.7,11,126.4,11z M127.2,11.8v5.2h-1.6      v-5.2H127.2z"/>
				<path class="st0" d="M128.6,17.1v-5.2h1.6v0.8c0.2-0.3,0.4-0.5,0.7-0.7c0.3-0.2,0.6-0.2,0.9-0.2c0.5,0,0.9,0.2,1.2,0.5      c0.3,0.3,0.5,0.8,0.5,1.3v3.5H132v-3c0-0.3-0.1-0.5-0.2-0.7c-0.2-0.2-0.4-0.3-0.6-0.3c-0.2,0-0.3,0-0.5,0.1      c-0.1,0.1-0.3,0.2-0.4,0.3v3.6H128.6z M129.9,11.1l-0.9-0.2c0.1-0.5,0.3-0.8,0.5-1.1c0.2-0.2,0.5-0.4,0.8-0.4      c0.1,0,0.3,0,0.4,0.1c0.1,0.1,0.3,0.1,0.4,0.2c0.1,0.1,0.3,0.1,0.4,0.2c0.1,0.1,0.2,0.1,0.3,0.1c0.1,0,0.2,0,0.2-0.1      c0.1-0.1,0.1-0.3,0.2-0.5l0.9,0.2c-0.1,0.5-0.3,0.8-0.5,1.1c-0.2,0.2-0.5,0.4-0.8,0.4c-0.1,0-0.3,0-0.4-0.1      c-0.1-0.1-0.3-0.1-0.4-0.2c-0.1-0.1-0.3-0.1-0.4-0.2c-0.1-0.1-0.2-0.1-0.3-0.1c-0.1,0-0.2,0-0.3,0.1      C130,10.7,129.9,10.8,129.9,11.1z"/>
				<path class="st0" d="M134.7,14.5c0-0.4,0.1-0.7,0.2-1.1c0.1-0.3,0.3-0.6,0.6-0.9c0.2-0.2,0.5-0.4,0.9-0.6      c0.3-0.1,0.7-0.2,1.1-0.2c0.4,0,0.7,0.1,1.1,0.2c0.3,0.1,0.6,0.3,0.9,0.6c0.2,0.2,0.4,0.5,0.6,0.9c0.1,0.3,0.2,0.7,0.2,1.1      c0,0.4-0.1,0.7-0.2,1.1c-0.1,0.3-0.3,0.6-0.6,0.9c-0.2,0.2-0.5,0.4-0.9,0.6c-0.3,0.1-0.7,0.2-1.1,0.2c-0.4,0-0.7-0.1-1.1-0.2      c-0.3-0.1-0.6-0.3-0.9-0.6c-0.2-0.2-0.4-0.5-0.6-0.9C134.7,15.2,134.7,14.8,134.7,14.5z M137.4,15.8c0.3,0,0.6-0.1,0.8-0.4      c0.2-0.2,0.3-0.6,0.3-0.9c0-0.4-0.1-0.7-0.3-1c-0.2-0.3-0.5-0.4-0.8-0.4c-0.3,0-0.6,0.1-0.8,0.4c-0.2,0.3-0.3,0.6-0.3,1      c0,0.4,0.1,0.7,0.3,0.9C136.8,15.6,137.1,15.8,137.4,15.8z"/>
			</g>
			<g>
				<g>
					<path class="st0" d="M40,24.4v-4h2.9v0.6h-2.2v1.1h1.5v0.6h-1.5v1.7H40z"/>
					<path class="st0" d="M48.2,22.6c0,0.3,0,0.5-0.1,0.7c-0.1,0.2-0.2,0.4-0.3,0.6c-0.1,0.2-0.3,0.3-0.5,0.4       c-0.2,0.1-0.4,0.1-0.7,0.1c-0.5,0-0.9-0.2-1.2-0.5c-0.3-0.3-0.5-0.7-0.5-1.3v-2.3h0.7v2.3c0,0.4,0.1,0.6,0.3,0.8       c0.2,0.2,0.4,0.3,0.7,0.3c0.3,0,0.5-0.1,0.7-0.3c0.2-0.2,0.3-0.5,0.3-0.8v-2.3h0.7V22.6z"/>
					<path class="st0" d="M50.4,20.4h0.7l2.1,2.9l0-2.9h0.6v4h-0.6l-2.1-3l0,3h-0.6V20.4z"/>
					<path class="st0" d="M56.1,24.4v-4h1.5c0.3,0,0.6,0.1,0.8,0.2c0.2,0.1,0.5,0.2,0.6,0.4c0.2,0.2,0.3,0.4,0.4,0.6       c0.1,0.2,0.2,0.5,0.2,0.8c0,0.3-0.1,0.5-0.2,0.8c-0.1,0.2-0.2,0.5-0.4,0.6c-0.2,0.2-0.4,0.3-0.6,0.4c-0.2,0.1-0.5,0.2-0.8,0.2       H56.1z M57.5,21h-0.8v2.8h0.8c0.2,0,0.3,0,0.5-0.1c0.2-0.1,0.3-0.2,0.4-0.3c0.1-0.1,0.2-0.3,0.3-0.4c0.1-0.2,0.1-0.4,0.1-0.6       c0-0.2,0-0.4-0.1-0.6c-0.1-0.2-0.2-0.3-0.3-0.4c-0.1-0.1-0.2-0.2-0.4-0.3C57.9,21,57.7,21,57.5,21z"/>
					<path class="st0" d="M61.1,24.4l1.6-4h0.8l1.5,4h-0.7l-0.4-1.1h-1.6l-0.4,1.1H61.1z M62.5,22.7h1.2L63.1,21L62.5,22.7z"/>
					<path class="st0" d="M66.9,24.4v-4h1.5c0.3,0,0.6,0.1,0.8,0.2c0.2,0.1,0.5,0.2,0.6,0.4c0.2,0.2,0.3,0.4,0.4,0.6       c0.1,0.2,0.2,0.5,0.2,0.8c0,0.3-0.1,0.5-0.2,0.8c-0.1,0.2-0.2,0.5-0.4,0.6c-0.2,0.2-0.4,0.3-0.6,0.4c-0.2,0.1-0.5,0.2-0.8,0.2       H66.9z M68.3,21h-0.8v2.8h0.8c0.2,0,0.3,0,0.5-0.1c0.2-0.1,0.3-0.2,0.4-0.3c0.1-0.1,0.2-0.3,0.3-0.4c0.1-0.2,0.1-0.4,0.1-0.6       c0-0.2,0-0.4-0.1-0.6c-0.1-0.2-0.2-0.3-0.3-0.4c-0.1-0.1-0.2-0.2-0.4-0.3C68.7,21,68.5,21,68.3,21z"/>
					<path class="st0" d="M71.9,24.4l1.6-4h0.8l1.5,4h-0.7l-0.4-1.1h-1.6l-0.4,1.1H71.9z M73.3,22.7h1.2L73.9,21L73.3,22.7z"/>
					<path class="st0" d="M80.2,24.4v-4h2.9v0.6h-2.2v1.1h1.5v0.6h-1.5v1.1h2.2v0.6H80.2z"/>
					<path class="st0" d="M85.2,20.4h0.7l2.1,2.9l0-2.9h0.6v4H88l-2.1-3l0,3h-0.6V20.4z"/>
					<path class="st0" d="M94.8,20.4v4h-0.9v-3.1l-0.8,0.3v-0.8l1.1-0.5H94.8z"/>
					<path class="st0" d="M98,20.3c0.3,0,0.5,0,0.7,0.1c0.2,0.1,0.4,0.2,0.6,0.4c0.2,0.2,0.3,0.4,0.4,0.6c0.1,0.2,0.1,0.5,0.1,0.8       c0,0.3,0,0.6-0.1,0.9c-0.1,0.3-0.2,0.5-0.4,0.7c-0.2,0.2-0.4,0.3-0.6,0.4c-0.2,0.1-0.5,0.2-0.8,0.2c-0.2,0-0.4,0-0.7-0.1       c-0.2-0.1-0.4-0.2-0.5-0.3l0.5-0.6c0.1,0.1,0.2,0.2,0.4,0.2c0.1,0,0.3,0.1,0.4,0.1c0.3,0,0.6-0.1,0.7-0.4       c0.2-0.2,0.3-0.6,0.3-1c-0.1,0.2-0.3,0.3-0.5,0.4c-0.2,0.1-0.4,0.1-0.6,0.1c-0.2,0-0.4,0-0.5-0.1c-0.2-0.1-0.3-0.1-0.4-0.2       c-0.1-0.1-0.2-0.2-0.3-0.4c-0.1-0.2-0.1-0.3-0.1-0.5c0-0.2,0-0.4,0.1-0.5c0.1-0.2,0.2-0.3,0.3-0.4c0.1-0.1,0.3-0.2,0.5-0.3       C97.6,20.3,97.8,20.3,98,20.3z M98,22.1c0.2,0,0.3,0,0.5-0.1c0.1-0.1,0.3-0.1,0.4-0.3c-0.1-0.2-0.2-0.4-0.3-0.5       c-0.1-0.1-0.3-0.2-0.5-0.2c-0.2,0-0.3,0.1-0.5,0.2c-0.1,0.1-0.2,0.2-0.2,0.4c0,0.2,0.1,0.3,0.2,0.4       C97.7,22.1,97.9,22.1,98,22.1z"/>
					<path class="st0" d="M103.2,24.4c-0.3,0-0.5,0-0.7-0.1c-0.2-0.1-0.4-0.2-0.5-0.4c-0.2-0.2-0.3-0.4-0.3-0.7       c-0.1-0.3-0.1-0.5-0.1-0.8c0-0.3,0-0.6,0.1-0.8c0.1-0.3,0.2-0.5,0.4-0.6c0.2-0.2,0.3-0.3,0.5-0.4c0.2-0.1,0.4-0.1,0.7-0.1       c0.3,0,0.5,0,0.7,0.1c0.2,0.1,0.4,0.2,0.5,0.4c0.2,0.2,0.3,0.4,0.4,0.6c0.1,0.3,0.1,0.5,0.1,0.8c0,0.3,0,0.6-0.1,0.8       c-0.1,0.3-0.2,0.5-0.3,0.7c-0.2,0.2-0.3,0.3-0.5,0.4C103.7,24.4,103.5,24.4,103.2,24.4z M103.2,23.6c0.3,0,0.5-0.1,0.6-0.3       c0.2-0.2,0.2-0.5,0.2-0.9c0-0.4-0.1-0.7-0.2-0.9c-0.2-0.2-0.4-0.3-0.6-0.3c-0.3,0-0.5,0.1-0.6,0.3c-0.2,0.2-0.2,0.5-0.2,0.9       c0,0.4,0.1,0.7,0.2,0.9C102.8,23.5,103,23.6,103.2,23.6z"/>
					<path class="st0" d="M109.7,20.4v2.4h0.5v0.7h-0.5v0.9h-0.9v-0.9h-2.1v-0.7l2-2.4H109.7z M107.6,22.7h1.2v-1.5L107.6,22.7z"/>
				</g>
			</g>
		</g>
	</g>
	<rect class="st1" width="212.5" height="51.4"/>
</g>
</svg>