<?xml version="1.0" encoding="UTF-8" standalone="no"?>
<!-- Created with Inkscape (http://www.inkscape.org/) -->

<svg
   width="23.02387mm"
   height="16.940598mm"
   viewBox="0 0 23.02387 16.940598"
   version="1.1"
   id="svg38411"
   inkscape:version="1.1.1 (eb90963e84, 2021-10-02)"
   sodipodi:docname="logo-facea.svg"
   xmlns:inkscape="http://www.inkscape.org/namespaces/inkscape"
   xmlns:sodipodi="http://sodipodi.sourceforge.net/DTD/sodipodi-0.dtd"
   xmlns="http://www.w3.org/2000/svg"
   xmlns:svg="http://www.w3.org/2000/svg">
  <sodipodi:namedview
     id="namedview38413"
     pagecolor="#ffffff"
     bordercolor="#666666"
     borderopacity="1.0"
     inkscape:pageshadow="2"
     inkscape:pageopacity="0.0"
     inkscape:pagecheckerboard="0"
     inkscape:document-units="mm"
     showgrid="false"
     inkscape:zoom="0.66279461"
     inkscape:cx="207.45491"
     inkscape:cy="112.40284"
     inkscape:window-width="1280"
     inkscape:window-height="916"
     inkscape:window-x="0"
     inkscape:window-y="27"
     inkscape:window-maximized="1"
     inkscape:current-layer="layer1" />
  <defs
     id="defs38408" />
  <g
     inkscape:label="Capa 1"
     inkscape:groupmode="layer"
     id="layer1"
     transform="translate(-197.26647,-118.87241)">
    <path
       style="fill:#ffffff;stroke-width:0.072625"
       d="m 208.60675,135.75259 c -1.35048,-0.31106 -2.14056,-1.7448 -2.01821,-3.66243 0.0979,-1.53428 0.62439,-2.55152 1.58657,-3.06526 0.30028,-0.16034 0.38711,-0.16739 2.32728,-0.18892 l 2.01533,-0.0224 v 0.6878 0.6878 l -1.50696,0.0245 c -1.4087,0.0229 -1.52961,0.0356 -1.85391,0.19534 -0.37224,0.18329 -0.63416,0.47433 -0.81378,0.90429 l -0.11218,0.26843 h 2.14341 2.14342 v 0.72625 0.72626 h -2.14733 -2.14734 l 0.0495,0.1634 c 0.0874,0.28851 0.33046,0.63346 0.58121,0.82471 0.43722,0.33349 0.8301,0.40607 1.90061,0.35113 0.52805,-0.0271 1.14083,-0.0267 1.36173,7.9e-4 l 0.40161,0.0502 v 0.68224 0.68224 l -1.78668,0.0206 c -1.08881,0.0126 -1.91855,-0.01 -2.12429,-0.0571 z m -11.34028,-8.41937 v -8.46081 h 4.43013 4.43013 v 0.72204 0.72204 l -2.01535,0.0224 -2.01534,0.0224 -0.38896,0.21543 c -0.669,0.37055 -1.0781,1.02037 -1.29196,2.05214 -0.28874,1.39306 0.13417,2.92851 0.97465,3.53854 0.58002,0.421 0.91995,0.47595 2.94425,0.47595 h 1.79271 v 0.72625 0.72625 l -1.94273,6.1e-4 c -2.70552,7.1e-4 -3.14928,0.0914 -3.89302,0.79476 -0.75351,0.71263 -1.15531,1.85989 -1.15856,3.30801 -0.003,1.48798 0.34025,2.46963 1.11577,3.18763 l 0.43993,0.40727 h -1.71083 -1.71082 z m 4.60127,8.23696 c -0.81987,-0.3153 -1.44434,-1.18234 -1.6256,-2.2571 -0.12341,-0.73157 -0.0551,-1.99456 0.14144,-2.61543 0.18936,-0.5982 0.59844,-1.21834 0.99637,-1.51045 0.58838,-0.43194 0.75779,-0.46177 2.80405,-0.49379 l 1.87011,-0.0293 v 0.73257 0.73257 h -1.34774 c -0.74239,0 -1.49071,0.036 -1.66611,0.0802 -0.38393,0.0967 -0.86156,0.48839 -1.05296,0.86356 -0.44691,0.87599 -0.28795,2.18024 0.33811,2.77444 0.42262,0.4011 0.6441,0.4424 2.29434,0.42782 l 1.50698,-0.0133 v 0.72972 0.72972 l -1.94273,-0.004 c -1.75572,-0.003 -1.97868,-0.0176 -2.31626,-0.14744 z m 12.57157,-0.0933 c -0.69789,-0.32498 -0.99984,-0.86241 -1.00508,-1.78898 -0.004,-0.71436 0.14013,-1.11694 0.5429,-1.51584 0.49917,-0.49436 0.60622,-0.51429 2.77101,-0.51607 2.13265,-0.002 2.06703,0.0137 1.83568,-0.43366 -0.171,-0.33068 -0.66141,-0.70032 -1.1113,-0.83767 -0.3234,-0.0987 -0.78264,-0.13501 -2.06796,-0.16339 l -1.65222,-0.0365 v -0.68138 -0.68139 l 2.30585,0.002 c 2.11717,10e-4 2.331,0.013 2.61318,0.14111 0.44434,0.20171 0.98015,0.73505 1.20997,1.2044 0.34933,0.7134 0.40462,1.18023 0.406,3.42799 l 0.003,2.05165 -2.74158,-7.9e-4 c -2.72373,-7.9e-4 -2.74399,-0.002 -3.10769,-0.17119 z m 4.17891,-1.74151 v -0.67878 l -0.88289,-0.0475 c -0.48562,-0.0261 -1.15885,-0.0475 -1.49609,-0.0475 -0.6005,0 -0.61828,0.005 -0.86011,0.24692 -0.26535,0.26537 -0.32181,0.56612 -0.16242,0.86538 0.17184,0.32267 0.24222,0.33547 1.85822,0.33789 l 1.54329,0.002 z m -16.61528,-8.22963 c -0.7062,-0.34807 -0.86945,-1.51447 -0.30237,-2.16034 0.3841,-0.43746 0.6468,-0.49352 2.04076,-0.43554 1.09791,0.0457 1.22338,0.0389 1.22338,-0.0662 0,-0.1575 -0.4178,-0.62471 -0.64913,-0.72586 -0.10231,-0.0448 -0.75798,-0.0988 -1.45698,-0.1201 l -1.27095,-0.0387 -0.0214,-0.49022 -0.0214,-0.49022 h 1.58966 c 1.52379,0 1.6029,0.007 1.90971,0.16894 0.36365,0.19192 0.74494,0.65009 0.87331,1.04936 0.0517,0.16086 0.0995,0.91081 0.11798,1.85011 l 0.031,1.57959 -1.91254,-0.002 c -1.61285,-0.001 -1.9499,-0.0201 -2.1509,-0.11912 z m 2.88917,-1.1395 v -0.4614 l -0.55565,-0.047 c -1.00812,-0.0852 -1.36697,-0.0617 -1.577,0.10355 -0.23413,0.18416 -0.25508,0.512 -0.0461,0.72098 0.13142,0.13141 0.2421,0.14525 1.162,0.14525 h 1.01677 z"
       id="path29129" />
  </g>
</svg>
