<svg xmlns="http://www.w3.org/2000/svg">
<defs>
<font
   id="FontID3"
   horiz-adv-x="666"
   font-variant="normal"
   style="fill-rule:nonzero"
   font-style="normal"
   font-weight="400"
   horiz-origin-x="0"
   horiz-origin-y="0"
   vert-origin-x="512"
   vert-origin-y="768"
   vert-adv-y="1024">
	<font-face
   font-family="Arial"
   id="font-face2">
		<font-face-src>
			<font-face-name
   name="Arial" />
		</font-face-src>
	</font-face>
   <missing-glyph
   id="missing-glyph6"><path
     d="M0 0z"
     id="path4" /></missing-glyph>
   <glyph
   unicode="0"
   horiz-adv-x="556"
   d="M42.0003 353.341c0,84.4967 8.66936,152.836 26.0081,204.498 17.4805,51.8272 43.3232,91.6543 77.6699,119.505 34.1577,27.827 77.3156,41.646 129.332,41.646 38.3153,0 72.0006,-7.6536 101.15,-23.1498 29.0081,-15.4962 53.0083,-37.8428 71.6699,-67.0163 18.6616,-28.9845 33.331,-64.4887 44.0082,-106.324 10.819,-41.835 16.1576,-98.3394 16.1576,-169.159 0,-84.0007 -8.66936,-152.009 -25.8191,-203.671 -17.1734,-51.8272 -43.0161,-91.6779 -77.3392,-119.67 -34.1814,-27.9923 -77.5045,-42.0003 -129.828,-42.0003 -68.8352,0 -123.001,24.4963 -162.332,73.6777 -47.1736,60.0005 -70.6777,157.159 -70.6777,291.664zm90.0007 -0.330711c0,-117.851 13.6773,-196.183 41.1736,-234.852 27.4963,-38.835 61.4887,-58.1579 101.835,-58.1579 40.3232,0 74.3155,19.4883 101.812,58.3233 27.5199,39.0003 41.1736,117.166 41.1736,234.687 0,117.828 -13.6537,196.159 -41.1736,234.829 -27.3309,38.835 -61.654,58.1579 -102.828,58.1579 -40.3232,0 -72.662,-17.1734 -96.8275,-51.3311 -30.1656,-43.4885 -45.1657,-124.158 -45.1657,-241.655z"
   id="glyph8" />
   <glyph
   unicode="c"
   horiz-adv-x="500"
   d="M405.003 189.994l86.0086 -12.0001c-9.51976,-59.1501 -33.5199,-105.332 -72.3549,-138.828 -38.835,-33.4963 -86.6464,-50.1736 -143.151,-50.1736 -70.8431,0 -127.844,23.1734 -170.836,69.4966 -43.1814,46.3468 -64.6777,112.678 -64.6777,199.017 0,55.9847 9.33078,104.835 27.8506,146.836 18.4962,41.835 46.6539,73.3234 84.6621,94.1582 37.8192,21.0002 78.9927,31.4884 123.662,31.4884 56.1737,0 102.332,-14.1497 138.001,-42.6618 35.8349,-28.4884 58.843,-69.0005 68.8352,-121.324l-84.9928 -12.9922c-8.17329,34.8192 -22.512,60.9926 -43.3468,78.662 -20.6695,17.5041 -45.6618,26.3388 -75.0006,26.3388 -44.3389,0 -80.3392,-15.8505 -108.166,-47.5043 -27.6616,-31.8428 -41.5043,-81.851 -41.5043,-150.497 0,-69.6856 13.3466,-120.166 40.0161,-151.678 26.8349,-31.4884 61.654,-47.339 104.481,-47.339 34.6774,0 63.5202,10.5119 86.5046,31.6774 23.1734,21.0002 37.8428,53.5044 44.0082,97.3236z"
   id="glyph10" />
   <glyph
   unicode="t"
   horiz-adv-x="277"
   d="M257.01 78.4967l12.0001 -77.6699c-24.6852,-5.14965 -46.8429,-7.81896 -66.1659,-7.81896 -31.8428,0 -56.5044,4.98429 -74.1738,15.1655 -17.5041,10.1576 -29.8349,23.3151 -36.9924,39.8271 -7.18116,16.4883 -10.6772,51.1658 -10.6772,104.009l0 298.987 -65.0084 0 0 68.0084 65.0084 0 0 128.34 87.9928 52.8193 0 -181.159 88.0164 0 0 -68.0084 -88.0164 0 0 -303.995c0,-25.1577 1.51182,-41.3389 4.6772,-48.4964 3.00002,-7.18116 7.98431,-12.8269 15.0001,-17.1734 6.99218,-4.15751 16.9844,-6.33076 30.0002,-6.33076 9.66149,0 22.4884,1.15749 38.3389,3.49609z"
   id="glyph12" />
   <glyph
   unicode="O"
   horiz-adv-x="777"
   d="M48.0004 348.499c0,118.678 32.0081,211.679 95.8354,278.837 63.8273,67.158 146.174,100.654 247.159,100.654 66.1659,0 125.67,-15.8269 178.844,-47.3153 52.9847,-31.5121 93.4968,-75.4967 121.324,-132.001 27.827,-56.339 41.835,-120.332 41.835,-191.836 0,-72.4966 -14.6694,-137.505 -44.0082,-194.671 -29.3152,-57.3312 -70.8195,-100.678 -124.489,-129.993 -53.8351,-29.5042 -111.828,-44.1736 -174.001,-44.1736 -67.4887,0 -127.655,16.323 -180.828,48.8272 -53.0083,32.5042 -93.3314,76.8431 -120.662,133.182 -27.3309,56.15 -41.0082,115.654 -41.0082,178.49zm98.0086 -1.67718c0,-86.1503 23.1498,-153.993 69.4966,-203.482 46.3232,-49.5122 104.505,-74.3392 174.497,-74.3392 71.3391,0 129.828,24.9923 175.986,75.0006 46.0161,50.0083 69.0005,120.993 69.0005,213.002 0,58.1579 -9.82685,108.993 -29.4805,152.34 -19.6773,43.3232 -48.5201,76.9849 -86.3393,100.82 -38.0082,23.8348 -80.5046,35.8349 -127.678,35.8349 -66.9927,0 -124.655,-23.0081 -172.986,-69.0005 -48.3311,-45.9925 -72.4966,-122.67 -72.4966,-230.175z"
   id="glyph14" />
   <glyph
   unicode="n"
   horiz-adv-x="556"
   d="M66.0005 0l0 519.004 78.9927 0 0 -73.6777c38.0082,56.5044 93.0007,84.6621 164.836,84.6621 31.3467,0 60.0005,-5.64571 86.1739,-16.819 26.1734,-11.1733 45.8271,-26.0081 58.8194,-44.1736 13.0159,-18.1655 22.1813,-39.8271 27.3545,-64.8194 3.16538,-16.3466 4.81894,-44.835 4.81894,-85.5125l0 -318.664 -87.9928 0 0 315.333c0,35.8349 -3.33073,62.6698 -10.1812,80.3392 -6.82683,17.6694 -18.9923,31.8191 -36.331,42.4964 -17.3151,10.4883 -37.8192,15.8269 -61.158,15.8269 -37.3231,0 -69.4966,-11.8347 -96.6622,-35.6696 -27.1656,-23.6695 -40.6775,-68.8352 -40.6775,-135.166l0 -283.16 -87.9928 0z"
   id="glyph16" />
   <glyph
   unicode="|"
   horiz-adv-x="259"
   d="M92.0086 -210.002l0 937.992 76.9849 0 0 -937.992 -76.9849 0z"
   id="glyph18" />
   <glyph
   unicode="h"
   horiz-adv-x="556"
   d="M66.0005 0l0 715.99 87.9928 0 0 -257.648c40.8428,47.835 92.3393,71.6462 154.678,71.6462 38.1499,0 71.3391,-7.48825 99.6622,-22.6537 28.1577,-15.1655 48.3311,-36.0003 60.4965,-62.6698 12.1655,-26.6695 18.1655,-65.5045 18.1655,-116.174l0 -328.491 -87.9928 0 0 328.16c0,43.8429 -9.49614,75.851 -28.3467,95.8354 -18.9923,20.008 -45.6618,30.0002 -80.3156,30.0002 -25.8427,0 -50.1736,-6.66147 -73.0163,-20.1734 -22.8191,-13.4883 -39.0003,-31.8191 -48.8272,-54.9926 -9.66149,-23.0081 -14.5041,-54.8272 -14.5041,-95.5047l0 -283.325 -87.9928 0z"
   id="glyph20" />
   <glyph
   unicode="F"
   horiz-adv-x="610"
   d="M81.9928 0l0 715.99 483.004 0 0 -84.0007 -387.995 0 0 -222.994 336.003 0 0 -84.0007 -336.003 0 0 -324.995 -95.0086 0z"
   id="glyph22" />
   <glyph
   unicode="2"
   horiz-adv-x="556"
   d="M502.988 84.0007l0 -84.0007 -473.98 0c-0.685045,21.1655 2.83467,41.5043 10.3229,61.158 12.1655,32.1735 31.6774,64.0163 58.5123,95.174 26.8349,31.1577 65.1501,67.158 114.993,108.001 77.5045,63.8273 130.159,114.332 157.655,151.678 27.6853,37.3231 41.5043,72.662 41.5043,105.993 0,34.8192 -12.4962,64.158 -37.4885,88.1582 -25.0159,23.8348 -57.6619,35.8349 -97.8433,35.8349 -42.4964,0 -76.4888,-12.6615 -102.001,-38.0082 -25.4884,-25.1577 -38.3389,-60.1658 -38.6696,-105.001l-90.0007 9.00007c6.1654,67.347 29.5042,118.678 69.8509,154.017 40.4885,35.3389 94.6543,52.9847 162.828,52.9847 68.6698,0 123.166,-18.9923 163.159,-57.1658 40.1814,-38.1499 60.1658,-85.4889 60.1658,-141.828 0,-28.6538 -5.83469,-56.8351 -17.6694,-84.4967 -11.6694,-27.827 -31.1577,-57.0004 -58.3233,-87.6621 -27.3309,-30.4963 -72.4966,-72.662 -135.497,-126.001 -52.8429,-44.3389 -86.8353,-74.3392 -101.835,-90.1661 -15.0001,-15.8269 -27.3309,-31.6774 -37.1814,-47.6697l351.499 0z"
   id="glyph24" />
   <glyph
   unicode="v"
   horiz-adv-x="500"
   d="M207.828 0l-195.828 519.004 94.1582 0 111.001 -310.845c12.0001,-33.4963 23.1734,-68.3155 33.331,-104.481 7.84258,27.3309 18.6852,60.1658 32.8349,98.6464l115.347 316.68 90.3314 0 -196.513 -519.004 -84.6621 0z"
   id="glyph26" />
   <glyph
   unicode="e"
   horiz-adv-x="556"
   d="M420.003 168.001l90.9928 -12.0001c-14.1733,-52.8429 -40.6539,-93.9929 -79.3235,-123.166 -38.6696,-29.1735 -88.0164,-43.8429 -148.182,-43.8429 -75.662,0 -135.662,23.3388 -180.001,70.0163 -44.3153,46.4886 -66.4966,111.993 -66.4966,196.159 0,87.0007 22.3466,154.655 67.1816,202.655 44.835,48.1657 102.993,72.1659 174.497,72.1659 69.1659,0 125.67,-23.4805 169.49,-70.6541 43.8429,-47.1736 65.8352,-113.505 65.8352,-198.994 0,-5.17327 -0.165356,-13.0159 -0.496067,-23.3388l-386.507 0c3.33073,-56.8351 19.3466,-100.513 48.3311,-130.678 28.8427,-30.1656 65.0084,-45.3311 108.166,-45.3311 32.1735,0 59.6698,8.504 82.3471,25.512 22.8191,16.9844 40.8192,44.1736 54.1658,81.4967zm-288.002 141.001l288.994 0c-3.8268,43.6539 -15.0001,76.3234 -33.1656,98.174 -27.827,33.827 -64.158,50.835 -108.662,50.835 -40.3232,0 -74.1738,-13.5119 -101.67,-40.5121 -27.3309,-27.0002 -42.4964,-63.1659 -45.4964,-108.497z"
   id="glyph28" />
   <glyph
   unicode="T"
   horiz-adv-x="610"
   d="M258.994 0l0 631.989 -235.986 0 0 84.0007 566.981 0 0 -84.0007 -235.986 0 0 -631.989 -95.0086 0z"
   id="glyph30" />
   <glyph
   unicode="s"
   horiz-adv-x="500"
   d="M30.9924 155.009l87.0007 13.9844c4.84256,-34.8192 18.4962,-61.4887 40.8428,-80.1502 22.323,-18.5198 53.6697,-27.8506 93.6622,-27.8506 40.5121,0 70.5124,8.17329 90.1661,24.6852 19.512,16.323 29.3388,35.6459 29.3388,57.8272 0,19.8191 -8.83472,35.5042 -26.3388,46.8193 -12.3308,7.84258 -42.331,17.6694 -90.0007,29.8349 -64.3233,16.1812 -108.828,30.1656 -133.82,42.0003 -24.8506,12.0001 -43.6775,28.3467 -56.5044,49.3468 -12.8505,20.8348 -19.3466,43.9846 -19.3466,69.3313 0,23.1734 5.33862,44.5043 15.8505,64.158 10.6536,19.6773 24.9923,36.0003 43.1578,49.0161 13.6773,9.9922 32.3388,18.4962 55.843,25.4884 23.6459,6.99218 48.8272,10.4883 75.8274,10.4883 40.6539,0 76.3234,-5.81107 106.985,-17.6458 30.8506,-11.6694 53.5044,-27.6853 68.1738,-47.6697 14.5041,-20.1734 24.6616,-47.0082 30.1656,-80.6699l-85.9849 -12.0001c-3.85042,27.0002 -15.1891,48.1657 -33.8507,63.3312 -18.6616,15.1655 -45.0004,22.6773 -79.1581,22.6773 -40.1578,0 -69.0005,-6.68509 -86.1739,-20.008 -17.1497,-13.3466 -25.8191,-29.0081 -25.8191,-46.8429 0,-11.3387 3.49609,-21.6616 10.6536,-30.827 7.18116,-9.33078 18.3309,-17.1734 33.6617,-23.3388 8.83472,-3.33073 34.5121,-10.819 77.5045,-22.4884 62.0084,-16.5119 105.332,-30.1656 129.993,-40.6775 24.6852,-10.4883 44.0082,-25.9845 58.0162,-45.9925 14.1733,-20.1734 21.1655,-45.1657 21.1655,-75.1659 0,-29.1735 -8.504,-56.6697 -25.6774,-82.5125 -17.1497,-25.8191 -41.835,-45.8271 -73.9848,-60.0005 -32.3388,-14.1497 -68.8352,-21.1655 -109.513,-21.1655 -67.3234,0 -118.82,14.008 -154.159,41.835 -35.3389,28.016 -57.8272,69.3313 -67.6777,124.182z"
   id="glyph32" />
   <glyph
   unicode="d"
   horiz-adv-x="556"
   d="M401.011 0l0 65.8352c-32.8349,-51.1658 -81.166,-76.8431 -145.017,-76.8431 -41.3389,0 -79.3235,11.3387 -113.836,34.1814 -34.6538,22.6537 -61.4887,54.4965 -80.6699,95.1504 -18.9923,40.8428 -28.4884,87.6857 -28.4884,140.67 0,51.6618 8.66936,98.5047 25.8427,140.67 17.3151,42.0003 43.1578,74.3392 77.6463,96.6622 34.3467,22.512 73.0163,33.6617 115.513,33.6617 31.3231,0 59.1737,-6.66147 83.5046,-19.8191 24.3309,-13.1576 44.15,-30.4963 59.5044,-51.6618l0 257.482 87.9928 0 0 -715.99 -81.9928 0zm-278.01 258.829c0,-66.3312 14.008,-115.82 42.1657,-148.655 27.9923,-32.8349 61.158,-49.1815 99.3315,-49.1815 38.5042,0 71.1738,15.6852 98.174,47.0082 26.8349,31.3231 40.3232,79.1581 40.3232,143.505 0,70.6541 -13.6537,122.67 -41.1736,155.836 -27.3309,33.1656 -61.158,49.6539 -101.316,49.6539 -39.1657,0 -71.8352,-15.8269 -98.174,-47.6697 -26.1734,-31.8191 -39.331,-81.9928 -39.331,-150.497z"
   id="glyph34" />
   <glyph
   unicode="u"
   horiz-adv-x="556"
   d="M405.003 0l0 77.1738c-40.3468,-58.843 -95.0086,-88.1818 -164.175,-88.1818 -30.4963,0 -58.9847,5.83469 -85.4889,17.5041 -26.5041,11.8347 -46.1815,26.5041 -59.0083,44.1736 -12.8269,17.8348 -21.8269,39.4964 -27.0002,65.1737 -3.49609,17.3151 -5.33862,44.646 -5.33862,81.9928l0 321.168 88.0164 0 0 -287.175c0,-45.8271 1.81891,-76.8195 5.315,-92.67 5.50398,-23.1498 17.1734,-41.1499 35.1735,-54.3311 17.8348,-13.1576 39.8271,-19.8191 66.1659,-19.8191 26.3388,0 51.0004,6.66147 74.0085,20.1498 22.9844,13.5119 39.331,32.0081 48.9925,55.1815 9.49614,23.1498 14.3387,57.0004 14.3387,101.15l0 277.514 87.9928 0 0 -519.004 -78.9927 0z"
   id="glyph36" />
   <glyph
   unicode="S"
   horiz-adv-x="666"
   d="M45.9925 230.01l89.0086 7.98431c4.15751,-36.0003 14.008,-65.5045 29.5042,-88.6542 15.4962,-23.0081 39.4964,-41.6696 72.0006,-56.0083 32.5042,-14.1733 69.1659,-21.3309 109.82,-21.3309 36.1656,0 68.0084,5.33862 95.67,16.1576 27.6616,10.8426 48.1657,25.6774 61.6777,44.5043 13.4883,18.8269 20.3151,39.331 20.3151,61.3469 0,22.323 -6.49611,41.835 -19.4883,58.654 -12.9922,16.6773 -34.4885,30.6617 -64.4887,42.1657 -19.1813,7.34651 -61.6777,19.0159 -127.513,34.8428 -65.8352,15.8269 -111.828,30.6617 -138.166,44.6696 -34.1577,18.0001 -59.5044,40.3232 -76.1581,66.8273 -16.8427,26.5041 -25.1813,56.339 -25.1813,89.1739 0,36.331 10.3465,70.158 30.8506,101.481 20.4805,31.5121 50.3154,55.3469 89.8117,71.6699 39.3546,16.3466 83.1739,24.4963 131.34,24.4963 53.0083,0 99.8276,-8.48038 140.34,-25.6537 40.4885,-17.008 71.6699,-42.1657 93.4968,-75.4967 21.8269,-33.1656 33.4963,-70.8431 35.1735,-112.843l-91.0165 -6.99218c-4.81894,45.1657 -21.3309,79.3235 -49.4886,102.332 -28.1577,23.1734 -69.8273,34.6538 -124.844,34.6538 -57.3312,0 -99.1661,-10.4883 -125.316,-31.4884 -26.1734,-21.0002 -39.331,-46.3232 -39.331,-75.9927 0,-25.6774 9.33078,-46.8429 27.827,-63.4966 18.3309,-16.5119 65.8352,-33.6853 142.82,-51.0004 77.0085,-17.5041 129.851,-32.6695 158.505,-45.6854 41.5043,-19.1576 72.3313,-43.3232 92.174,-72.8273 19.8427,-29.3388 29.6695,-63.1659 29.6695,-101.505 0,-38.1499 -10.8426,-73.8195 -32.6695,-107.505 -21.8269,-33.6617 -53.0083,-59.8115 -93.8275,-78.4967 -40.8428,-18.6616 -86.67,-27.9923 -137.836,-27.9923 -64.6777,0 -118.843,9.49614 -162.497,28.3231 -43.8429,18.8505 -78.0006,47.1736 -102.851,85.1818 -24.9923,37.8192 -37.9846,80.6699 -39.331,128.505z"
   id="glyph38" />
   <glyph
   unicode=" "
   horiz-adv-x="277"
   d=""
   id="glyph40" />
   <glyph
   unicode="a"
   horiz-adv-x="556"
   d="M405.003 65.0084c-32.6695,-27.8506 -64.1816,-47.339 -94.3472,-58.843 -30.1656,-11.504 -62.4808,-17.1734 -97.1582,-17.1734 -57.0004,0 -100.82,13.8426 -131.505,41.6696 -30.6617,27.6616 -45.9925,63.1659 -45.9925,106.347 0,25.323 5.83469,48.4964 17.3387,69.4966 11.6694,21.0002 26.8349,37.6538 45.4964,50.339 18.8269,12.6615 39.8271,22.323 63.3312,28.8191 17.3387,4.51185 43.4885,8.83472 78.3313,13.1812 71.0084,8.31503 123.497,18.4962 156.993,30.1656 0.330711,12.0001 0.519689,19.6537 0.519689,22.8191 0,35.6696 -8.33865,60.8273 -25.0159,75.4967 -22.4884,19.8427 -55.9847,29.6695 -100.324,29.6695 -41.5043,0 -72.1659,-7.32289 -91.8432,-21.8269 -19.8191,-14.5041 -34.3231,-40.1578 -43.8192,-77.1738l-86.0086 12.0001c7.84258,36.8271 20.6695,66.6619 38.6696,89.3393 18.0001,22.6773 44.0082,39.9924 78.0006,52.3232 33.827,12.1655 73.3234,18.3309 117.993,18.3309 44.3389,0 80.5046,-5.14965 108.332,-15.6615 27.6616,-10.4883 48.1657,-23.5041 61.1816,-39.331 12.9922,-15.8269 22.1577,-35.8349 27.4963,-60.0005 2.83467,-15.0001 4.32287,-42.0003 4.32287,-80.8353l0 -116.67c0,-81.4967 1.84253,-132.993 5.50398,-154.82 3.49609,-21.8269 10.8426,-42.6618 21.4962,-62.6698l-91.985 0c-8.83472,18.4962 -14.5041,40.1578 -17.008,65.0084zm-6.99218 195.002c-32.0081,-13.0159 -80.0085,-24.0002 -144.001,-33.0003 -36.3546,-5.17327 -62.0084,-11.008 -77.0085,-17.5041 -15.0001,-6.49611 -26.5041,-16.0159 -34.6774,-28.3467 -8.14967,-12.4962 -12.3308,-26.3152 -12.3308,-41.6696 0,-23.1498 8.83472,-42.6618 26.6695,-58.1579 17.8348,-15.4962 43.8429,-23.3388 78.0006,-23.3388 33.827,0 63.9926,7.34651 90.4968,22.1813 26.3388,14.6694 45.8508,34.8192 58.1816,60.3312 9.49614,19.8191 14.1497,48.9925 14.1497,87.4968l0.519689 32.0081z"
   id="glyph42" />
   <glyph
   unicode="r"
   horiz-adv-x="333"
   d="M65.0084 0l0 519.004 78.9927 0 0 -79.5124c20.1734,36.8507 38.835,61.1816 56.0083,72.851 17.1497,11.8347 36.0003,17.6458 56.4808,17.6458 29.6695,0 59.8351,-9.33078 90.5204,-27.827l-31.3467 -81.166c-21.3309,12.0001 -42.6618,18.0001 -63.9926,18.0001 -19.1813,0 -36.331,-5.83469 -51.4965,-17.3387 -15.1655,-11.4804 -26.0081,-27.4963 -32.5042,-48.0004 -9.82685,-31.1577 -14.6694,-65.3155 -14.6694,-102.497l0 -271.16 -87.9928 0z"
   id="glyph44" />
   <glyph
   unicode="o"
   horiz-adv-x="556"
   d="M33.0003 259.49c0,95.8354 26.6695,166.844 80.1739,213.002 44.5043,38.3389 99.0008,57.4965 163.159,57.4965 71.1738,0 129.497,-23.3151 174.828,-69.9927 45.1657,-46.4886 67.8431,-111.001 67.8431,-193.159 0,-66.6619 -10.0158,-119.009 -30.0002,-157.159 -20.008,-38.1735 -49.1815,-67.8431 -87.4968,-89.0086 -38.1735,-21.1655 -80.0085,-31.6774 -125.174,-31.6774 -72.662,0 -131.34,23.1734 -176.175,69.6856 -44.835,46.4886 -67.158,113.481 -67.158,200.813zm90.0007 -0.165356c0,-66.3312 14.5041,-115.985 43.4885,-148.82 29.1735,-33.0003 65.6698,-49.5122 109.843,-49.5122 43.6775,0 80.0085,16.5119 109.158,49.6776 29.0081,33.1656 43.5122,83.67 43.5122,151.489 0,64.0163 -14.6694,112.513 -43.8429,145.348 -29.1498,33.0003 -65.5045,49.4886 -108.828,49.4886 -44.1736,0 -80.6699,-16.323 -109.843,-49.1579 -28.9845,-32.8349 -43.4885,-82.3471 -43.4885,-148.513z"
   id="glyph46" />
   <glyph
   unicode="l"
   horiz-adv-x="222"
   d="M63.9926 0l0 715.99 88.0164 0 0 -715.99 -88.0164 0z"
   id="glyph48" />
   <glyph
   unicode="i"
   horiz-adv-x="222"
   d="M66.0005 615.997l0 99.9929 87.9928 0 0 -99.9929 -87.9928 0zm0 -615.997l0 519.004 87.9928 0 0 -519.004 -87.9928 0z"
   id="glyph50" />
   <glyph
   unicode="X"
   horiz-adv-x="666"
   d="M4.32287 0l276.687 371.507 -243.687 344.483 112.843 0 130.489 -183.167c27.1892,-37.9846 46.0161,-66.9927 56.8351,-87.166 16.1812,25.0159 35.1735,51.6854 57.0004,79.8431l143.009 190.49 103.843 0 -248.671 -340.326 267.664 -375.664 -116.339 0 -180.663 255.333c-10.3229,14.5041 -20.1734,29.0081 -29.3388,43.3232 -15.9923,-24.0002 -27.3309,-40.8192 -34.3231,-50.3154l-181.513 -248.341 -113.836 0z"
   id="glyph52" />
  </font>
  <font
   id="FontID2"
   horiz-adv-x="726"
   font-variant="normal"
   style="fill-rule:nonzero"
   font-style="normal"
   font-weight="400"
   horiz-origin-x="0"
   horiz-origin-y="0"
   vert-origin-x="512"
   vert-origin-y="768"
   vert-adv-y="1024">
	<font-face
   font-family="Nunito Sans"
   id="font-face55">
		<font-face-src>
			<font-face-name
   name="Nunito Sans Regular" />
		</font-face-src>
	</font-face>
   <missing-glyph
   id="missing-glyph59"><path
     d="M0 0z"
     id="path57" /></missing-glyph>
   <glyph
   unicode="w"
   horiz-adv-x="842"
   d="M736.007 486.999l80.9906 0 -180.991 -486.999 -78.0076 0 -137.006 376.995 -137.991 -376.995 -77.0086 0 -180.991 486.999 84.0017 0 137.991 -390.995 141.002 390.995 70.0014 0 139.004 -390.995 139.004 390.995z"
   id="glyph61" />
   <glyph
   unicode="D"
   horiz-adv-x="739"
   d="M86.9987 704.995l237.006 0c112.664,0 199.831,-30.4911 261.489,-91.5013 61.6716,-60.9962 92.5004,-147.826 92.5004,-260.49 0,-112.678 -30.8288,-199.676 -92.5004,-261.01 -61.6575,-61.3339 -148.825,-91.9938 -261.489,-91.9938l-237.006 0 0 704.995zm231.997 -634.994c182.665,0 274.012,94.3295 274.012,283.003 0,187.998 -91.3466,281.99 -274.012,281.99l-149.993 0 0 -564.992 149.993 0z"
   id="glyph63" />
   <glyph
   unicode="3"
   horiz-adv-x="600"
   d="M397.003 361.995c41.3255,-12.0023 72.9985,-32.4891 94.9909,-61.4887 22.0065,-28.9996 33.0097,-65.5129 33.0097,-109.512 0,-61.3339 -20.8386,-109.667 -62.5018,-144.998 -41.6631,-35.3314 -98.1708,-52.99 -169.495,-52.99 -45.3356,0 -89.0108,7.65443 -131.012,22.9914 -42.0008,15.337 -77.3322,36.6681 -105.994,64.0073l30.9976 62.9942c64.0073,-54.0031 131.997,-81.0046 203.996,-81.0046 50.007,0 88.0118,11.1721 114,33.5022 26.0025,22.3301 39.0038,55.171 39.0038,98.5085 0,85.9997 -54.0031,129 -161.995,129l-81.0046 0 0 68.9883 65.0063 0c51.991,0 91.9938,11.5098 119.994,34.5012 28.0006,23.0055 42.0008,56.17 42.0008,99.5075 0,37.9907 -11.3409,67.1591 -33.9947,87.4912 -22.6678,20.3461 -55.0021,30.5051 -97.003,30.5051 -68.0034,0 -134.67,-27.0015 -200,-81.0046l-30.9976 63.0083c28.6619,27.3252 63.6556,48.6703 104.995,63.9932 41.3395,15.337 84.3394,23.0055 129,23.0055 63.9932,0 114.83,-16.1672 152.498,-48.5015 37.6671,-32.3343 56.5077,-75.8266 56.5077,-130.505 0,-40.6641 -9.83537,-76.1643 -29.5061,-106.501 -19.6707,-30.3222 -47.1648,-52.1598 -82.4961,-65.4988z"
   id="glyph65" />
   <glyph
   unicode="A"
   horiz-adv-x="727"
   d="M626.003 0l-78.0076 181.005 -367.989 0 -78.0076 -181.005 -84.0017 0 310.004 704.995 71.0004 0 310.004 -704.995 -83.0027 0zm-416.997 248.994l309.99 0 -155.002 361.01 -154.988 -361.01z"
   id="glyph67" />
   <glyph
   unicode="t"
   horiz-adv-x="340"
   d="M288.997 57.9992c14.6757,0 29.3373,0.999015 43.9989,2.99705l-3.99606 -63.9932c-15.337,-2.67342 -31.9966,-3.99606 -49.993,-3.99606 -58.6745,0 -102.842,15.3229 -132.503,45.9969 -29.675,30.6599 -44.5054,73.3361 -44.5054,128.001l0 256.001 -95.0049 0 0 63.9932 95.0049 0 0 147.995 81.0046 0 0 -147.995 137.991 0 0 -63.9932 -137.991 0 0 -250.007c0,-76.6709 35.3314,-114.999 105.994,-114.999z"
   id="glyph69" />
   <glyph
   unicode="c"
   horiz-adv-x="479"
   d="M281.005 -6.99983c-48.011,0 -89.6685,10.329 -125.009,30.9992 -35.3284,20.6702 -62.4985,49.8281 -81.498,87.4979 -18.9995,37.6698 -28.4993,81.8395 -28.4993,132.497 0,50.6695 9.82903,95.1684 29.4993,133.509 19.6703,38.3283 47.3403,68.1691 82.998,89.4978 35.6699,21.3287 77.4981,31.9992 125.509,31.9992 32.6577,0 64.657,-5.82913 95.9977,-17.4996 31.3285,-11.6704 56.6693,-27.1701 75.9981,-46.4989l-26.9993 -59.9985c-45.9989,37.3284 -92.6685,55.9986 -139.997,55.9986 -50.011,0 -89.01,-16.3411 -117.009,-48.9988 -27.9993,-32.6699 -41.999,-78.6688 -41.999,-138.009 0,-58.6571 13.9997,-103.997 41.999,-135.997 27.9993,-31.9992 66.9984,-47.9988 117.009,-47.9988 47.3281,0 93.9977,18.6703 139.997,55.9986l26.9993 -59.9985c-20.6702,-19.3288 -46.6696,-34.6699 -77.9981,-45.9989 -31.3407,-11.329 -63.6692,-16.9996 -96.9976,-16.9996z"
   id="glyph71" />
   <glyph
   unicode="n"
   horiz-adv-x="567"
   d="M320.004 499c116.668,0 174.996,-64.3277 174.996,-192.995l0 -306.005 -80.998 0 0 301.005c0,45.3282 -8.84125,78.3274 -26.4994,98.9976 -17.6703,20.6702 -45.8403,30.9992 -84.4979,30.9992 -44.6696,0 -80.3395,-13.6704 -107.01,-40.999 -26.6579,-27.3408 -39.999,-64.3399 -39.999,-110.997l0 -279.005 -80.998 0 0 487 79.998 0 0 -79.998c15.9996,29.9993 38.3405,52.828 66.9984,68.4983 28.67,15.6703 61.34,23.4994 98.0098,23.4994z"
   id="glyph73" />
   <glyph
   unicode="ó"
   horiz-adv-x="555"
   d="M276.995 -6.99311c-45.9969,0 -86.4922,10.3278 -121.5,30.9976 -34.9937,20.6557 -61.9952,50.1618 -80.9906,88.4902 -19.0094,38.3425 -28.5071,82.8338 -28.5071,133.502 0,50.6684 9.49768,95.1738 28.5071,133.502 18.9954,38.3284 45.9969,67.8345 80.9906,88.5043 35.0077,20.6698 75.503,30.9976 121.5,30.9976 46.011,0 86.6751,-10.3278 122.006,-30.9976 35.3314,-20.6698 62.5018,-50.1759 81.4971,-88.5043 18.9954,-38.3284 28.5071,-82.8338 28.5071,-133.502 0,-50.6684 -9.51175,-95.1597 -28.5071,-133.502 -18.9954,-38.3284 -46.1658,-67.8345 -81.4971,-88.4902 -35.3314,-20.6698 -75.9955,-30.9976 -122.006,-30.9976zm0 66.9903c48.009,0 84.8319,15.8295 110.511,47.5025 25.6648,31.673 38.4973,77.8388 38.4973,138.497 0,59.3359 -13.0013,105.164 -39.0038,137.498 -26.0025,32.3343 -62.6706,48.5015 -110.004,48.5015 -47.3336,0 -83.9876,-16.1672 -109.99,-48.5015 -26.0025,-32.3343 -39.0038,-78.1624 -39.0038,-137.498 0,-59.9972 12.8324,-105.994 38.4973,-137.991 25.6648,-32.0107 62.5018,-48.009 110.497,-48.009zm28.0006 491.009l-56.0011 0 99.001 201.998 93.0069 0 -136.007 -201.998z"
   id="glyph75" />
   <glyph
   unicode="8"
   horiz-adv-x="600"
   d="M422.006 361.995c41.3255,-12.6636 73.4909,-34.3323 96.4964,-64.9923 22.9914,-30.674 34.5012,-67.3421 34.5012,-110.004 0,-60.6585 -22.0065,-108.161 -66.0053,-142.493 -43.9989,-34.3323 -106.332,-51.4985 -186.999,-51.4985 -80.6669,0 -143,17.1662 -186.999,51.4985 -43.9989,34.3323 -66.0053,81.8348 -66.0053,142.493 0,43.3376 11.6646,80.3293 35.0077,111.003 23.3291,30.6599 55.6634,51.991 97.003,63.9932 -35.3454,13.339 -63.346,34.3323 -84.0017,63.0083 -20.6698,28.6619 -31.0117,62.3329 -31.0117,100.999 0,57.3238 20.8386,102.828 62.5018,136.499 41.6772,33.671 99.5075,50.4995 173.505,50.4995 73.9975,0 131.828,-16.8285 173.505,-50.4995 41.6631,-33.671 62.5018,-79.1755 62.5018,-136.499 0,-38.6661 -10.3419,-72.506 -31.0117,-101.506 -20.6557,-28.9996 -48.3326,-49.8241 -82.9886,-62.5018zm-277.009 157.999c0,-41.3255 13.1701,-72.9985 39.4963,-94.9909 26.3402,-22.0065 64.8375,-33.0097 115.506,-33.0097 50.6684,0 89.1656,11.0032 115.506,33.0097 26.3262,21.9924 39.4963,53.6654 39.4963,94.9909 0,39.3415 -13.1701,70.0014 -39.4963,92.0079 -26.3402,21.9924 -64.8375,32.9956 -115.506,32.9956 -50.6684,0 -89.1656,-11.0032 -115.506,-32.9956 -26.3262,-22.0065 -39.4963,-52.6664 -39.4963,-92.0079zm155.002 -458.998c114.662,0 171.999,43.6752 171.999,130.998 0,87.3364 -57.3378,131.012 -171.999,131.012 -114.662,0 -171.999,-43.6752 -171.999,-131.012 0,-87.3224 57.3378,-130.998 171.999,-130.998z"
   id="glyph77" />
   <glyph
   unicode="5"
   horiz-adv-x="600"
   d="M329.999 442.001c44.6743,0 83.4951,-9.32883 116.505,-28.0006 32.9956,-18.6717 58.4916,-44.829 76.502,-78.5001 17.9963,-33.671 26.9875,-72.506 26.9875,-116.505 0,-44.6602 -9.8213,-84.0017 -29.4921,-117.996 -19.6707,-33.9947 -47.5025,-60.5037 -83.4951,-79.4991 -36.0068,-18.9954 -78.0076,-28.493 -126.003,-28.493 -42.6762,0 -84.8319,7.82327 -126.509,23.498 -41.6631,15.6606 -76.8257,36.8229 -105.488,63.5008l30.9976 62.9942c65.33,-54.0031 132.334,-81.0046 200.999,-81.0046 49.3316,0 87.9977,14.0003 115.998,42.0008 28.0006,28.0006 42.0008,66.0053 42.0008,114 0,46.6723 -13.8314,84.3394 -41.5084,113.001 -27.6629,28.676 -64.4998,42.9999 -110.497,42.9999 -67.328,0 -120.993,-27.3252 -160.996,-82.0037l-57.0001 0 0 413.001 423.005 0 0 -67.9893 -342.001 0 0 -251.006c18.6577,17.9963 40.833,31.8278 66.4978,41.4943 25.6648,9.66653 53.4966,14.5068 83.4951,14.5068z"
   id="glyph79" />
   <glyph
   unicode="h"
   horiz-adv-x="568"
   d="M319.994 499.001c116.674,0 175.011,-64.3309 175.011,-193.007l0 -305.994 -81.0046 0 0 300.999c0,45.3356 -8.83636,78.3312 -26.495,99.001 -17.6727,20.6698 -45.8421,30.9976 -84.5082,30.9976 -44.6602,0 -80.3293,-13.6626 -106.993,-41.0018 -26.6639,-27.3252 -40.0028,-64.3309 -40.0028,-110.989l0 -279.007 -81.0046 0 0 704.995 81.0046 0 0 -295.99c15.9983,29.3232 38.1596,51.6674 66.4978,66.9903 28.3383,15.337 60.8274,23.0055 97.4954,23.0055z"
   id="glyph81" />
   <glyph
   unicode="W"
   horiz-adv-x="1100"
   d="M986.999 704.995l80.0056 0 -246.011 -704.995 -69.9873 0 -201.013 576.995 -200.999 -576.995 -68.9883 0 -247.01 704.995 83.0027 0 200 -588.997 204.995 588.997 62.0093 -0.999015 201.998 -588.997 201.998 589.996z"
   id="glyph83" />
   <glyph
   unicode="í"
   horiz-adv-x="231"
   d="M74.9965 0l0 486.999 81.0046 0 0 -486.999 -81.0046 0zm69.0024 551.006l-56.0011 0 99.001 201.998 93.0069 0 -136.007 -201.998z"
   id="glyph85" />
   <glyph
   unicode="v"
   horiz-adv-x="513"
   d="M424.002 486l80.998 0 -209.995 -486 -76.0103 0 -208.995 486 85.9979 0 163.008 -398.002 164.996 398.002z"
   id="glyph87" />
   <glyph
   unicode="C"
   horiz-adv-x="676"
   d="M387.998 -8.00619c-66.6667,0 -124.666,14.5068 -173.997,43.5064 -49.3316,28.9996 -87.1676,70.6627 -113.494,125.004 -26.3402,54.3267 -39.5103,118.503 -39.5103,192.5 0,73.9975 13.1701,137.991 39.5103,191.994 26.3262,54.0031 64.1621,95.4974 113.494,124.497 49.3316,28.9996 107.331,43.5064 173.997,43.5064 48.6703,0 93.3305,-7.49965 134.009,-22.4989 40.6641,-14.9993 75.9955,-37.1746 105.994,-66.4978l-30.9976 -63.0083c-34.0087,28.676 -67.3421,49.3316 -100,62.0093 -32.672,12.6636 -68.6647,18.9954 -108.006,18.9954 -77.3322,0 -137.161,-25.1724 -179.499,-75.503 -42.3245,-50.3307 -63.5008,-121.5 -63.5008,-213.494 0,-92.6692 21.1763,-164.176 63.5008,-214.507 42.3385,-50.3307 102.167,-75.503 179.499,-75.503 39.3415,0 75.3342,6.34586 108.006,19.0094 32.6579,12.6636 65.9913,33.3333 100,61.9952l30.9976 -62.9942c-29.9986,-29.3373 -65.33,-51.4985 -105.994,-66.4978 -40.6782,-15.0134 -85.3384,-22.513 -134.009,-22.513z"
   id="glyph89" />
   <glyph
   unicode="2"
   horiz-adv-x="600"
   d="M539.004 69.0024l0 -69.0024 -454.003 0 0 61.9952 246.996 271.999c33.3333,37.3435 57.5067,70.8456 72.506,100.507 14.9993,29.6609 22.4989,59.5047 22.4989,89.5033 0,38.6661 -11.3409,68.327 -33.9947,88.9968 -22.6678,20.6698 -54.6785,30.9976 -96.0039,30.9976 -68.0034,0 -134.67,-27.0015 -200,-81.0046l-30.9976 63.0083c28.0006,26.6639 63.1631,47.8261 105.502,63.5008 42.3245,15.6606 84.8319,23.498 127.494,23.498 64.6686,0 115.829,-16.6737 153.497,-50.007 37.6671,-33.3333 56.5077,-78.3312 56.5077,-134.994 0,-40.6641 -9.17405,-79.6679 -27.5081,-116.997 -18.334,-37.3435 -48.5015,-79.0066 -90.5023,-125.004l-200 -216.997 348.009 0z"
   id="glyph91" />
   <glyph
   unicode="e"
   horiz-adv-x="526"
   d="M483 230.994l-356.004 0c2.67067,-56.6572 17.9996,-99.4976 45.9989,-128.497 27.9993,-28.9993 67.6691,-43.4989 119.009,-43.4989 56.6572,0 108.656,19.3288 155.996,57.9986l26.9993 -58.9986c-21.3287,-19.9995 -48.6695,-35.8284 -81.998,-47.4988 -33.3407,-11.6704 -67.3398,-17.4996 -101.998,-17.4996 -76.0103,0 -135.838,22.3287 -179.508,66.9984 -43.6697,44.6696 -65.4984,106.339 -65.4984,184.995 0,50.011 9.6705,94.1684 28.9993,132.509 19.341,38.3283 46.4989,68.1691 81.498,89.4978 34.9991,21.3287 74.8396,31.9992 119.509,31.9992 64.657,0 115.326,-21.1702 151.996,-63.4985 36.6698,-42.3404 54.9987,-100.498 54.9987,-174.496l0 -30.0115zm-205.995 205.007c-42.6697,0 -76.8396,-13.3289 -102.51,-39.999 -25.6579,-26.6701 -40.8283,-64.3399 -45.4989,-112.997l283.005 0c-1.34143,49.3281 -13.6704,87.1564 -36.9991,113.497 -23.3409,26.3286 -55.9986,39.499 -97.9976,39.499z"
   id="glyph93" />
   <glyph
   unicode="b"
   horiz-adv-x="582"
   d="M319.994 499.001c42.6762,0 80.3433,-10.3278 113.001,-30.9976 32.672,-20.6698 57.9992,-50.007 76.0096,-87.9977 17.9963,-38.0048 27.0015,-82.0037 27.0015,-132.011 0,-50.6684 -9.00521,-95.1597 -27.0015,-133.488 -18.0104,-38.3425 -43.3376,-68.1722 -76.0096,-89.5033 -32.6579,-21.3311 -70.325,-31.9966 -113.001,-31.9966 -37.9907,0 -71.1552,8.32982 -99.4935,24.9894 -28.3383,16.6737 -49.8382,40.3405 -64.4998,71.0004l0 -88.9968 -81.0046 0 0 704.995 81.0046 0 0 -301.998c14.6616,30.674 36.1615,54.3408 64.4998,71.0004 28.3383,16.6737 61.5027,25.0035 99.4935,25.0035zm-15.9983 -439.004c47.3336,0 84.0017,16.5049 110.004,49.5005 26.0025,32.9956 39.0038,79.1755 39.0038,138.497 0,57.9992 -13.0013,103.011 -39.0038,135.008 -26.0025,31.9966 -62.6706,47.9949 -110.004,47.9949 -47.3336,0 -83.8328,-15.9983 -109.498,-47.9949 -25.6648,-31.9966 -38.4973,-77.6699 -38.4973,-137.006 0,-59.3359 12.8324,-105.164 38.4973,-137.498 25.6648,-32.3343 62.1641,-48.5015 109.498,-48.5015z"
   id="glyph95" />
   <glyph
   unicode="s"
   horiz-adv-x="480"
   d="M239.994 -6.99983c-81.998,0 -146.996,20.9995 -194.995,62.9985l26.9993 59.9985c25.9994,-20.658 52.4987,-35.4991 79.4981,-44.4989 26.9993,-8.99978 57.4986,-13.4997 91.4978,-13.4997 36.0113,0 63.5106,6.17058 82.5102,18.4995 18.9995,12.3412 28.4993,30.17 28.4993,53.4987 0,19.341 -6.34131,34.6699 -18.9995,45.9989 -12.6704,11.3412 -33.6699,20.341 -62.9985,26.9993l-82.0102 18.9995c-41.3283,9.34124 -72.9982,25.3408 -94.9977,48.011 -21.9995,22.658 -32.9992,50.6573 -32.9992,83.998 0,43.3282 16.9996,78.3274 50.9988,104.997 33.9992,26.6701 79.3395,39.999 135.997,39.999 34.0114,0 66.3398,-5.49987 97.0098,-16.4996 30.6578,-10.9997 56.3279,-26.8286 76.9981,-47.4988l-26.9993 -58.9986c-44.6696,37.9991 -93.6684,56.9986 -147.009,56.9986 -33.9992,0 -60.4985,-6.49984 -79.4981,-19.4995 -18.9995,-12.9997 -28.4993,-31.17 -28.4993,-54.4987 0,-19.341 5.84132,-34.8406 17.4996,-46.4989 11.6704,-11.6704 30.4993,-20.4995 56.4986,-26.4994l83.0102 -19.9995c45.3282,-10.6705 78.9981,-26.8408 100.998,-48.511 21.9995,-21.658 32.9992,-49.8281 32.9992,-84.4979 0,-42.6575 -17.1703,-76.6689 -51.4987,-101.998 -34.3406,-25.3287 -81.1688,-37.9991 -140.509,-37.9991z"
   id="glyph97" />
   <glyph
   unicode="N"
   horiz-adv-x="738"
   d="M574.998 704.995l76.9981 0 0 -704.995 -62.9985 0 -425.002 566.998 0 -566.998 -76.9981 0 0 704.995 62.9985 0 425.002 -566.998 0 566.998z"
   id="glyph99" />
   <glyph
   unicode="p"
   horiz-adv-x="582"
   d="M319.994 499.001c42.6762,0 80.3433,-10.6655 113.001,-31.9966 32.672,-21.3311 57.9992,-51.1749 76.0096,-89.5033 17.9963,-38.3284 27.0015,-82.8338 27.0015,-133.502 0,-50.6684 -9.00521,-94.8361 -27.0015,-132.503 -18.0104,-37.6671 -43.1687,-66.8355 -75.503,-87.4912 -32.3343,-20.6698 -70.1703,-30.9976 -113.508,-30.9976 -37.9907,0 -71.1552,8.32982 -99.4935,24.9894 -28.3383,16.6737 -49.8382,40.3405 -64.4998,71.0004l0 -269.002 -81.0046 0 0 667.004 81.0046 0 0 -84.0017c14.6616,30.674 36.1615,54.3408 64.4998,71.0004 28.3383,16.6737 61.5027,25.0035 99.4935,25.0035zm-15.9983 -439.004c47.3336,0 84.0017,15.9983 110.004,48.009 26.0025,31.9966 39.0038,77.3322 39.0038,135.993 0,58.6745 -13.0013,104.503 -39.0038,137.498 -26.0025,33.0097 -62.6706,49.5005 -110.004,49.5005 -47.3336,0 -83.8328,-15.9983 -109.498,-47.9949 -25.6648,-31.9966 -38.4973,-77.6699 -38.4973,-137.006 0,-59.3359 12.8324,-105.164 38.4973,-137.498 25.6648,-32.3343 62.1641,-48.5015 109.498,-48.5015z"
   id="glyph101" />
   <glyph
   unicode="m"
   horiz-adv-x="852"
   d="M616.997 499.001c108.006,0 162.009,-64.3309 162.009,-193.007l0 -305.994 -81.0046 0 0 301.998c0,44.6743 -7.83734,77.3322 -23.498,98.002 -15.6747,20.6698 -40.833,30.9976 -75.503,30.9976 -40.6641,0 -72.6608,-13.6626 -96.0039,-41.0018 -23.3291,-27.3252 -34.9937,-64.6686 -34.9937,-112.002l0 -277.994 -81.0046 0 0 301.998c0,45.3356 -7.99212,78.1624 -24.0045,98.5085 -15.9983,20.3321 -41.3255,30.4911 -75.9955,30.4911 -40.6641,0 -72.6608,-13.6626 -96.0039,-41.0018 -23.3291,-27.3252 -34.9937,-64.6686 -34.9937,-112.002l0 -277.994 -81.0046 0 0 486.999 80.0056 0 0 -76.9945c14.6616,28.6619 34.9937,50.6684 60.9962,65.9913 26.0025,15.337 56.0011,23.0055 89.9958,23.0055 75.3342,0 125.004,-31.9966 149.008,-96.0039 14.0003,29.9986 35.3314,53.4966 63.9932,70.5079 28.676,16.9973 61.3339,25.496 98.002,25.496z"
   id="glyph103" />
   <glyph
   unicode=")"
   horiz-adv-x="314"
   d="M34.9937 -170.001c33.3333,78.6689 57.169,153.004 71.507,223.005 14.338,70.0014 21.4999,140.003 21.4999,209.99 0,70.0014 -7.16195,140.003 -21.4999,210.004 -14.338,70.0014 -38.1736,144.337 -71.507,223.005l56.0011 22.9914c42.6762,-79.3302 73.3361,-155.663 92.0079,-229 18.6577,-73.3361 28.0006,-148.994 28.0006,-227.002 0,-77.9935 -9.3429,-153.834 -28.0006,-227.494 -18.6717,-73.6738 -49.3316,-149.838 -92.0079,-228.507l-56.0011 23.0055z"
   id="glyph105" />
   <glyph
   unicode="7"
   horiz-adv-x="600"
   d="M67.0044 704.995l465.991 0 0 -60.9962 -329.999 -643.999 -88.9968 0 329 636.007 -375.995 0 0 68.9883z"
   id="glyph107" />
   <glyph
   unicode="g"
   horiz-adv-x="585"
   d="M511.003 486.999l0 -454.003c0,-72.6608 -18.6717,-127.494 -56.0011,-164.5 -37.3294,-36.9917 -92.6692,-55.4946 -166.005,-55.4946 -85.3243,0 -157,21.9924 -214.999,66.0053l27.0015 59.9972c32.672,-21.3311 63.3319,-36.6681 92.0079,-45.9969 28.6619,-9.3429 60.6585,-14.0003 95.9899,-14.0003 46.6723,0 82.0037,12.4947 106.008,37.4982 23.9904,24.9894 35.9927,61.4887 35.9927,109.498l0 85.9997c-14.0003,-31.3353 -35.5002,-55.3398 -64.4998,-71.9994 -28.9996,-16.6737 -63.1631,-25.0035 -102.505,-25.0035 -42.6622,0 -80.4981,10.0042 -113.494,29.9986 -32.9956,20.0084 -58.6605,48.3326 -76.9945,85.0007 -18.334,36.6681 -27.5081,79.0066 -27.5081,127.002 0,47.9949 9.17405,90.3335 27.5081,127.002 18.334,36.6681 43.9989,64.9923 76.9945,85.0007 32.9956,19.9944 70.8316,29.9986 113.494,29.9986 38.6802,0 72.3371,-8.32982 101.013,-25.0035 28.6619,-16.6596 50.3307,-40.3264 64.9923,-71.0004l0 84.0017 81.0046 0zm-230.998 -404.995c46.6582,0 83.3263,15.4918 109.99,46.4894 26.6639,31.0117 40.0028,73.8427 40.0028,128.507 0,54.0031 -13.1701,96.4964 -39.4963,127.494 -26.3402,31.0117 -63.1631,46.5034 -110.497,46.5034 -47.3336,0 -84.5082,-15.4918 -111.51,-46.5034 -27.0015,-30.9976 -40.4953,-73.4909 -40.4953,-127.494 0,-54.6644 13.4937,-97.4954 40.4953,-128.507 27.0015,-30.9976 64.1762,-46.4894 111.51,-46.4894z"
   id="glyph109" />
   <glyph
   unicode="4"
   horiz-adv-x="600"
   d="M563.993 220.993l0 -67.9893 -105.994 0 0 -153.004 -81.0046 0 0 153.004 -325.988 0 0 61.9952 339.989 489.996 67.0044 0 0 -484.002 105.994 0zm-427.986 0l240.988 0 0 347.01 -240.988 -347.01z"
   id="glyph111" />
   <glyph
   unicode="S"
   horiz-adv-x="616"
   d="M311.005 -7.9998c-110.01,0 -198.007,29.67 -264.006,88.9978l31.9992 62.9985c34.6699,-29.3286 70.169,-50.328 106.497,-62.9985 36.3406,-12.6704 78.5103,-18.9995 126.509,-18.9995 56.6572,0 100.327,10.9997 130.997,32.9992 30.67,21.9995 45.9989,52.9987 45.9989,92.9977 0,23.3409 -7.32909,42.3404 -21.9995,56.9986 -14.6704,14.6704 -33.9992,26.3408 -57.9986,35.0113 -23.9994,8.65833 -56.3401,17.6581 -96.9976,26.9993 -54.6694,12.6582 -99.5098,25.9994 -134.509,39.999 -34.9991,13.9997 -63.3277,33.9992 -84.9979,59.9985 -21.6702,25.9994 -32.4992,59.9985 -32.4992,101.998 0,39.999 10.4997,75.4982 31.4992,106.497 20.9995,30.9992 50.9988,54.9987 89.9978,71.9982 38.999,16.9996 84.1687,25.4994 135.509,25.4994 48.6573,0 94.1562,-7.65835 136.497,-22.9994 42.3282,-15.3289 78.1688,-37.3284 107.497,-65.9984l-30.9992 -62.9985c-33.3285,28.67 -67.1691,49.4988 -101.498,62.4985 -34.3406,12.9997 -71.4983,19.4995 -111.497,19.4995 -54.6694,0 -97.5098,-11.4997 -128.509,-34.4992 -30.9992,-22.9994 -46.4989,-55.1694 -46.4989,-96.4976 0,-35.3284 13.6704,-61.9985 40.999,-79.998 27.3408,-17.9996 68.6691,-33.3407 124.009,-45.9989 60.6571,-14.6704 108.327,-28.17 142.997,-40.499 34.6699,-12.3412 63.4985,-30.8407 86.4979,-55.4986 22.9994,-24.6701 34.4992,-57.6693 34.4992,-99.0098 0,-39.999 -10.4997,-74.9982 -31.4992,-104.997 -20.9995,-29.9993 -51.1695,-53.1694 -90.4978,-69.4983 -39.3405,-16.3289 -85.3394,-24.4994 -137.997,-24.4994z"
   id="glyph113" />
   <glyph
   unicode="1"
   horiz-adv-x="600"
   d="M367.004 69.0024l155.002 0 0 -69.0024 -392.008 0 0 69.0024 155.002 0 0 533.995 -124.005 -77.9935 -37.9907 62.9942 185.001 116.997 58.9982 0 0 -635.993z"
   id="glyph115" />
   <glyph
   unicode="d"
   horiz-adv-x="581"
   d="M507 704.995l0 -704.995 -80.998 0 0 88.9978c-14.6704,-30.67 -36.1698,-54.3279 -64.4984,-70.9983 -28.3408,-16.6703 -61.4985,-24.9994 -99.4976,-24.9994 -42.6697,0 -80.3395,10.6705 -113.009,31.9992 -32.6577,21.3287 -57.9986,51.1695 -75.9981,89.4978 -17.9996,38.3405 -26.9993,82.8394 -26.9993,133.497 0,50.011 8.99978,94.0099 26.9993,132.009 17.9996,37.9991 43.3404,67.3276 75.9981,87.9979 32.6699,20.6702 70.3397,30.9992 113.009,30.9992 37.9991,0 71.1568,-8.32907 99.4976,-24.9994 28.3286,-16.6703 49.8281,-40.3283 64.4984,-70.9983l0 301.993 80.998 0zm-228.994 -644.996c47.3281,0 83.8272,16.1703 109.497,48.4988 25.6579,32.3407 38.4991,78.1688 38.4991,137.497 0,59.34 -12.8412,105.01 -38.4991,137.009 -25.6701,31.9992 -62.1692,47.9988 -109.497,47.9988 -47.3403,0 -84.1687,-15.9996 -110.509,-47.9988 -26.3286,-31.9992 -39.499,-76.9981 -39.499,-135.009 0,-59.3278 13.1704,-105.497 39.499,-138.497 26.3408,-32.9992 63.1692,-49.4988 110.509,-49.4988z"
   id="glyph117" />
   <glyph
   unicode=" "
   horiz-adv-x="258"
   d=""
   id="glyph119" />
   <glyph
   unicode="u"
   horiz-adv-x="560"
   d="M485 487l0 -487 -78.9981 0 0 82.998c-15.3411,-29.3286 -36.8406,-51.6695 -64.4984,-66.9984 -27.6701,-15.3289 -58.84,-22.9994 -93.5099,-22.9994 -57.9986,0 -101.656,16.1703 -130.997,48.4988 -29.3286,32.3285 -43.9989,80.1688 -43.9989,143.497l0 302.005 80.998 0 0 -300.005c0,-43.3282 8.67052,-75.1567 25.9994,-95.4977 17.341,-20.3288 44.6696,-30.4993 82.0102,-30.4993 42.6575,0 76.9981,13.8289 102.997,41.499 25.9994,27.6701 38.999,64.1692 38.999,109.497l0 275.005 80.998 0z"
   id="glyph121" />
   <glyph
   unicode="B"
   horiz-adv-x="673"
   d="M487 362.003c40.6697,-10.6705 72.169,-30.67 94.4977,-59.9985 22.3409,-29.3407 33.4992,-66.0106 33.4992,-110.01 0,-61.9985 -20.3288,-109.497 -60.9985,-142.497 -40.6697,-32.9992 -98.3269,-49.4988 -172.996,-49.4988l-294.005 0 0 704.995 283.005 0c72.669,0 128.997,-15.9996 168.996,-47.9988 39.999,-31.9992 59.9985,-77.3274 59.9985,-135.997 0,-37.9991 -9.82903,-70.669 -29.4993,-97.9976 -19.6703,-27.3408 -47.1696,-47.6696 -82.498,-60.9985zm-319.004 29.9993l190.008 0c52.6573,0 92.4977,10.6583 119.497,31.9992 26.9993,21.3287 40.499,52.328 40.499,92.9977 0,79.998 -53.328,119.997 -159.996,119.997l-190.008 0 0 -244.994zm205.007 -324.004c55.3279,0 96.1684,10.1705 122.497,30.4993 26.3286,20.341 39.499,52.1695 39.499,95.4977 0,86.6686 -53.9987,130.009 -161.996,130.009l-205.007 0 0 -256.006 205.007 0z"
   id="glyph123" />
   <glyph
   unicode="r"
   horiz-adv-x="353"
   d="M351.004 429.002l-52.9987 -4.99988c-50.011,-4.67062 -86.1686,-20.341 -108.51,-46.9989 -22.3287,-26.6701 -33.4992,-59.6693 -33.4992,-98.9976l0 -278.005 -80.998 0 0 487 78.9981 0 0 -84.9979c27.3408,56.6693 80.998,88.3271 161.008,94.9977l28.9993 1.99995 6.99983 -69.9983z"
   id="glyph125" />
   <glyph
   unicode="a"
   horiz-adv-x="529"
   d="M273.006 499c61.9985,0 108.156,-15.8289 138.497,-47.4988 30.3285,-31.67 45.4989,-79.8395 45.4989,-144.496l0 -307.005 -78.9981 0 0 82.998c-12.6704,-28.67 -31.9992,-50.828 -57.9986,-66.4984 -25.9994,-15.6703 -55.9986,-23.4994 -90.01,-23.4994 -31.3285,0 -60.1571,6.32911 -86.4979,18.9995 -26.3286,12.6704 -47.1574,30.3285 -62.4985,52.9987 -15.3289,22.6702 -22.9994,47.6696 -22.9994,74.9982 0,36.6698 9.32904,65.1691 27.9993,85.4979 18.6703,20.341 49.3403,35.0113 91.9978,44.0111 42.6697,8.99978 102.01,13.4997 178.008,13.4997l21.9995 0 0 32.9992c0,40.6575 -8.34126,70.1568 -24.9994,88.4978 -16.6703,18.3288 -43.6697,27.4993 -80.998,27.4993 -56.0108,0 -111.668,-17.341 -167.008,-51.9987l-26.9993 58.9986c25.3408,17.9996 55.8401,32.4992 91.4978,43.4989 35.6699,10.9997 70.169,16.4996 103.51,16.4996zm-32.0114 -442.001c40.0112,0 72.8397,13.4997 98.5098,40.499 25.6579,26.9993 38.4991,61.84 38.4991,104.497l0 28.9993 -17.9996 0c-58.6693,0 -103.339,-2.49994 -134.009,-7.49982 -30.6578,-4.99988 -52.4987,-13.3289 -65.4984,-24.9994 -12.9997,-11.6583 -19.4995,-28.8286 -19.4995,-51.4987 0,-25.9994 9.49977,-47.4988 28.4993,-64.4984 18.9995,-16.9996 42.8404,-25.4994 71.4983,-25.4994z"
   id="glyph127" />
   <glyph
   unicode="+"
   horiz-adv-x="600"
   d="M543.999 315.998l0 -62.9942 -213.001 0 0 -212.002 -61.9952 0 0 212.002 -213.001 0 0 62.9942 213.001 0 0 213.001 61.9952 0 0 -213.001 213.001 0z"
   id="glyph129" />
   <glyph
   unicode="o"
   horiz-adv-x="554"
   d="M277.005 -6.99983c-46.0111,0 -86.5101,10.329 -121.509,30.9992 -34.9991,20.6702 -61.9985,50.1695 -80.998,88.4978 -18.9995,38.3405 -28.4993,82.8394 -28.4993,133.497 0,50.6695 9.49977,95.1684 28.4993,133.509 18.9995,38.3283 45.9989,67.8276 80.998,88.4978 34.9991,20.6702 75.4982,30.9992 121.509,30.9992 45.9989,0 86.6564,-10.329 121.997,-30.9992 35.3284,-20.6702 62.4985,-50.1695 81.498,-88.4978 18.9995,-38.3405 28.4993,-82.8394 28.4993,-133.509 0,-50.6573 -9.49977,-95.1562 -28.4993,-133.497 -18.9995,-38.3283 -46.1696,-67.8276 -81.498,-88.4978 -35.3406,-20.6702 -75.9981,-30.9992 -121.997,-30.9992zm0 66.9984c47.9988,0 84.8272,15.8289 110.497,47.4988 25.6579,31.67 38.4991,77.8396 38.4991,138.497 0,59.34 -12.9997,105.168 -38.999,137.509 -25.9994,32.3285 -62.6692,48.4988 -109.997,48.4988 -47.3403,0 -84.0101,-16.1703 -110.01,-48.4988 -25.9994,-32.3407 -38.999,-78.1688 -38.999,-137.509 0,-59.9985 12.8412,-105.997 38.4991,-137.997 25.6701,-31.9992 62.4985,-47.9988 110.509,-47.9988z"
   id="glyph131" />
   <glyph
   unicode="9"
   horiz-adv-x="600"
   d="M277.994 713.001c85.3384,0 151.175,-29.675 197.509,-88.9968 46.3346,-59.3359 69.4949,-143.999 69.4949,-254.003 0,-119.333 -24.0045,-212.171 -71.9994,-278.5 -47.9949,-66.329 -114.999,-99.5075 -200.999,-99.5075 -40.0028,0 -79.3302,7.49965 -117.996,22.513 -38.6661,14.9993 -72.6748,36.4992 -101.998,64.4998l30.9976 62.9942c33.3333,-28.0006 65.1611,-48.5015 95.4974,-61.5027 30.3363,-13.0013 61.165,-19.5019 92.5004,-19.5019 60.6726,0 107.668,26.8327 141.002,80.4981 33.3333,53.6654 49.993,129.506 49.993,227.508l0 13.0013c-15.3229,-37.3435 -40.1576,-66.6667 -74.4899,-87.9977 -34.3323,-21.3452 -73.1673,-32.0107 -116.505,-32.0107 -42.6622,0 -80.6669,9.3429 -114,28.0006 -33.3333,18.6717 -59.3359,44.9979 -77.9935,79.0066 -18.6717,33.9947 -28.0006,72.9985 -28.0006,116.997 0,43.3376 9.66653,82.3273 28.9996,116.997 19.3331,34.67 46.3346,61.6716 80.9906,81.0046 34.67,19.3331 73.6738,28.9996 116.997,28.9996zm5.00915 -382.004c45.9969,0 83.4951,14.5068 112.495,43.5064 28.9996,28.9996 43.5064,66.4978 43.5064,112.495 0,46.6723 -14.5068,84.5082 -43.5064,113.508 -28.9996,28.9996 -66.8355,43.4923 -113.494,43.4923 -45.3356,0 -81.666,-14.338 -109.005,-42.9999 -27.3252,-28.6619 -41.0018,-66.6667 -41.0018,-114 0,-47.3336 13.8314,-85.1696 41.5084,-113.494 27.6629,-28.3383 64.1621,-42.5074 109.498,-42.5074z"
   id="glyph133" />
   <glyph
   unicode="l"
   horiz-adv-x="231"
   d="M74.9965 0l0 704.995 81.0046 0 0 -704.995 -81.0046 0z"
   id="glyph135" />
   <glyph
   unicode="("
   horiz-adv-x="314"
   d="M223.005 -193.007c-42.6762,78.6689 -73.3361,154.833 -92.0079,228.507 -18.6577,73.6598 -28.0006,149.5 -28.0006,227.494 0,78.0076 9.3429,153.665 28.0006,227.002 18.6717,73.3361 49.3316,149.669 92.0079,229l56.0011 -22.9914c-33.3333,-78.6689 -57.169,-153.004 -71.507,-223.005 -14.338,-70.0014 -21.4999,-140.003 -21.4999,-210.004 0,-69.9873 7.16195,-139.989 21.4999,-209.99 14.338,-70.0014 38.1736,-144.337 71.507,-223.005l-56.0011 -23.0055z"
   id="glyph137" />
   <glyph
   unicode="z"
   horiz-adv-x="502"
   d="M147.995 63.9932l313.001 0 0 -63.9932 -413.001 0 0 56.0011 304.01 367.004 -294.006 0 0 63.9932 391.994 0 0 -58.9982 -301.998 -364.007z"
   id="glyph139" />
   <glyph
   unicode="i"
   horiz-adv-x="231"
   d="M74.9982 0l0 487 80.998 0 0 -487 -80.998 0zm-7.9998 697.995l97.9976 0 0 -90.9978 -97.9976 0 0 90.9978z"
   id="glyph141" />
   <glyph
   unicode="6"
   horiz-adv-x="599"
   d="M329.999 443c42.6622,0 80.6669,-9.32883 114,-28.0006 33.3333,-18.6717 59.3359,-44.9979 78.0076,-78.9925 18.6577,-34.0087 27.9865,-73.0125 27.9865,-117.011 0,-43.3235 -9.66653,-82.3273 -28.9996,-116.997 -19.3331,-34.67 -46.3205,-61.6716 -80.9906,-81.0046 -34.67,-19.3331 -73.6738,-28.9996 -116.997,-28.9996 -85.3384,0 -151.175,29.675 -197.509,89.0108 -46.3346,59.3218 -69.4949,143.999 -69.4949,253.989 0,79.3443 10.8344,147.334 32.5032,204.01 21.6688,56.6624 52.8352,99.8312 93.4994,129.492 40.6641,29.675 89.3345,44.5054 145.997,44.5054 40.6641,0 80.3293,-7.49965 118.995,-22.4989 38.6661,-14.9993 72.6748,-36.4992 101.998,-64.4998l-30.9976 -63.0083c-33.3333,28.0006 -65.1611,48.5015 -95.4974,61.5027 -30.3363,13.0013 -61.165,19.5019 -92.5004,19.5019 -60.6585,0 -107.837,-26.8327 -141.494,-80.4981 -33.671,-53.6654 -50.4995,-129.506 -50.4995,-227.494l0 -15.0134c15.3229,37.3435 39.9887,67.0044 73.9975,89.0108 33.9947,21.9924 73.3361,32.9956 117.996,32.9956zm-11.0032 -382.004c45.3356,0 81.666,14.338 109.005,42.9999 27.3392,28.676 41.0018,66.6667 41.0018,114 0,46.6723 -13.8314,84.3394 -41.5084,113.001 -27.6629,28.676 -64.1621,42.9999 -109.498,42.9999 -45.9969,0 -83.4951,-14.4928 -112.495,-43.4923 -28.9996,-28.9996 -43.5064,-66.5119 -43.5064,-112.509 0,-46.6582 14.5068,-84.4942 43.5064,-113.494 28.9996,-28.9996 66.8355,-43.5064 113.494,-43.5064z"
   id="glyph143" />
  </font>
  <font
   id="FontID1"
   horiz-adv-x="716"
   font-variant="normal"
   style="fill-rule:nonzero"
   font-style="normal"
   font-weight="200"
   horiz-origin-x="0"
   horiz-origin-y="0"
   vert-origin-x="512"
   vert-origin-y="768"
   vert-adv-y="1024">
	<font-face
   font-family="Nunito ExtraLight"
   id="font-face146">
		<font-face-src>
			<font-face-name
   name="Nunito ExtraLight" />
		</font-face-src>
	</font-face>
   <missing-glyph
   id="missing-glyph150"><path
     d="M0 0z"
     id="path148" /></missing-glyph>
   <glyph
   unicode="f"
   horiz-adv-x="306"
   d="M125.999 -6.00407c-13.9987,0 -21.0035,7.3383 -21.0035,22.0042l0 432.002 -78.9998 0c-14.6658,0 -21.9934,5.99331 -21.9934,18.0014 0,11.9974 7.32754,18.0014 21.9934,18.0014l78.9998 0 0 30.9995c0,119.328 55.3386,183.328 166.005,191.99l25.9961 2.00136c9.33966,0.667119 15.333,-1.8292 18.0014,-7.4997 2.66847,-5.65975 2.82987,-11.6638 0.505719,-18.0014 -2.33492,-6.32687 -7.16614,-9.82386 -14.5044,-10.491l-32.0002 -3.00203c-42.6633,-4.00271 -73.6628,-18.8407 -92.9985,-44.5033 -19.3357,-25.6625 -28.9981,-62.4939 -28.9981,-110.494l0 -30.9995 128.001 0c14.6658,0 21.9934,-6.00407 21.9934,-18.0014 0,-12.0081 -7.32754,-18.0014 -21.9934,-18.0014l-128.001 0 0 -432.002c0,-14.6658 -7.00475,-22.0042 -21.0035,-22.0042z"
   id="glyph152" />
   <glyph
   unicode="w"
   horiz-adv-x="830"
   d="M234.998 -6.00407c-15.333,0 -25.9961,8.33898 -32.0002,25.0062l-152.996 435.994c-4.00271,12.0081 -3.66915,20.8421 1.00068,26.5018 4.65907,5.67051 10.3296,8.50038 17.0008,8.50038 10.6631,0 18.0014,-5.99331 21.9934,-18.0014l144.001 -421.996 149.004 415.002c5.99331,16.6672 17.0008,24.9954 33.0009,24.9954 16.0001,0 26.9968,-8.32822 33.0009,-24.9954l145.001 -415.002 147.993 421.996c4.00271,12.0081 11.6746,18.0014 23.0048,18.0014 9.3289,0 15.1608,-3.49699 17.4957,-10.5017 2.33492,-6.99399 1.83996,-15.1608 -1.49564,-24.5005l-154.997 -435.994c-6.00407,-16.6672 -16.3336,-25.0062 -30.9995,-25.0062 -15.3437,0 -26.0069,8.33898 -32.0002,25.0062l-147.003 415.002 -149.004 -415.002c-5.99331,-16.6672 -16.6672,-25.0062 -32.0002,-25.0062z"
   id="glyph154" />
   <glyph
   unicode="D"
   horiz-adv-x="724"
   d="M120.996 0c-16.6672,0 -24.9954,8.32822 -24.9954,24.9954l0 655.003c0,16.6672 8.32822,25.0062 24.9954,25.0062l192.001 0c110.666,0 195.832,-29.8374 255.506,-89.5015 59.6641,-59.6748 89.5015,-147.175 89.5015,-262.5 0,-114.669 -29.8374,-202.169 -89.5015,-262.5 -59.6748,-60.3312 -144.84,-90.5022 -255.506,-90.5022l-192.001 0zm17.0008 39.0049l171.008 0c202.664,0 303.991,104.662 303.991,313.998 0,208.668 -101.327,312.997 -303.991,312.997l-171.008 0 0 -626.995z"
   id="glyph156" />
   <glyph
   unicode="R"
   horiz-adv-x="654"
   d="M116.993 -6.00591c-13.9935,0 -20.9902,7.33209 -20.9902,22.0115l0 666.992c0,14.6642 7.33209,21.9963 21.9963,21.9963l232.996 0c74.0069,0 130.667,-16.9964 170.01,-50.9893 39.3281,-34.0081 58.9921,-82.6652 58.9921,-146.002 0,-51.9954 -14.6642,-94.174 -43.9926,-126.505 -29.3436,-32.3313 -70.6686,-52.8338 -124.005,-61.492 28.0022,-10.6704 53.0014,-36.6757 74.9977,-78.0007l114.996 -214.003c4.67974,-8.67352 5.67056,-16.5086 3.00296,-23.5054 -2.6676,-6.99674 -7.66745,-10.5027 -14.9995,-10.5027 -10.6704,0 -18.658,5.3352 -23.9932,16.0056l-116.003 216c-18.6732,34.6636 -39.3281,57.6659 -61.9951,69.007 -22.667,11.3259 -53.6721,16.9964 -93.0002,16.9964l-157.007 0 0 -295.997c0,-14.6794 -6.99674,-22.0115 -21.0055,-22.0115zm21.0055 357.001l209.003 0c126.002,0 189.003,52.6661 189.003,157.998 0,104.677 -63.0011,157.007 -189.003,157.007l-209.003 0 0 -315.006z"
   id="glyph158" />
   <glyph
   unicode="c"
   horiz-adv-x="454"
   d="M274.003 -7.99466c-45.9989,0 -85.4988,10.6631 -118.5,31.9894 -33.0009,21.337 -58.3406,51.0023 -76.0085,89.0065 -17.6571,37.9935 -26.4911,82.3353 -26.4911,133.004 0,75.9977 19.6585,135.995 58.997,179.993 39.3277,43.9975 93.332,66.0017 162.002,66.0017 25.329,0 51.1637,-4.49767 77.4934,-13.5038 26.3404,-8.99534 49.8402,-23.8333 70.4994,-44.4925 6.00407,-5.33695 7.83326,-11.5024 5.50911,-18.5072 -2.33492,-6.99399 -6.84335,-11.8252 -13.5038,-14.4937 -6.67119,-2.66847 -13.9987,-0.333559 -22.0042,6.99399 -19.3249,17.3343 -39.1663,29.1703 -59.4919,35.5079 -20.3364,6.32687 -40.167,9.4903 -59.5027,9.4903 -56.6728,0 -100.337,-17.9907 -131.003,-53.9936 -30.6659,-36.0029 -45.9989,-87.3387 -45.9989,-153.997 0,-66.6688 15.333,-119.005 45.9989,-157.01 30.6659,-37.9935 74.3299,-56.9956 131.003,-56.9956 19.3357,0 39.1663,3.16343 59.5027,9.50106 20.3256,6.33763 40.167,18.1628 59.4919,35.4972 8.00542,7.3383 15.333,9.67322 22.0042,7.00475 6.66043,-2.66847 11.1689,-7.3383 13.5038,-13.9987 2.32416,-6.67119 0.494959,-13.0088 -5.50911,-19.0021 -20.6592,-20.6699 -44.1589,-35.4972 -70.4994,-44.5033 -26.3297,-8.99534 -52.1644,-13.493 -77.4934,-13.493z"
   id="glyph160" />
   <glyph
   unicode="t"
   horiz-adv-x="320"
   d="M255.001 -7.99466c-50.6687,0 -88.6622,14.3323 -114.002,42.9969 -25.329,28.6646 -37.9935,68.993 -37.9935,120.996l0 292.004 -81.0011 0c-14.6658,0 -22.0042,5.99331 -22.0042,18.0014 0,11.9974 7.3383,18.0014 22.0042,18.0014l81.0011 0 0 134.995c0,14.6658 6.99399,22.0042 20.9927,22.0042 13.9987,0 21.0035,-7.3383 21.0035,-22.0042l0 -134.995 143 0c14.6658,0 21.9934,-6.00407 21.9934,-18.0014 0,-12.0081 -7.32754,-18.0014 -21.9934,-18.0014l-143 0 0 -282.998c0,-43.3412 8.66178,-76.5034 25.9961,-99.5083 17.3343,-22.9941 46.3325,-34.4965 87.0052,-34.4965 13.9987,0 25.5011,1.49564 34.4965,4.49767 9.0061,3.00203 16.5058,4.49767 22.4991,4.49767 10.0068,0 14.9994,-6.32687 14.9994,-18.9914 0,-3.33559 -0.828518,-6.83259 -2.49631,-10.5017 -1.6678,-3.66915 -4.83123,-6.16547 -9.50106,-7.4997 -6.67119,-2.66847 -16.1722,-5.16479 -28.5032,-7.4997 -12.3309,-2.33492 -23.8333,-3.49699 -34.4965,-3.49699z"
   id="glyph162" />
   <glyph
   unicode="O"
   horiz-adv-x="750"
   d="M375.004 -8.0028c-63.3365,0 -117.999,14.6642 -164.004,44.0078 -46.0047,29.3284 -81.5067,70.9887 -106.506,124.996 -24.9992,53.9923 -37.4989,117.999 -37.4989,192.006 0,74.6624 12.3319,138.822 37.0111,192.494 24.6639,53.6721 59.9982,94.9971 105.988,124.005 46.0047,28.993 101.003,43.4895 165.01,43.4895 63.992,0 119.158,-14.4965 165.498,-43.4895 46.3248,-29.0083 81.8268,-70.3332 106.491,-124.005 24.6791,-53.6721 37.0111,-117.496 37.0111,-191.503 0,-74.6624 -12.4996,-139.005 -37.4989,-192.997 -24.9992,-54.0075 -60.5012,-95.6678 -106.506,-124.996 -46.0047,-29.3436 -101.003,-44.0078 -164.995,-44.0078zm0 41.0048c83.9913,0 148.989,28.0022 194.994,83.9913 46.0047,56.0044 69.007,134.676 69.007,236.014 0,101.323 -22.8347,179.827 -68.504,235.496 -45.6693,55.669 -110.835,83.5036 -195.497,83.5036 -83.3359,0 -147.999,-27.8345 -194.003,-83.5036 -46.0047,-55.669 -69.007,-134.173 -69.007,-235.496 0,-100.668 23.0023,-179.171 69.007,-235.511 46.0047,-56.3245 110.667,-84.4944 194.003,-84.4944z"
   id="glyph164" />
   <glyph
   unicode="n"
   horiz-adv-x="552"
   d="M105.997 -6.00407c-13.9987,0 -20.9927,7.3383 -20.9927,22.0042l0 452.005c0,14.6658 6.99399,21.9934 20.9927,21.9934 13.3316,0 20.0028,-7.32754 20.0028,-21.9934l0 -74.0071c16.0001,32.6673 39.1663,57.1678 69.4987,73.5014 30.3324,16.3336 64.1725,24.5005 101.499,24.5005 115.336,0 172.999,-61.3319 172.999,-183.996l0 -292.004c0,-14.6658 -6.99399,-22.0042 -20.9927,-22.0042 -13.9987,0 -21.0035,7.3383 -21.0035,22.0042l0 288.002c0,51.3359 -10.3296,88.9958 -30.9995,113.001 -20.6699,23.9947 -54.0043,35.9921 -100.003,35.9921 -51.3251,0 -92.4928,-15.8279 -123.492,-47.4945 -30.9995,-31.6666 -46.5046,-74.1685 -46.5046,-127.506l0 -261.995c0,-14.6658 -7.00475,-22.0042 -21.0035,-22.0042z"
   id="glyph166" />
   <glyph
   unicode="I"
   horiz-adv-x="234"
   d="M116.993 -6.00591c-13.9935,0 -20.9902,7.33209 -20.9902,22.0115l0 672.998c0,14.6642 6.99674,21.9963 20.9902,21.9963 14.0087,0 21.0055,-7.33209 21.0055,-21.9963l0 -672.998c0,-14.6794 -6.99674,-22.0115 -21.0055,-22.0115z"
   id="glyph168" />
   <glyph
   unicode="ó"
   horiz-adv-x="537"
   d="M268.999 -7.99466c-43.9975,0 -82.1632,10.3296 -114.497,30.9995 -32.3337,20.6592 -57.3399,49.6573 -75.0078,86.9944 -17.6571,37.3371 -26.4911,81.3347 -26.4911,132.003 0,50.6687 8.83394,94.6663 26.4911,131.993 17.6679,37.3371 42.6741,66.3353 75.0078,87.0052 32.3337,20.6699 70.4994,30.9995 114.497,30.9995 43.9975,0 82.1632,-10.3296 114.497,-30.9995 32.3337,-20.6699 57.3399,-49.6681 75.0078,-87.0052 17.6679,-37.3264 26.4911,-81.3239 26.4911,-131.993 0,-50.6687 -8.82318,-94.6663 -26.4911,-132.003 -17.6679,-37.3371 -42.6741,-66.3353 -75.0078,-86.9944 -32.3337,-20.6699 -70.4994,-30.9995 -114.497,-30.9995zm0 38.9942c53.3372,0 95.5056,18.4964 126.505,55.5 30.9995,37.0036 46.4939,88.8344 46.4939,155.503 0,66.6688 -15.4944,118.5 -46.4939,155.492 -30.9995,37.0036 -73.1678,55.5 -126.505,55.5 -52.6701,0 -94.6663,-18.4964 -125.999,-55.5 -31.3331,-36.9928 -46.9996,-88.8236 -46.9996,-155.492 0,-66.6688 15.6665,-118.5 46.9996,-155.503 31.3331,-37.0036 73.3292,-55.5 125.999,-55.5zm20.0028 520.998c-3.33559,-5.32619 -8.00542,-7.99466 -13.9987,-7.99466 -6.00407,0 -10.6739,2.33492 -13.9987,6.99399 -3.33559,4.66983 -3.33559,10.3403 0,17.0008l90.9971 175c5.99331,10.6739 13.3316,15.8387 21.9934,15.5051 8.67254,-0.333559 15.5051,-4.00271 20.5085,-11.0075 4.99263,-6.99399 4.49767,-15.1608 -1.5064,-24.5005l-103.995 -170.998z"
   id="glyph170" />
   <glyph
   unicode="y"
   horiz-adv-x="503"
   d="M179.995 -186c-9.32898,0 -15.1672,3.50599 -17.4995,10.5027 -2.33225,6.99674 -1.82921,14.8319 1.5091,23.4901l64.998 149.005 -196 458.004c-4.00902,9.32898 -4.32914,17.4995 -1.00607,24.4962 3.33831,6.99674 9.9997,10.5027 19.9994,10.5027 6.00591,0 10.5027,-1.49386 13.5057,-4.49681 3.00296,-3.00296 5.83824,-7.16442 8.50584,-12.4996l177.998 -430.002 178.988 430.002c2.6676,5.99067 5.50288,10.3351 8.50584,13.0027 3.00296,2.6676 7.83513,3.99378 14.4965,3.99378 9.34423,0 15.1672,-3.50599 17.4995,-10.5027 2.33225,-6.99674 1.84446,-14.8319 -1.49386,-23.4901l-265.998 -624.005c-2.6676,-6.66138 -5.67056,-11.3411 -9.00887,-14.0087 -3.32307,-2.6676 -8.32292,-3.99378 -14.9995,-3.99378z"
   id="glyph172" />
   <glyph
   unicode="W"
   horiz-adv-x="1091"
   d="M302.994 -6.00591c-11.9966,0 -20.9902,8.0028 -26.9961,24.0084l-230.999 666.992c-2.6676,7.33209 -2.16457,13.5057 1.49386,18.5055 3.67367,4.99985 9.17655,7.49977 16.5086,7.49977 11.3259,0 19.3287,-6.66138 23.9932,-19.9994l216 -627.999 216 624.005c6.00591,15.9904 14.6794,23.9932 26.0053,23.9932 6.66138,0 11.8289,-1.99689 15.5026,-6.00591 3.65843,-3.99378 6.82906,-9.9997 9.49666,-17.9873l217.006 -627.008 217.996 631.002c3.99378,13.338 12.3319,19.9994 24.9992,19.9994 7.33209,0 12.6673,-2.33225 16.0056,-6.99674 3.32307,-4.66449 3.32307,-11.0058 0,-19.0086l-230.999 -666.992c-6.00591,-16.0056 -14.9995,-24.0084 -27.0114,-24.0084 -7.33209,0 -12.9874,2.01213 -16.9964,6.00591 -3.99378,3.99378 -7.66745,9.9997 -10.9905,18.0025l-215.009 623.99 -216 -623.99c-2.6676,-8.0028 -5.83824,-14.0087 -9.49666,-18.0025 -3.67367,-3.99378 -9.17655,-6.00591 -16.5086,-6.00591z"
   id="glyph174" />
   <glyph
   unicode="v"
   horiz-adv-x="503"
   d="M251.999 -5.99998c-13.996,0 -25.0038,8.66926 -32.9999,25.996l-185.999 434.998c-4.00392,9.34248 -4.33463,17.5039 -1.00393,24.5078 3.34251,6.9921 10.0039,10.5 20.0078,10.5 5.99998,0 10.5,-1.49999 13.4999,-4.49998 2.99999,-2.99999 5.83462,-7.16926 8.49209,-12.5078l178.003 -428.998 178.995 428.998c2.66928,5.33856 5.50392,9.50784 8.5039,12.5078 2.99999,2.99999 7.83068,4.49998 14.5039,4.49998 9.33067,0 15.1653,-3.50786 17.4921,-10.5 2.33857,-7.00391 1.84251,-14.8346 -1.49999,-23.5038l-184.995 -436.002c-7.33462,-17.3267 -18.3306,-25.996 -32.9999,-25.996z"
   id="glyph176" />
   <glyph
   unicode="T"
   horiz-adv-x="586"
   d="M292.994 -6.00591c-13.9935,0 -20.9902,7.33209 -20.9902,22.0115l0 649.995 -253.011 0c-14.6642,0 -21.9963,6.66138 -21.9963,19.9994 0,12.6673 7.33209,18.9933 21.9963,18.9933l548.002 0c14.6642,0 22.0115,-6.32603 22.0115,-18.9933 0,-13.338 -7.34734,-19.9994 -22.0115,-19.9994l-252.995 0 0 -649.995c0,-14.6794 -6.99674,-22.0115 -21.0055,-22.0115z"
   id="glyph178" />
   <glyph
   unicode="C"
   horiz-adv-x="667"
   d="M381 -7.99466c-66.0017,0 -122.33,14.4937 -168.996,43.4918 -46.666,28.9981 -82.5075,70.4994 -107.503,124.504 -25.0062,54.0043 -37.4985,118.327 -37.4985,193.002 0,74.6635 12.4923,138.836 37.4985,192.496 24.9954,53.6708 60.8369,94.9998 107.503,123.998 46.666,28.9981 102.995,43.5026 168.996,43.5026 45.3318,0 87.5001,-6.99399 126.505,-21.0035 38.9942,-13.9987 72.1564,-34.3243 99.4975,-60.9983 7.99466,-7.32754 11.1689,-14.9994 9.50106,-22.9941 -1.6678,-8.00542 -5.83191,-13.3316 -12.5031,-16.0001 -6.67119,-2.66847 -14.3323,-0.333559 -23.0048,6.99399 -53.3264,48.6674 -120.329,73.0064 -200.996,73.0064 -86.0045,0 -152.168,-27.8361 -198.5,-83.5082 -46.3325,-55.6614 -69.4987,-134.166 -69.4987,-235.493 0,-101.337 23.1662,-180.004 69.4987,-235.999 46.3325,-56.0057 112.496,-84.0031 198.5,-84.0031 80.0004,0 147.003,24.6619 200.996,73.9964 8.67254,8.00542 16.5058,10.3403 23.4998,7.00475 7.00475,-3.33559 11.341,-8.83394 13.0088,-16.5058 1.65704,-7.6611 -1.17284,-14.8272 -8.50038,-21.4984 -58.6742,-55.9949 -134.672,-83.9924 -228.004,-83.9924z"
   id="glyph180" />
   <glyph
   unicode="e"
   horiz-adv-x="522"
   d="M286 -7.99466c-71.995,0 -128.829,22.1656 -170.503,66.4967 -41.6626,44.3311 -62.4939,104.834 -62.4939,181.499 0,50.6687 9.50106,94.8277 28.4924,132.498 19.0021,37.6707 45.3425,67.0024 78.9998,87.9951 33.668,21.0035 72.5007,31.5052 116.509,31.5052 62.6661,0 111.333,-20.4978 145.991,-61.504 34.6686,-40.9955 52.003,-97.8297 52.003,-170.492 0,-17.3343 -7.32754,-26.0069 -22.0042,-26.0069l-356.995 0c1.33424,-64.6675 18.335,-114.669 51.0023,-149.994 32.6673,-35.3358 78.3326,-53.0036 136.996,-53.0036 26.6632,0 51.6694,3.49699 74.997,10.5017 23.3384,6.99399 46.3325,19.4971 69.0037,37.4985 8.66178,6.67119 16.495,8.66178 23.4998,6.00407 7.00475,-2.66847 11.3303,-7.67186 12.9981,-14.9994 1.6678,-7.3383 -1.8292,-14.6658 -10.5017,-22.0042 -20.6592,-17.3343 -45.9989,-30.9995 -75.9977,-40.9955 -29.9988,-10.0068 -60.6648,-14.9994 -91.9978,-14.9994zm-9.99602 461.99c-54.0043,0 -96.1727,-17.3343 -126.505,-51.9922 -30.3324,-34.6686 -47.8281,-78.3326 -52.4979,-131.003l339.004 0c-2.00136,56.662 -16.3336,101.337 -43.0076,133.994 -26.6632,32.6673 -65.6681,49.0009 -116.993,49.0009z"
   id="glyph182" />
   <glyph
   unicode="b"
   horiz-adv-x="567"
   d="M299.999 -7.99466c-40.662,0 -75.9977,9.15674 -105.997,27.4917 -29.9988,18.335 -52.3365,43.5026 -67.0024,75.5028l0 -78.9998c0,-14.6658 -7.00475,-22.0042 -21.0035,-22.0042 -13.9987,0 -20.9927,7.3383 -20.9927,22.0042l0 673.004c0,14.6658 6.99399,21.9934 20.9927,21.9934 13.9987,0 21.0035,-7.32754 21.0035,-21.9934l0 -300.01c14.6658,32.0002 37.0036,57.1678 67.0024,75.5028 29.9988,18.335 65.3346,27.5025 105.997,27.5025 66.0017,0 118.338,-22.4991 156.999,-67.4973 38.6714,-44.9982 58.007,-105.835 58.007,-182.5 0,-50.6687 -8.83394,-94.8384 -26.5018,-132.498 -17.6679,-37.6707 -42.5019,-66.6688 -74.5021,-87.0052 -32.0002,-20.3364 -70.0044,-30.4938 -114.002,-30.4938zm-1.00068 38.9942c53.3372,0 95.5056,18.4964 126.505,55.5 30.9995,37.0036 46.4939,88.8344 46.4939,155.503 0,66.6688 -15.4944,118.5 -46.4939,155.492 -30.9995,37.0036 -73.1678,55.5 -126.505,55.5 -52.6701,0 -94.6663,-18.4964 -125.999,-55.5 -31.3331,-36.9928 -46.9996,-88.8236 -46.9996,-155.492 0,-66.6688 15.6665,-118.5 46.9996,-155.503 31.3331,-37.0036 73.3292,-55.5 125.999,-55.5z"
   id="glyph184" />
   <glyph
   unicode="s"
   horiz-adv-x="474"
   d="M235.999 -7.99466c-30.6659,0 -60.3312,4.32551 -88.9958,12.9981 -28.6646,8.66178 -56.6728,23.3276 -84.0031,43.9975 -6.00407,4.66983 -8.50038,10.6631 -7.4997,18.0014 1.00068,7.32754 4.49767,12.9981 10.5017,17.0008 5.99331,3.99195 12.9981,3.00203 21.0035,-3.00203 25.329,-18.6686 50.658,-31.6666 75.9977,-39.0049 25.329,-7.32754 50.6687,-10.9967 75.9977,-10.9967 43.3304,0 76.5034,8.33898 99.4975,24.9954 23.0048,16.6672 34.5072,39.3385 34.5072,68.0031 0,22.6713 -7.51046,40.5006 -22.5099,53.4986 -14.9994,12.9981 -39.1663,23.4998 -72.5007,31.5052l-82.9917 20.0028c-42.007,9.99602 -72.8343,25.329 -92.5035,45.9989 -19.6692,20.6592 -29.5039,47.3331 -29.5039,80.0004 0,41.3291 15.8387,74.4913 47.5053,99.4975 31.6666,24.9954 73.835,37.4985 126.494,37.4985 29.3425,0 57.5013,-4.66983 84.5089,-13.9987 26.9968,-9.33966 49.8295,-23.3384 68.498,-41.9962 6.66043,-6.67119 9.3289,-13.6759 7.99466,-21.0035 -1.33424,-7.3383 -5.16479,-12.3309 -11.4917,-14.9994 -6.33763,-2.66847 -13.5038,-0.667119 -21.5092,5.99331 -18.6578,16.0001 -38.9942,27.8361 -60.9983,35.5079 -21.9934,7.6611 -44.6647,11.4917 -67.9923,11.4917 -40.6727,0 -72.3393,-8.82318 -95.0106,-26.4911 -22.6605,-17.6679 -33.9908,-41.1677 -33.9908,-70.4994 0,-22.6713 6.99399,-41.0063 20.9927,-55.005 13.9987,-13.9987 36.3364,-24.6619 67.0024,-32.0002l83.0025 -20.0028c43.3304,-10.6631 75.6642,-25.6625 97.0012,-44.9982 21.3263,-19.3357 32.0002,-45.3318 32.0002,-77.9991 0,-40.662 -16.3336,-73.1678 -49.0009,-97.4962 -32.6673,-24.3391 -76.6648,-36.4978 -132.003,-36.4978z"
   id="glyph186" />
   <glyph
   unicode="N"
   horiz-adv-x="732"
   d="M116.003 -6.00591c-13.338,0 -19.9994,7.33209 -19.9994,22.0115l0 671.992c0,15.3349 5.99067,23.0023 18.0025,23.0023 5.99067,0 10.4875,-1.00607 13.4904,-3.00296 3.00296,-1.99689 6.17359,-5.67056 9.49666,-10.9905l460.001 -625.011 0 617.009c0,14.6642 6.67663,21.9963 19.9994,21.9963 12.6673,0 19.0086,-7.33209 19.0086,-21.9963l0 -672.007c0,-15.3349 -5.67056,-23.0023 -16.9964,-23.0023 -8.67352,0 -16.341,4.67974 -23.0023,14.0087l-461.007 626.002 0 -617.999c0,-14.6794 -6.32603,-22.0115 -18.9933,-22.0115z"
   id="glyph188" />
   <glyph
   unicode=","
   horiz-adv-x="210"
   d="M108 -84.9974c-6.00591,-8.0028 -12.3319,-11.6765 -18.9933,-11.0058 -6.67663,0.670711 -11.0058,4.00902 -13.0027,9.9997 -1.99689,6.00591 0,13.338 5.99067,21.9963 6.67663,9.9997 11.8442,20.3347 15.5026,31.0052 3.67367,10.6704 6.17359,20.6701 7.49977,29.9991 -11.3259,0.670711 -20.3347,4.49681 -26.9961,11.5088 -6.66138,6.99674 -9.9997,15.8227 -9.9997,26.4931 0,11.3411 3.33831,20.5024 9.9997,27.4992 6.66138,6.99674 15.3349,10.5027 26.0053,10.5027 11.3259,0 20.4872,-3.99378 27.4992,-11.9966 6.99674,-8.0028 10.4875,-19.9994 10.4875,-36.005 0,-16.6611 -2.82004,-35.502 -8.49059,-56.4922 -5.67056,-21.0055 -14.1612,-38.8403 -25.5023,-53.5045z"
   id="glyph190" />
   <glyph
   unicode="p"
   horiz-adv-x="568"
   d="M106.003 -186c-14.0087,0 -21.0055,7.33209 -21.0055,21.9963l0 632.008c0,14.6642 6.99674,21.9963 21.0055,21.9963 13.9935,0 20.9902,-7.33209 20.9902,-21.9963l0 -79.0067c14.6794,31.996 37.0111,57.1629 67.0102,75.5007 29.9991,18.3379 65.3334,27.4992 106.003,27.4992 43.9926,0 81.9945,-10.1674 113.99,-30.5021 31.996,-20.3347 56.8428,-49.1601 74.5099,-86.4913 17.6671,-37.3312 26.4931,-81.6743 26.4931,-132.999 0,-76.6745 -19.3287,-137.511 -58.0013,-182.51 -38.6574,-44.9986 -91.0033,-67.4979 -156.992,-67.4979 -40.6695,0 -76.0038,9.17655 -106.003,27.4992 -29.9991,18.3379 -52.3307,43.5048 -67.0102,75.5007l0 -259.001c0,-14.6642 -6.99674,-21.9963 -20.9902,-21.9963zm192.997 217.006c53.3368,0 95.5001,18.4903 126.505,55.5014 30.9899,36.9958 46.4925,88.8235 46.4925,155.498 0,66.6596 -15.5026,118.502 -46.4925,155.498 -31.0052,36.9958 -73.1685,55.5014 -126.505,55.5014 -52.6661,0 -94.6617,-18.5055 -126.002,-55.5014 -31.3253,-36.9958 -46.9955,-88.8388 -46.9955,-155.498 0,-66.6748 15.6703,-118.502 46.9955,-155.498 31.3405,-37.0111 73.3362,-55.5014 126.002,-55.5014z"
   id="glyph192" />
   <glyph
   unicode="m"
   horiz-adv-x="837"
   d="M107.998 -6.00407c-13.9987,0 -20.9927,7.3383 -20.9927,22.0042l0 452.005c0,14.6658 6.99399,21.9934 20.9927,21.9934 13.3316,0 20.0028,-7.32754 20.0028,-21.9934l0 -72.0058c14.6658,31.3331 35.1636,55.1664 61.504,71.5 26.3297,16.3336 57.157,24.5005 92.4928,24.5005 77.9991,0 127,-34.0015 147.003,-102.005 13.9987,31.3331 35.3358,56.1671 64.0003,74.5021 28.6646,18.335 62.3325,27.5025 101.004,27.5025 105.997,0 159,-61.3319 159,-183.996l0 -292.004c0,-14.6658 -7.00475,-22.0042 -21.0035,-22.0042 -13.9987,0 -21.0035,7.3383 -21.0035,22.0042l0 288.002c0,51.3359 -9.1675,88.9958 -27.5025,113.001 -18.3242,23.9947 -48.8288,35.9921 -91.4921,35.9921 -45.9989,0 -82.6689,-15.8279 -109.999,-47.4945 -27.3411,-31.6666 -41.0063,-74.1685 -41.0063,-127.506l0 -261.995c0,-14.6658 -6.99399,-22.0042 -20.9927,-22.0042 -14.0095,0 -21.0035,7.3383 -21.0035,22.0042l0 288.002c0,51.3359 -9.1675,88.9958 -27.5025,113.001 -18.335,23.9947 -48.8288,35.9921 -91.5028,35.9921 -45.9989,0 -82.6581,-15.8279 -109.999,-47.4945 -27.3303,-31.6666 -40.9955,-74.1685 -40.9955,-127.506l0 -261.995c0,-14.6658 -7.00475,-22.0042 -21.0035,-22.0042z"
   id="glyph194" />
   <glyph
   unicode="j"
   horiz-adv-x="214"
   d="M109.006 616.003c-23.3377,0 -34.9989,11.6612 -34.9989,34.9989 0,22.667 11.6612,33.9929 34.9989,33.9929 23.3225,0 34.9989,-11.3259 34.9989,-33.9929 0,-23.3377 -11.6765,-34.9989 -34.9989,-34.9989zm-145.011 -808.009c-9.32898,0 -15.9904,3.17064 -19.9994,9.51191 -3.99378,6.32603 -4.49681,12.6673 -1.49386,18.9933 3.00296,6.34127 9.16131,9.49666 18.5055,9.49666 42.6664,1.34142 74.4947,12.1643 95.5001,32.499 20.9902,20.3347 31.4929,53.5045 31.4929,99.5092l0 490c0,14.6642 6.99674,21.9963 21.0055,21.9963 13.9935,0 20.9902,-7.33209 20.9902,-21.9963l0 -489.009c0,-58.6567 -14.9995,-101.826 -44.9986,-129.493 -29.9991,-27.6668 -70.3332,-41.5079 -121.002,-41.5079z"
   id="glyph196" />
   <glyph
   unicode="Y"
   horiz-adv-x="576"
   d="M287.994 -6.00591c-13.9935,0 -20.9902,7.66745 -20.9902,23.0023l0 325.996 -249.002 336.011c-6.67663,9.32898 -8.17048,16.9964 -4.49681,23.0023 3.65843,5.99067 8.82595,8.99363 15.4873,8.99363 9.9997,0 18.3379,-4.66449 25.0145,-13.9935l235.999 -318.999 234.993 318.999c6.66138,9.32898 14.6642,13.9935 23.9932,13.9935 7.34734,0 12.5149,-3.00296 15.5026,-8.99363 3.00296,-6.00591 1.17374,-13.6734 -5.48764,-23.0023l-250.008 -337.002 0 -325.005c0,-15.3349 -6.99674,-23.0023 -21.0055,-23.0023z"
   id="glyph198" />
   <glyph
   unicode="á"
   horiz-adv-x="514"
   d="M230.995 -7.99466c-31.3331,0 -59.6641,6.32687 -84.9931,18.9914 -25.3397,12.6753 -45.3318,29.8374 -59.9976,51.508 -14.6658,21.6598 -22.0042,45.8267 -22.0042,72.49 0,36.0029 8.83394,64.1725 26.5018,84.5089 17.6679,20.3256 48.0003,34.6579 90.9971,42.9969 42.9969,8.32822 102.166,12.5031 177.497,12.5031l29.9988 0 0 39.9948c0,48.0003 -9.3289,83.0025 -27.9975,105.007 -18.6686,21.9934 -48.6674,32.9901 -89.9964,32.9901 -50.6687,0 -101.671,-14.9994 -152.996,-44.9982 -9.33966,-5.32619 -17.0008,-5.83191 -23.0048,-1.49564 -6.00407,4.33627 -8.99534,10.5017 -8.99534,18.4964 0,8.00542 3.65839,13.9987 10.9967,18.0014 27.3303,16.6672 55.6614,28.9981 85.0038,37.0036 29.3317,7.99466 58.3298,11.9974 86.9944,11.9974 55.3386,0 96.1619,-14.3323 122.502,-42.9969 26.3297,-28.6646 39.4999,-73.34 39.4999,-134.005l0 -298.998c0,-14.6658 -6.67119,-22.0042 -20.0028,-22.0042 -13.9987,0 -21.0035,7.3383 -21.0035,22.0042l0 73.9964c-13.9987,-30.6659 -34.83,-54.6607 -62.4939,-71.995 -27.6639,-17.3343 -59.8362,-25.9961 -96.5062,-25.9961zm3.00203 37.9935c30.6659,0 57.5013,7.4997 80.5061,22.4991 22.9941,14.9994 41.1677,35.3358 54.4993,60.9983 13.3316,25.6733 19.992,54.8328 19.992,87.5001l0 37.0036 -27.9975 0c-66.0017,0 -117.165,-2.82987 -153.502,-8.50038 -36.3257,-5.67051 -61.6654,-15.6665 -75.9977,-29.9988 -14.3323,-14.3323 -21.4984,-34.4965 -21.4984,-60.5034 0,-32.0002 11.1689,-58.1684 33.4958,-78.494 22.3377,-20.3364 52.5087,-30.5045 90.5022,-30.5045zm51.0023 521.999c-3.33559,-5.32619 -7.99466,-7.99466 -13.9987,-7.99466 -6.00407,0 -10.6631,2.33492 -13.9987,6.99399 -3.33559,4.66983 -3.33559,10.3403 0,17.0008l90.9971 175c6.00407,10.6739 13.3316,15.8387 22.0042,15.5051 8.66178,-0.333559 15.4944,-4.00271 20.4978,-11.0075 5.00339,-6.99399 4.49767,-15.1608 -1.5064,-24.5005l-103.995 -170.998z"
   id="glyph200" />
   <glyph
   unicode="E"
   horiz-adv-x="569"
   d="M121.002 0c-16.6763,0 -24.9992,8.33816 -24.9992,24.9992l0 654.995c0,16.6763 8.32292,24.9992 24.9992,24.9992l383.997 0c13.9935,0 21.0055,-6.32603 21.0055,-18.9933 0,-13.338 -7.01198,-19.9994 -21.0055,-19.9994l-367.001 0 0 -289 347.002 0c13.9935,0 21.0055,-6.34127 21.0055,-18.9933 0,-13.338 -7.01198,-20.0146 -21.0055,-20.0146l-347.002 0 0 -299 367.001 0c13.9935,0 21.0055,-6.32603 21.0055,-18.9933 0,-13.338 -7.01198,-19.9994 -21.0055,-19.9994l-383.997 0z"
   id="glyph202" />
   <glyph
   unicode="g"
   horiz-adv-x="569"
   d="M290.006 -187.997c-35.3343,0 -69.8454,4.99985 -103.503,14.9995 -33.6728,9.9997 -64.1749,25.6699 -91.5064,46.9955 -5.99067,4.66449 -8.32292,10.5027 -6.99674,17.4995 1.32618,6.99674 4.83217,12.4996 10.5027,16.5086 5.67056,3.99378 11.8289,3.65843 18.4903,-1.00607 29.3436,-20.6701 57.5135,-35.1666 84.5096,-43.5048 26.9961,-8.32292 56.8275,-12.4996 89.4942,-12.4996 49.9985,0 88.0004,14.1764 114.006,42.4987 25.9901,28.3376 38.9927,68.8394 38.9927,121.505l0 101.994c-13.9935,-33.3222 -36.3251,-59.3275 -66.9949,-78.0007 -30.6698,-18.658 -66.0041,-27.987 -106.003,-27.987 -44.6633,0 -83.3359,10.1674 -116.003,30.4869 -32.6667,20.3347 -57.8336,48.6723 -75.5007,85.0127 -17.6671,36.3251 -26.4931,78.1683 -26.4931,125.499 0,48.0016 8.82595,89.9973 26.4931,126.002 17.6671,35.9898 42.8341,63.992 75.5007,83.9913 32.6667,19.9994 71.3393,29.9991 116.003,29.9991 39.3281,0 74.3422,-9.16131 104.997,-27.4992 30.6698,-18.3379 53.0014,-43.5048 67.0102,-75.5007l0 79.0067c0,14.6642 6.99674,21.9963 20.9902,21.9963 14.0087,0 21.0055,-7.33209 21.0055,-21.9963l0 -446.008c0,-139.996 -64.998,-209.994 -194.994,-209.994zm-19.9994 237.996c53.3215,0 95.6526,18.3379 126.993,54.9983 31.3405,36.6757 46.9955,85.6681 46.9955,147.008 0,61.3243 -15.655,110.164 -46.9955,146.489 -31.3405,36.3404 -73.6715,54.5105 -126.993,54.5105 -53.3368,0 -95.6678,-18.1702 -127.008,-54.5105 -31.3253,-36.3251 -46.9955,-85.1651 -46.9955,-146.489 0,-61.3396 15.6703,-110.332 46.9955,-147.008 31.3405,-36.6605 73.6715,-54.9983 127.008,-54.9983z"
   id="glyph204" />
   <glyph
   unicode="B"
   horiz-adv-x="666"
   d="M121.002 0c-16.6763,0 -24.9992,8.33816 -24.9992,24.9992l0 654.995c0,16.6763 8.32292,24.9992 24.9992,24.9992l232.996 0c71.3393,0 126.673,-15.9904 166.001,-47.9863 39.3281,-32.0112 59.0073,-77.6806 59.0073,-137.008 0,-39.3281 -10.5027,-72.6655 -31.5082,-99.997 -21.0055,-27.3315 -49.4954,-47.3309 -85.5004,-59.9982 41.3402,-9.34423 73.8392,-28.6729 97.497,-58.0013 23.6731,-29.3436 35.502,-66.3394 35.502,-111.003 0,-62.6658 -19.664,-110.164 -58.9921,-142.496 -39.3433,-32.3313 -95.6678,-48.5046 -169.004,-48.5046l-245.999 0zm16.9964 375.995l212.997 0c59.9982,0 105.668,12.4996 137.008,37.4989 31.3253,24.9992 46.9955,60.8366 46.9955,107.512 0,47.3309 -15.6703,83.3206 -46.9955,108 -31.3405,24.6639 -77.0098,36.9958 -137.008,36.9958l-212.997 0 0 -290.006zm0 -337.002l227.996 0c61.3396,0 107.512,12.1795 138.502,36.508 31.0052,24.3285 46.5077,61.8274 46.5077,112.497 0,51.3399 -15.5026,89.0064 -46.5077,113 -30.9899,24.0084 -77.1623,36.005 -138.502,36.005l-227.996 0 0 -298.009z"
   id="glyph206" />
   <glyph
   unicode="u"
   horiz-adv-x="545"
   d="M254 -7.99466c-57.3292,0 -100.165,15.6665 -128.496,46.9996 -28.3418,31.3331 -42.5019,77.332 -42.5019,137.997l0 291.004c0,14.6658 6.99399,21.9934 20.9927,21.9934 14.0095,0 21.0035,-7.32754 21.0035,-21.9934l0 -287.001c0,-50.6687 10.3296,-88.3394 30.9995,-113.001 20.6699,-24.6726 53.3372,-37.0036 98.0019,-37.0036 48.6674,0 88.1673,16.1722 118.5,48.4952 30.3324,32.3337 45.5039,74.8356 45.5039,127.506l0 261.005c0,14.6658 6.99399,21.9934 20.9927,21.9934 13.9987,0 21.0035,-7.32754 21.0035,-21.9934l0 -452.005c0,-14.6658 -6.67119,-22.0042 -20.0028,-22.0042 -13.9987,0 -20.9927,7.3383 -20.9927,22.0042l0 73.9964c-15.333,-32.0002 -37.6707,-56.3285 -67.0024,-72.9957 -29.3317,-16.6672 -61.999,-24.9954 -98.0019,-24.9954z"
   id="glyph208" />
   <glyph
   unicode="d"
   horiz-adv-x="567"
   d="M267.999 -7.99466c-43.3304,0 -81.1625,10.1574 -113.496,30.4938 -32.3337,20.3364 -57.3399,49.3345 -75.0078,87.0052 -17.6571,37.6599 -26.4911,81.8296 -26.4911,132.498 0,76.6648 19.3249,137.502 57.9963,182.5 38.6714,44.9982 90.9971,67.4973 156.999,67.4973 40.6727,0 75.9977,-9.1675 105.997,-27.5025 30.0096,-18.335 52.3365,-43.5026 67.0024,-75.5028l0 300.01c0,14.6658 7.00475,21.9934 21.0035,21.9934 13.9987,0 21.0035,-7.32754 21.0035,-21.9934l0 -673.004c0,-14.6658 -7.00475,-22.0042 -21.0035,-22.0042 -13.9987,0 -21.0035,7.3383 -21.0035,22.0042l0 78.9998c-14.6658,-32.0002 -36.9928,-57.1678 -67.0024,-75.5028 -29.9988,-18.335 -65.3238,-27.4917 -105.997,-27.4917zm1.00068 38.9942c53.3372,0 95.5056,18.4964 126.505,55.5 30.9995,37.0036 46.4939,88.8344 46.4939,155.503 0,66.6688 -15.4944,118.5 -46.4939,155.492 -30.9995,37.0036 -73.1678,55.5 -126.505,55.5 -52.6701,0 -94.6663,-18.4964 -125.999,-55.5 -31.3331,-36.9928 -46.9996,-88.8236 -46.9996,-155.492 0,-66.6688 15.6665,-118.5 46.9996,-155.503 31.3331,-37.0036 73.3292,-55.5 125.999,-55.5z"
   id="glyph210" />
   <glyph
   unicode="S"
   horiz-adv-x="599"
   d="M309.995 -7.99466c-101.994,0 -184.663,25.6625 -247.996,76.9984 -7.99466,6.66043 -11.5024,13.9987 -10.5017,21.9934 1.00068,8.00542 5.00339,13.8373 11.9974,17.5065 7.00475,3.65839 14.5044,2.16276 22.5099,-4.50843 31.3331,-24.6619 64.4953,-42.6633 99.4975,-53.9936 35.0022,-11.3303 76.4927,-17.0008 124.493,-17.0008 66.6688,0 116.843,13.3316 150.5,39.9948 33.668,26.674 50.5073,61.999 50.5073,106.007 0,35.9921 -12.3309,64.1617 -37.0036,84.4981 -24.6619,20.3364 -65.001,36.1643 -120.996,47.4945l-99.0026 20.0028c-62.6661,12.6645 -109.332,33.668 -139.998,62.9997 -30.6659,29.3317 -45.9989,69.0037 -45.9989,119.005 0,39.9948 10.1682,74.997 30.4938,104.996 20.3364,29.9988 48.6674,53.3372 85.0038,70.0044 36.3364,16.6672 77.8377,24.9954 124.504,24.9954 43.9975,0 84.3259,-6.49903 120.996,-19.4971 36.67,-12.9981 70.0044,-33.173 100.003,-60.5034 7.99466,-6.66043 11.3303,-14.1601 9.99602,-22.4991 -1.33424,-8.32822 -5.33695,-14.1709 -11.9974,-17.4957 -6.67119,-3.33559 -13.9987,-1.33424 -22.0042,5.99331 -28.6646,25.3397 -58.997,43.8361 -90.9971,55.5 -32.0002,11.6746 -67.3359,17.5065 -105.997,17.5065 -58.6742,0 -106.007,-14.5044 -141.999,-43.5026 -36.0029,-28.9981 -54.0043,-67.4973 -54.0043,-115.498 0,-38.6714 11.3303,-69.1651 34.0015,-91.5028 22.6605,-22.3377 59.3305,-38.4992 109.999,-48.4952l99.0026 -20.0028c67.9923,-13.9987 118.327,-34.5072 150.995,-61.504 32.6673,-26.9968 49.0009,-64.1617 49.0009,-111.495 0,-36.67 -9.83462,-69.1651 -29.5039,-97.5069 -19.6585,-28.331 -47.8281,-50.4966 -84.4981,-66.4967 -36.6592,-16.0001 -80.334,-23.9947 -131.003,-23.9947z"
   id="glyph212" />
   <glyph
   unicode=" "
   horiz-adv-x="246"
   d=""
   id="glyph214" />
   <glyph
   unicode="."
   horiz-adv-x="210"
   d="M106.003 -3.00296c-10.6704,0 -19.664,3.67367 -26.9961,11.0058 -7.34734,7.33209 -11.0058,16.3257 -11.0058,26.9961 0,11.3411 3.65843,20.5024 11.0058,27.4992 7.33209,6.99674 16.3257,10.5027 26.9961,10.5027 11.3259,0 20.3347,-3.50599 26.9961,-10.5027 6.66138,-6.99674 9.9997,-16.158 9.9997,-27.4992 0,-10.6704 -3.33831,-19.664 -9.9997,-26.9961 -6.66138,-7.33209 -15.6703,-11.0058 -26.9961,-11.0058z"
   id="glyph216" />
   <glyph
   unicode="é"
   horiz-adv-x="523"
   d="M285.997 -8.0028c-71.9948,0 -128.838,22.164 -170.498,66.5071 -41.6603,44.3279 -62.4981,104.829 -62.4981,181.488 0,50.6692 9.49666,94.8447 28.5052,132.511 18.9933,37.6665 45.334,66.9949 78.9915,88.0004 33.6728,20.9902 72.4978,31.4929 116.506,31.4929 62.6658,0 111.323,-20.5024 146.002,-61.492 34.6636,-41.0048 51.9954,-97.8324 51.9954,-170.498 0,-17.347 -7.33209,-26.0053 -21.9963,-26.0053l-357.001 0c1.32618,-64.6627 18.3226,-114.661 50.9893,-149.995 32.6667,-35.3343 78.336,-53.0014 137.008,-53.0014 26.6608,0 51.66,3.49075 74.9977,10.4875 23.3377,7.01198 46.3401,19.5116 69.007,37.5141 8.65827,6.66138 16.4934,8.65827 23.4901,5.99067 7.01198,-2.6676 11.3411,-7.66745 13.0027,-14.9995 1.66153,-7.33209 -1.82921,-14.6642 -10.5027,-21.9963 -20.6549,-17.3318 -45.9895,-31.0052 -75.9885,-41.0048 -30.0143,-9.9997 -60.6689,-14.9995 -92.0094,-14.9995zm-9.9997 461.998c-53.9923,0 -96.1708,-17.3318 -126.505,-51.9954 -30.3192,-34.6636 -47.8187,-78.336 -52.4984,-131.002l338.999 0c-1.99689,56.6751 -16.3257,101.338 -42.9865,134.005 -26.676,32.6667 -65.6687,48.9924 -117.009,48.9924zm21.0055 98.0001c-3.33831,-5.3352 -8.0028,-8.0028 -14.0087,-8.0028 -5.99067,0 -10.6552,2.34749 -13.9935,7.01198 -3.33831,4.66449 -3.33831,10.3351 0,16.9964l91.0033 174.995c5.99067,10.6704 13.3228,15.8379 21.9963,15.5026 8.67352,-0.335356 15.5026,-3.99378 20.5024,-11.0058 4.99985,-6.99674 4.49681,-15.152 -1.5091,-24.4962l-103.991 -171.001z"
   id="glyph218" />
   <glyph
   unicode="P"
   horiz-adv-x="615"
   d="M117.004 -6.00407c-13.9987,0 -21.0035,7.3383 -21.0035,22.0042l0 667c0,14.6658 7.32754,22.0042 22.0042,22.0042l232.997 0c73.9964,0 130.669,-17.6679 169.997,-53.0036 39.3385,-35.3358 58.997,-85.6709 58.997,-151.006 0,-65.3238 -19.6585,-115.659 -58.997,-150.995 -39.3277,-35.3358 -96.0005,-53.0036 -169.997,-53.0036l-213.005 0 0 -280.997c0,-14.6658 -6.99399,-22.0042 -20.9927,-22.0042zm20.9927 342.006l212.004 0c123.998,0 185.997,54.9942 185.997,164.993 0,110.01 -61.999,165.004 -185.997,165.004l-212.004 0 0 -329.998z"
   id="glyph220" />
   <glyph
   unicode="r"
   horiz-adv-x="326"
   d="M105.997 -6.00407c-13.9987,0 -20.9927,7.3383 -20.9927,22.0042l0 452.005c0,14.6658 6.99399,21.9934 20.9927,21.9934 13.3316,0 20.0028,-7.32754 20.0028,-21.9934l0 -72.0058c15.333,32.0002 38.0042,56.3392 68.0031,72.9957 29.9988,16.6672 64.0003,25.0062 101.994,25.0062 6.00407,0 11.1689,-1.17284 15.5051,-3.49699 4.33627,-2.33492 6.49903,-6.83259 6.49903,-13.5038 0,-13.9987 -7.3383,-21.337 -22.0042,-22.0042l-11.9974 -1.00068c-49.3345,-4.65907 -87.8337,-21.3263 -115.498,-49.9909 -27.6639,-28.6753 -41.5012,-66.6688 -41.5012,-114.002l0 -274.003c0,-14.6658 -7.00475,-22.0042 -21.0035,-22.0042z"
   id="glyph222" />
   <glyph
   unicode="a"
   horiz-adv-x="514"
   d="M230.995 -7.99466c-31.3331,0 -59.6641,6.32687 -84.9931,18.9914 -25.3397,12.6753 -45.3318,29.8374 -59.9976,51.508 -14.6658,21.6598 -22.0042,45.8267 -22.0042,72.49 0,36.0029 8.83394,64.1725 26.5018,84.5089 17.6679,20.3256 48.0003,34.6579 90.9971,42.9969 42.9969,8.32822 102.166,12.5031 177.497,12.5031l29.9988 0 0 39.9948c0,48.0003 -9.3289,83.0025 -27.9975,105.007 -18.6686,21.9934 -48.6674,32.9901 -89.9964,32.9901 -50.6687,0 -101.671,-14.9994 -152.996,-44.9982 -9.33966,-5.32619 -17.0008,-5.83191 -23.0048,-1.49564 -6.00407,4.33627 -8.99534,10.5017 -8.99534,18.4964 0,8.00542 3.65839,13.9987 10.9967,18.0014 27.3303,16.6672 55.6614,28.9981 85.0038,37.0036 29.3317,7.99466 58.3298,11.9974 86.9944,11.9974 55.3386,0 96.1619,-14.3323 122.502,-42.9969 26.3297,-28.6646 39.4999,-73.34 39.4999,-134.005l0 -298.998c0,-14.6658 -6.67119,-22.0042 -20.0028,-22.0042 -13.9987,0 -21.0035,7.3383 -21.0035,22.0042l0 73.9964c-13.9987,-30.6659 -34.83,-54.6607 -62.4939,-71.995 -27.6639,-17.3343 -59.8362,-25.9961 -96.5062,-25.9961zm3.00203 37.9935c30.6659,0 57.5013,7.4997 80.5061,22.4991 22.9941,14.9994 41.1677,35.3358 54.4993,60.9983 13.3316,25.6733 19.992,54.8328 19.992,87.5001l0 37.0036 -27.9975 0c-66.0017,0 -117.165,-2.82987 -153.502,-8.50038 -36.3257,-5.67051 -61.6654,-15.6665 -75.9977,-29.9988 -14.3323,-14.3323 -21.4984,-34.4965 -21.4984,-60.5034 0,-32.0002 11.1689,-58.1684 33.4958,-78.494 22.3377,-20.3364 52.5087,-30.5045 90.5022,-30.5045z"
   id="glyph224" />
   <glyph
   unicode="M"
   horiz-adv-x="843"
   d="M117.999 -6.00591c-13.338,0 -19.9994,7.33209 -19.9994,22.0115l0 672.998c0,14.6642 6.00591,21.9963 18.0025,21.9963 5.99067,0 10.6704,-1.32618 13.9935,-3.99378 3.33831,-2.6676 6.34127,-6.67663 9.00887,-12.0118l284 -540.99 281.988 540.99c3.33831,5.3352 6.50895,9.34423 9.51191,12.0118 2.98771,2.6676 7.49977,3.99378 13.4904,3.99378 11.9966,0 18.0025,-7.33209 18.0025,-21.9963l0 -672.998c0,-14.6794 -6.32603,-22.0115 -18.9933,-22.0115 -13.338,0 -19.9994,7.33209 -19.9994,22.0115l0 603 -261.013 -499.009c-2.65236,-5.3352 -5.48764,-9.32898 -8.49059,-11.9966 -3.00296,-2.6676 -7.49977,-3.99378 -13.5057,-3.99378 -9.9997,0 -17.6671,5.31996 -23.0023,15.9904l-264.001 499.009 0 -603c0,-14.6794 -6.32603,-22.0115 -18.9933,-22.0115z"
   id="glyph226" />
   <glyph
   unicode="o"
   horiz-adv-x="537"
   d="M268.999 -7.99466c-43.9975,0 -82.1632,10.3296 -114.497,30.9995 -32.3337,20.6592 -57.3399,49.6573 -75.0078,86.9944 -17.6571,37.3371 -26.4911,81.3347 -26.4911,132.003 0,50.6687 8.83394,94.6663 26.4911,131.993 17.6679,37.3371 42.6741,66.3353 75.0078,87.0052 32.3337,20.6699 70.4994,30.9995 114.497,30.9995 43.9975,0 82.1632,-10.3296 114.497,-30.9995 32.3337,-20.6699 57.3399,-49.6681 75.0078,-87.0052 17.6679,-37.3264 26.4911,-81.3239 26.4911,-131.993 0,-50.6687 -8.82318,-94.6663 -26.4911,-132.003 -17.6679,-37.3371 -42.6741,-66.3353 -75.0078,-86.9944 -32.3337,-20.6699 -70.4994,-30.9995 -114.497,-30.9995zm0 38.9942c53.3372,0 95.5056,18.4964 126.505,55.5 30.9995,37.0036 46.4939,88.8344 46.4939,155.503 0,66.6688 -15.4944,118.5 -46.4939,155.492 -30.9995,37.0036 -73.1678,55.5 -126.505,55.5 -52.6701,0 -94.6663,-18.4964 -125.999,-55.5 -31.3331,-36.9928 -46.9996,-88.8236 -46.9996,-155.492 0,-66.6688 15.6665,-118.5 46.9996,-155.503 31.3331,-37.0036 73.3292,-55.5 125.999,-55.5z"
   id="glyph228" />
   <glyph
   unicode="l"
   horiz-adv-x="275"
   d="M216.996 -7.99466c-41.9962,0 -74.4913,13.493 -97.4962,40.4898 -23.0048,27.0075 -34.4965,64.8396 -34.4965,113.507l0 543.002c0,14.6658 6.99399,21.9934 20.9927,21.9934 13.9987,0 21.0035,-7.32754 21.0035,-21.9934l0 -536.008c0,-81.3347 31.3331,-121.997 93.9992,-121.997 6.67119,0 12.3309,0.333559 17.0008,1.00068 4.66983,0.667119 9.3289,1.00068 13.9987,1.00068 11.3303,0 17.0008,-5.00339 17.0008,-14.9994 0,-7.3383 -2.00136,-12.6645 -6.00407,-16.0001 -3.99195,-3.33559 -10.6631,-6.00407 -19.992,-8.00542 -4.66983,-0.667119 -9.1675,-1.16208 -13.5038,-1.49564 -4.33627,-0.333559 -8.50038,-0.494959 -12.5031,-0.494959z"
   id="glyph230" />
   <glyph
   unicode="z"
   horiz-adv-x="453"
   d="M76.9946 0c-10.6552,0 -16.9964,3.8261 -18.9933,11.4936 -1.99689,7.66745 0.670711,16.5086 8.0028,26.5083l294 410.003 -287.003 0c-12.6673,0 -18.9933,5.99067 -18.9933,18.0025 0,11.9966 6.32603,17.9873 18.9933,17.9873l317.003 0c12.6673,0 20.1671,-3.65843 22.4993,-10.9905 2.33225,-7.33209 0.167678,-15.6703 -6.50895,-24.9992l-295.997 -412 298.009 0c12.6673,0 18.9933,-6.00591 18.9933,-18.0025 0,-11.9966 -6.32603,-18.0025 -18.9933,-18.0025l-331.011 0z"
   id="glyph232" />
   <glyph
   unicode="G"
   horiz-adv-x="717"
   d="M402 -8.0028c-109.326,0 -192.494,31.5082 -249.505,94.5093 -56.9952,62.9859 -85.5004,151.825 -85.5004,266.501 0,74.6624 12.4996,138.822 37.4989,192.494 24.9992,53.6721 60.8366,94.9971 107.512,124.005 46.6602,28.993 103,43.4895 168.989,43.4895 46.6754,0 90.3326,-6.99674 131.002,-20.9902 40.6695,-14.0087 75.3331,-35.6696 104.006,-65.0133 6.66138,-5.99067 8.99363,-12.8197 6.99674,-20.4872 -1.99689,-7.66745 -6.15835,-13.1703 -12.4996,-16.5086 -6.32603,-3.32307 -13.1703,-1.66153 -20.5024,4.99985 -28.6577,27.3315 -60.5012,46.9955 -95.5001,59.0073 -34.9989,11.9966 -73.1685,18.0025 -114.493,18.0025 -86.0035,0 -152.175,-27.8345 -198.5,-83.5036 -46.3401,-55.669 -69.5101,-134.173 -69.5101,-235.496 0,-104.006 24.0084,-183.348 72.01,-238.011 48.0016,-54.663 120.332,-81.9945 216.99,-81.9945 68.6717,0 131.002,11.6612 187.006,34.9989l0 247.995 -172.998 0c-14.0087,0 -21.0055,6.67663 -21.0055,19.9994 0,12.6673 6.99674,19.0086 21.0055,19.0086l191.991 0c14.0087,0 21.0055,-7.01198 21.0055,-21.0055l0 -277.004c0,-11.3259 -3.65843,-18.9933 -11.0058,-23.0023 -25.9901,-11.9966 -58.9921,-21.9963 -98.9909,-29.9991 -39.9988,-7.98756 -78.6714,-11.9966 -116.003,-11.9966z"
   id="glyph234" />
   <glyph
   unicode="i"
   horiz-adv-x="212"
   d="M105.997 615.998c-23.3276,0 -34.9914,11.6638 -34.9914,35.0022 0,22.6713 11.6638,34.0015 34.9914,34.0015 23.3384,0 35.0022,-11.3303 35.0022,-34.0015 0,-23.3384 -11.6638,-35.0022 -35.0022,-35.0022zm0 -619c-13.9987,0 -20.9927,7.3383 -20.9927,22.0042l0 446.001c0,14.6658 6.99399,21.9934 20.9927,21.9934 13.9987,0 21.0035,-7.32754 21.0035,-21.9934l0 -446.001c0,-14.6658 -7.00475,-22.0042 -21.0035,-22.0042z"
   id="glyph236" />
  </font>
  <font
   id="FontID0"
   horiz-adv-x="741"
   font-variant="normal"
   style="fill-rule:nonzero"
   font-weight="700"
   horiz-origin-x="0"
   horiz-origin-y="0"
   vert-origin-x="512"
   vert-origin-y="768"
   vert-adv-y="1024">
	<font-face
   font-family="Nunito Sans"
   id="font-face239">
		<font-face-src>
			<font-face-name
   name="Nunito Sans Bold" />
		</font-face-src>
	</font-face>
   <missing-glyph
   id="missing-glyph243"><path
     d="M0 0z"
     id="path241" /></missing-glyph>
   <glyph
   unicode="c"
   horiz-adv-x="487"
   d="M288.002 -7.99928c-51.3351,0 -95.8324,10.3292 -133.499,31.0015 -37.6665,20.6654 -66.504,50.0007 -86.5056,87.999 -19.9947,37.9983 -29.999,82.3297 -29.999,133.001 0,50.6644 10.5021,95.5005 31.4993,134.494 21.0042,39.0008 50.8373,69.1727 89.4993,90.5018 38.669,21.336 83.3391,32.004 134.004,32.004 34.6659,0 68.5021,-5.50339 101.502,-16.5033 32.9996,-10.9999 59.5003,-25.83 79.495,-44.4973l-36.0002 -87.999c-20.6654,16.6623 -42.4992,29.3284 -65.4945,37.9983 -23.0023,8.66301 -45.8386,12.998 -68.5021,12.998 -43.3358,0 -76.9991,-13.4958 -100.997,-40.5011 -24.0048,-26.9984 -36.0002,-65.8333 -36.0002,-116.498 0,-50.0007 11.9955,-88.5037 36.0002,-115.502 23.9978,-26.9984 57.6612,-40.5011 100.997,-40.5011 22.6635,0 45.4998,4.33496 68.5021,13.0049 22.9953,8.66301 44.8292,21.3291 65.4945,37.9983l36.0002 -87.0034c-21.3291,-19.331 -48.6663,-34.4999 -81.9978,-45.4998 -33.3315,-10.9999 -67.9973,-16.4964 -103.998,-16.4964z"
   id="glyph245" />
   <glyph
   unicode="n"
   horiz-adv-x="584"
   d="M349.002 501.003c58.6637,0 102.331,-16.6692 130.996,-50.0007 28.6716,-33.3384 43.0039,-83.671 43.0039,-151.005l0 -299.997 -125.002 0 0 293c0,37.9983 -7.16962,65.6674 -21.502,83.0003 -14.3323,17.3329 -36.8299,25.9959 -67.4996,25.9959 -36.0002,0 -64.8308,-11.3317 -86.4987,-33.9952 -21.6679,-22.6704 -32.5018,-53.0013 -32.5018,-90.9996l0 -277.002 -125.002 0 0 489 122.001 0 0 -73.0029c16.6692,27.3372 39.0008,48.3345 67.0018,63.0056 28.0009,14.6642 59.6662,21.9998 95.0027,21.9998z"
   id="glyph247" />
   <glyph
   unicode="ó"
   horiz-adv-x="575"
   d="M288.002 -7.99928c-50.0007,0 -93.8343,10.3292 -131.501,31.0015 -37.6665,20.6654 -66.8358,50.3326 -87.5012,88.9946 -20.6654,38.669 -31.0015,83.671 -31.0015,135.006 0,51.3281 10.3361,96.1642 31.0015,134.494 20.6654,38.3371 49.8348,67.8383 87.5012,88.5037 37.6665,20.6654 81.5,31.0015 131.501,31.0015 50.0007,0 93.8343,-10.3361 131.501,-31.0015 37.6665,-20.6654 66.663,-50.1666 86.9965,-88.5037 20.3335,-38.3302 30.5037,-83.1662 30.5037,-134.494 0,-51.3351 -10.1702,-96.3371 -30.5037,-135.006 -20.3335,-38.662 -49.3301,-68.3292 -86.9965,-88.9946 -37.6665,-20.6723 -81.5,-31.0015 -131.501,-31.0015zm-1.0025 97.0008c40.667,0 71.6686,13.3298 92.9977,39.9964 21.336,26.6666 32.004,65.9993 32.004,118.005 0,51.3281 -10.668,90.4949 -32.004,117.5 -21.3291,26.9984 -51.9988,40.4942 -91.9952,40.4942 -40.0033,0 -70.832,-13.4958 -92.4999,-40.4942 -21.6679,-27.0054 -32.5018,-66.1721 -32.5018,-117.5 0,-52.0057 10.668,-91.3384 31.9971,-118.005 21.336,-26.6666 52.0057,-39.9964 92.0021,-39.9964zm40.9989 464l-79.9997 0 98.9989 203.999 127 0 -145.999 -203.999z"
   id="glyph249" />
   <glyph
   unicode="T"
   horiz-adv-x="612"
   d="M241.997 0l0 598.999 -229.995 0 0 106.003 588.995 0 0 -106.003 -229.995 0 0 -598.999 -129.005 0z"
   id="glyph251" />
   <glyph
   unicode="v"
   horiz-adv-x="526"
   d="M407.998 487.998l123.004 0 -214.003 -487.998 -108.996 0 -212.005 487.998 132.005 0 138 -344.999 141.996 344.999z"
   id="glyph253" />
   <glyph
   unicode="e"
   horiz-adv-x="531"
   d="M493.999 222.003l-332.997 0c3.99618,-45.3339 17.6648,-79.0041 40.9989,-101.004 23.3341,-21.9998 56.6656,-32.9996 100.001,-32.9996 53.9969,0 103.334,17.3329 147.997,51.9988l36.0002 -86.0009c-22.6635,-18.6604 -51.1691,-33.6634 -85.4962,-44.9951 -34.334,-11.3317 -68.8339,-17.0011 -103.507,-17.0011 -79.9997,0 -143.164,22.6635 -189.494,67.9973 -46.3364,45.3339 -69.5046,107.337 -69.5046,186.002 0,50.0007 10.0043,94.3321 29.999,133.001 20.0017,38.662 48.1685,68.668 84.5006,89.9971 36.3321,21.336 77.5038,32.004 123.501,32.004 67.3336,0 120.501,-21.6679 159.502,-65.0037 39.0008,-43.3289 58.4978,-103.002 58.4978,-178.999l0 -34.9977zm-214.999 190.994c-33.3315,0 -60.164,-10.6611 -80.4975,-31.9971 -20.3335,-21.336 -32.8337,-51.9988 -37.5005,-92.0021l225.999 0c-1.33437,40.667 -11.3317,71.5026 -29.999,92.4999 -18.6673,21.0042 -44.6701,31.4993 -78.0016,31.4993z"
   id="glyph255" />
   <glyph
   unicode="s"
   horiz-adv-x="484"
   d="M244.998 -7.99928c-43.3289,0 -83.1662,5.33055 -119.498,15.9986 -36.3321,10.668 -67.1677,26.0028 -92.4999,45.9976l34.9977 87.0034c52.0057,-37.9983 111.672,-56.9975 179.006,-56.9975 28.6647,0 50.4985,4.66682 65.4945,14.0005 15.003,9.32673 22.5045,22.6635 22.5045,39.9964 0,14.6642 -5.17153,26.0028 -15.5008,34.0021 -10.3361,7.99928 -28.8375,15.3348 -55.5041,21.9998l-79.9997 17.9967c-45.3339,10.0043 -78.9972,26.3347 -100.997,49.0051 -21.9998,22.6635 -32.9996,51.9988 -32.9996,87.999 0,29.999 8.49708,56.4997 25.4981,79.495 17.0011,23.0023 40.667,40.833 70.9979,53.506 30.3378,12.6661 65.5015,18.9992 105.505,18.9992 34.6659,0 68.1633,-5.33746 100.499,-16.0055 32.3359,-10.6611 60.8346,-25.6641 85.4962,-44.9951l-34.9977 -85.0053c-50.6644,36.6709 -101.336,55.0063 -152,55.0063 -27.3303,0 -48.6663,-5.0056 -64.0012,-15.003 -15.3279,-9.99737 -22.9953,-23.9978 -22.9953,-42.0014 0,-13.3298 4.83275,-24.3297 14.4983,-32.9996 9.66551,-8.66301 25.1663,-15.3348 46.5023,-20.0017l83.0003 -18.9992c48.6663,-10.668 84.3278,-27.4962 106.998,-50.4985 22.6635,-23.0023 33.9952,-53.1672 33.9952,-90.5018 0,-45.3339 -18.3285,-81.3341 -54.9994,-108.001 -36.6639,-26.6666 -86.3328,-39.9964 -149,-39.9964z"
   id="glyph257" />
   <glyph
   unicode="g"
   horiz-adv-x="605"
   d="M540.999 489l0 -443.998c0,-76.6673 -21.1632,-134.667 -63.4965,-174 -42.3333,-39.3327 -104.834,-59.0025 -187.503,-59.0025 -42.6651,0 -83.664,5.50339 -122.997,16.5033 -39.3396,10.9999 -73.6667,26.4937 -103.002,46.4954l34.9977 87.999c60.6687,-36.6639 123.335,-54.9994 188,-54.9994 86.6646,0 130,42.6721 130,128.002l0 64.0012c-14.6642,-27.3372 -36.0002,-48.5004 -64.0012,-63.5034 -28.0009,-14.9961 -59.9981,-22.4975 -95.9983,-22.4975 -42.6651,0 -80.4975,10.1633 -113.497,30.4968 -33.0065,20.3335 -58.8365,48.8392 -77.5038,85.5031 -18.6673,36.6639 -28.0009,78.9972 -28.0009,127 0,48.0026 9.16772,90.5018 27.5031,127.498 18.3285,37.0027 44.1654,65.6674 77.4969,86.0009 33.3384,20.3335 71.3367,30.5037 114.002,30.5037 36.0002,0 67.9973,-7.50149 95.9983,-22.5045 28.0009,-14.9961 49.337,-36.1662 64.0012,-63.4965l0 73.9985 123.999 0zm-250.999 -377.999c40.0033,0 71.1639,12.998 93.5024,39.0008 22.3316,25.9959 33.4974,61.6643 33.4974,106.998 0,45.9976 -11.1658,81.9978 -33.4974,108.001 -22.3385,25.9959 -53.4991,39.0008 -93.5024,39.0008 -39.3327,0 -70.3342,-13.0049 -92.9977,-39.0008 -22.6704,-26.0028 -34.0021,-62.0031 -34.0021,-108.001 0,-44.6701 11.3317,-80.1657 34.0021,-106.5 22.6635,-26.3347 53.665,-39.4986 92.9977,-39.4986z"
   id="glyph259" />
   <glyph
   unicode=" "
   horiz-adv-x="271"
   d=""
   id="glyph261" />
   <glyph
   unicode="S"
   horiz-adv-x="637"
   d="M315 -9.00178c-53.9969,0 -104.668,7.33555 -152,21.9998 -47.332,14.6711 -87.3353,35.3365 -120.003,62.0031l43.0039 94.0002c34.0021,-26.0028 69.8295,-45.002 107.496,-57.0044 37.6665,-11.9955 78.5063,-17.9967 122.506,-17.9967 48.6663,0 86.1668,8.49708 112.495,25.4981 26.3347,17.0011 39.5055,40.833 39.5055,71.5026 0,26.6666 -12.1683,47.0001 -36.5049,61.0006 -24.3297,14.0005 -64.8308,27.3303 -121.496,39.9964 -58.6706,12.6661 -106.334,27.3372 -142.998,43.9995 -36.6709,16.6692 -64.333,38.0052 -83.0003,64.0012 -18.6673,26.0028 -28.0009,59.0025 -28.0009,98.9989 0,41.3377 11.3317,78.3335 33.9952,111.001 22.6704,32.6678 54.6675,58.1659 96.0052,76.5013 41.3308,18.3354 88.9946,27.5031 142.998,27.5031 49.3301,0 96.3301,-7.50149 141,-22.5045 44.6632,-14.9961 81.3341,-35.4955 109.999,-61.4984l-42.997 -94.0002c-62.6668,50.0007 -132.005,75.001 -208.002,75.001 -45.3339,0 -81.1682,-9.16772 -107.503,-27.5031 -26.3278,-18.3285 -39.4986,-43.8336 -39.4986,-76.5013 0,-27.3303 11.6705,-48.3275 34.9977,-62.9987 23.3341,-14.6642 63.0056,-28.3328 119.001,-40.9989 59.3343,-13.3298 107.503,-28.1669 144.506,-44.4973 36.9958,-16.3373 65.3286,-37.1687 84.9984,-62.5009 19.6629,-25.3322 29.5012,-57.3362 29.5012,-95.9983 0,-42.0014 -11.1727,-78.8382 -33.5043,-110.503 -22.3316,-31.6653 -54.6675,-56.0019 -97.0008,-72.996 -42.3333,-17.0011 -92.1611,-25.5051 -149.497,-25.5051z"
   id="glyph263" />
   <glyph
   unicode="r"
   horiz-adv-x="382"
   d="M387.001 396.998l-73.0029 -6.99678c-82.6615,-8.66992 -123.999,-50.6713 -123.999,-126.004l0 -263.997 -125.002 0 0 489 119.001 0 0 -86.0009c25.3391,58.6706 77.6698,90.6677 157.006,95.9983l37.9983 3.00059 7.99928 -105z"
   id="glyph265" />
   <glyph
   unicode="o"
   horiz-adv-x="575"
   d="M288.002 -7.99928c-50.0007,0 -93.8343,10.3292 -131.501,31.0015 -37.6665,20.6654 -66.8358,50.3326 -87.5012,88.9946 -20.6654,38.669 -31.0015,83.671 -31.0015,135.006 0,51.3281 10.3361,96.1642 31.0015,134.494 20.6654,38.3371 49.8348,67.8383 87.5012,88.5037 37.6665,20.6654 81.5,31.0015 131.501,31.0015 50.0007,0 93.8343,-10.3361 131.501,-31.0015 37.6665,-20.6654 66.663,-50.1666 86.9965,-88.5037 20.3335,-38.3302 30.5037,-83.1662 30.5037,-134.494 0,-51.3351 -10.1702,-96.3371 -30.5037,-135.006 -20.3335,-38.662 -49.3301,-68.3292 -86.9965,-88.9946 -37.6665,-20.6723 -81.5,-31.0015 -131.501,-31.0015zm-1.0025 97.0008c40.667,0 71.6686,13.3298 92.9977,39.9964 21.336,26.6666 32.004,65.9993 32.004,118.005 0,51.3281 -10.668,90.4949 -32.004,117.5 -21.3291,26.9984 -51.9988,40.4942 -91.9952,40.4942 -40.0033,0 -70.832,-13.4958 -92.4999,-40.4942 -21.6679,-27.0054 -32.5018,-66.1721 -32.5018,-117.5 0,-52.0057 10.668,-91.3384 31.9971,-118.005 21.336,-26.6666 52.0057,-39.9964 92.0021,-39.9964z"
   id="glyph267" />
   <glyph
   unicode="l"
   horiz-adv-x="253"
   d="M64.9968 0l0 705.001 125.002 0 0 -705.001 -125.002 0z"
   id="glyph269" />
   <glyph
   unicode="i"
   horiz-adv-x="253"
   d="M64.9968 0l0 489 125.002 0 0 -489 -125.002 0zm-6.99678 716.001l138 0 0 -123.004 -138 0 0 123.004z"
   id="glyph271" />
  </font>
</defs>
</svg>
