<?xml version="1.0" encoding="UTF-8" standalone="no"?>
<!-- Creator: CorelDRAW X8 -->

<svg
   xml:space="preserve"
   width="186.03841"
   height="240.17969"
   version="1.1"
   style="clip-rule:evenodd;fill-rule:evenodd;image-rendering:optimizeQuality;shape-rendering:geometricPrecision;text-rendering:geometricPrecision"
   viewBox="0 0 186.03841 240.17969"
   id="svg25"
   sodipodi:docname="logo.svg"
   inkscape:version="1.2.1 (9c6d41e410, 2022-07-14)"
   xmlns:inkscape="http://www.inkscape.org/namespaces/inkscape"
   xmlns:sodipodi="http://sodipodi.sourceforge.net/DTD/sodipodi-0.dtd"
   xmlns:xlink="http://www.w3.org/1999/xlink"
   xmlns="http://www.w3.org/2000/svg"
   xmlns:svg="http://www.w3.org/2000/svg"><sodipodi:namedview
   id="namedview27"
   pagecolor="#ffffff"
   bordercolor="#666666"
   borderopacity="1.0"
   inkscape:pageshadow="2"
   inkscape:pageopacity="0.0"
   inkscape:pagecheckerboard="0"
   showgrid="false"
   inkscape:zoom="0.32373857"
   inkscape:cx="108.11193"
   inkscape:cy="185.33473"
   inkscape:window-width="1366"
   inkscape:window-height="697"
   inkscape:window-x="-8"
   inkscape:window-y="-8"
   inkscape:window-maximized="1"
   inkscape:current-layer="Capa_x0020_1"
   inkscape:showpageshadow="2"
   inkscape:deskcolor="#d1d1d1" />
 <defs
   id="defs10">
  <style
   type="text/css"
   id="style2">
   <![CDATA[
    .fil0 {fill:white}
    .fil3 {fill:black;fill-rule:nonzero}
    .fil1 {fill:url(#id0)}
    .fil2 {fill:url(#id1)}
   ]]>
  </style>
  <linearGradient
   id="id0"
   gradientUnits="userSpaceOnUse"
   x1="467.38199"
   y1="553.10101"
   x2="652.979"
   y2="553.10101">
   <stop
   offset="0"
   style="stop-opacity:1; stop-color:#EB7128"
   id="stop4" />
   <stop
   offset="1"
   style="stop-opacity:1; stop-color:#E6A420"
   id="stop6" />
  </linearGradient>
  <linearGradient
   id="id1"
   gradientUnits="userSpaceOnUse"
   xlink:href="#id0"
   x1="474.577"
   y1="442.23499"
   x2="595.31799"
   y2="442.23499">
  </linearGradient>
 </defs>
 <g
   id="Capa_x0020_1"
   inkscape:label="Capa 1"
   inkscape:groupmode="layer"
   transform="translate(-466.93065,-357.90365)">
  <metadata
   id="CorelCorpID_0Corel-Layer" />
  
  <g
   id="_3114017696560"
   style="fill:#ffffff">
   <path
   class="fil1"
   d="m 532,542 c -11,5 -24,9 -38,7 -15,-1 -20,-9 -27,-17 -1,19 9,43 18,52 13,13 33,17 56,12 19,-5 34,-14 54,-19 8,-2 21,-6 31,-3 12,3 11,12 9,24 16,-10 23,-41 14,-64 -25,-58 -94,-1 -117,8 z m 74,21 c 3,-6 9,-7 16,-11 l -10,-10 c 2,-1 4,-2 7,-3 l 8,-2 c 0,0 1,0 1,0 l -6,-13 c 22,1 27,31 21,52 -12,-14 -13,-14 -37,-13 z"
   id="path15"
   style="fill:#ffffff" />
   <path
   class="fil2"
   d="m 483,490 c -25,31 8,42 40,34 8,-2 29,-11 32,-16 4,-5 3,-36 2,-44 -6,-40 -37,-20 -57,-37 11,-2 24,-2 35,0 13,2 16,6 24,11 l 4,-9 c 6,9 10,17 11,32 2,0 1,0 2,-1 4,-2 -2,0 5,-2 l -2,34 c 15,-26 24,-49 7,-82 -6,-13 -15,-21 -24,-29 -5,-5 -11,-8 -14,-12 -5,-5 -7,-12 -16,-11 -3,24 4,22 -12,39 -4,4 -8,8 -14,12 -6,4 -12,6 -17,9 0,19 33,19 41,24 -2,18 -29,26 -47,48 z m 55,-74 c 0,2 -4,3 -9,3 -5,0 -9,-1 -9,-3 0,-2 4,-4 9,-4 5,0 9,2 9,4 z"
   id="path17"
   style="fill:#ffffff" />
  </g>
  
  
 </g>
</svg>
